<?xml version="1.0" encoding="utf-8"?>
<!-- Generator: Adobe Illustrator 27.5.0, SVG Export Plug-In . SVG Version: 6.00 Build 0)  -->
<svg version="1.1" id="logo-no-words" xmlns="http://www.w3.org/2000/svg" xmlns:xlink="http://www.w3.org/1999/xlink" x="0px"
	 y="0px" viewBox="0 0 190.1 201.9" style="enable-background:new 0 0 190.1 201.9;" xml:space="preserve">
<style type="text/css">
	.st0{fill:none;stroke:#000000;stroke-width:5;stroke-miterlimit:10;}
</style>
<g id="outer-circle">
	<circle class="st0" cx="95.1" cy="109" r="67.7"/>
</g>
<g id="inner-picture">
	<path d="M32.8,125.8c7.7-0.1,14.9,4.1,22,7c3.8,1.5,7.7,2.7,11.8,3.1c4.6,0.4,9.1-0.7,13.3-2.4c4.6-1.8,9.1-4.1,13.6-6.2
		s9.2-4.3,13.8-6.5s9.1-4.2,13.6-6.4s8.6-4.2,12.5-7c2.1-1.5,4.1-3.1,6.5-4.2c2.1-1,4.4-1.4,6.6-1.8c5-0.9,10-1.3,14.5-3.7
		c1.4-0.8,1.9-2.8,1.1-4.1c-0.9-1.5-2.7-1.8-4.1-1.1c-3.7,1.9-8,2.3-12.1,2.9c-4.5,0.7-8.7,2-12.5,4.6s-7.7,5.2-11.8,7.3
		s-8.8,4.2-13.2,6.3c-9,4.2-18,8.6-27.1,12.7c-3.9,1.8-8.1,3.5-12.4,3.6c-3.7,0.1-7.1-0.9-10.6-2.2c-8.3-3.1-16.2-8-25.3-7.9
		C28.9,119.8,28.9,125.8,32.8,125.8L32.8,125.8L32.8,125.8z"/>
	<path d="M105.8,148.3l0.3,1.2c0,0.2,0.3,0.3,0.5,0.3c0.2-0.1,0.3-0.3,0.3-0.5l-0.3-1.2c0-0.2-0.3-0.3-0.5-0.3
		C105.8,147.9,105.7,148.1,105.8,148.3L105.8,148.3z"/>
	<path d="M106,148.6c1.3-0.5,2.5-1,3.5-1.9c1.1-1,1.9-2.3,2.7-3.6c1.9-2.6,3.8-5.3,5.4-8.1c0.2-0.4-0.4-0.8-0.7-0.4
		c-1.5,2.6-3.2,5-5,7.4c-0.8,1.2-1.7,2.4-2.6,3.5s-2.2,1.7-3.6,2.2C105.3,148.1,105.5,148.8,106,148.6L106,148.6L106,148.6z"/>
	<path d="M110.2,145.3c-0.1,0.8-0.2,1.6-0.1,2.5c0,0.4,0.3,0.5,0.6,0.6c0.4,0.1,0.7,0.2,1.1,0.3c1.3,0.3,2.9,0.4,3.7,1.7
		c0.2,0.4,0.9,0.1,0.7-0.4c-0.7-1.3-2.1-1.7-3.4-1.9c-0.4-0.1-0.7-0.1-1.1-0.3c-0.2-0.1-0.4-0.1-0.6-0.2c-0.1,0-0.2-0.1-0.2-0.1
		c-0.1,0-0.1,0-0.1-0.1c0.1,0.2,0.2,0.3,0.2,0.1c0-0.2,0-0.4,0-0.6c0-0.2,0-0.4,0-0.6c0-0.4,0.1-0.8,0.1-1.2c0-0.2-0.2-0.4-0.4-0.4
		C110.4,144.9,110.2,145.1,110.2,145.3L110.2,145.3L110.2,145.3z"/>
	<path d="M117,134.8c-0.1,1.3,0,2.6-0.1,3.9s-0.1,2.5-0.3,3.8c-0.3,2.6-0.8,5.3-1.3,7.9c-0.1,0.5,0.6,0.7,0.7,0.2
		c0.5-2.6,1-5.1,1.3-7.8c0.2-1.3,0.3-2.6,0.3-3.9s-0.1-2.7,0.1-4.1C117.8,134.4,117.1,134.4,117,134.8L117,134.8L117,134.8z"/>
	<path d="M117.1,135.1c0,2.7-0.1,5.4-0.3,8s-0.5,5.2-0.1,7.8c0.1,0.5,0.8,0.3,0.7-0.2c-0.4-2.6,0-5.3,0.2-7.9s0.2-5.1,0.2-7.7
		C117.9,134.7,117.1,134.7,117.1,135.1L117.1,135.1z"/>
	<path d="M117.2,151.2c1.1,0.6,2.4,0.7,3.6,1c1.3,0.3,2.7,0.7,4,1.1c0.5,0.1,0.7-0.6,0.2-0.7c-1.3-0.4-2.5-0.8-3.8-1.1
		c-1.2-0.3-2.5-0.4-3.6-0.9C117.2,150.3,116.8,150.9,117.2,151.2L117.2,151.2L117.2,151.2z"/>
	<path d="M124.3,148.5c-0.1,1.4,0,2.9,0.3,4.2c0.1,0.5,0.8,0.3,0.7-0.2c-0.3-1.3-0.4-2.7-0.3-4C125.1,148,124.3,148,124.3,148.5
		L124.3,148.5L124.3,148.5z"/>
	<path d="M117.1,134.8c0.1,0.7,0.2,1.4,0.3,2c0.1,0.6,0.4,1,0.7,1.5c0.6,1.2,1.1,2.5,1.7,3.7s1.3,2.3,2.1,3.3
		c0.8,1.2,1.8,2.2,2.6,3.4c0.3,0.4,0.9,0,0.7-0.4c-0.8-1.1-1.7-2.1-2.5-3.2s-1.5-2.2-2.1-3.3s-1.2-2.4-1.7-3.6
		c-0.3-0.6-0.6-1-0.8-1.6c-0.1-0.7-0.2-1.4-0.3-2C117.8,134.1,117,134.3,117.1,134.8L117.1,134.8L117.1,134.8z"/>
	<path d="M124.6,149.1c0.4,0.3,0.5,0.7,0.7,1.1c0.2,0.5,0.6,0.9,0.9,1.3s0.7,0.8,1,1.1c0.4,0.4,0.7,0.9,1,1.4c0.2,0.4,0.9,0,0.6-0.4
		c-0.6-1-1.3-1.8-2-2.6c-0.3-0.4-0.6-0.8-0.9-1.2s-0.4-0.9-0.8-1.2c-0.2-0.1-0.4-0.1-0.5,0C124.5,148.7,124.4,149,124.6,149.1
		L124.6,149.1L124.6,149.1z"/>
	<path d="M125.3,148.5c1.2-0.1,2.3-0.6,3.4-1c1.1-0.5,2.3-1,3.4-1.4s2.5-0.6,3.7-1s2.4-0.9,3.7-1.3c0.5-0.1,0.3-0.8-0.2-0.7
		c-1.3,0.3-2.4,0.9-3.7,1.3c-1.1,0.4-2.4,0.5-3.5,0.9s-2.2,0.8-3.2,1.3c-1.1,0.5-2.4,1.1-3.6,1.1
		C124.8,147.8,124.8,148.6,125.3,148.5L125.3,148.5z"/>
	<path d="M117.6,134.7c2.9,0.7,5.9,0.5,8.8,0.1c1.4-0.2,2.8-0.4,4.2-0.8c1.5-0.4,2.9-0.9,4.5-1.1c0.5-0.1,0.5-0.8,0-0.8
		c-2.8,0.4-5.5,1.4-8.4,1.8s-6,0.7-8.9-0.1C117.3,133.8,117.1,134.5,117.6,134.7L117.6,134.7L117.6,134.7z"/>
	<path d="M134.7,132.6c0.2,2.1,0.9,4.1,1.6,6.1s1.5,3.8,2.7,5.4c0.3,0.4,0.9,0,0.6-0.4c-1.2-1.6-2-3.3-2.6-5.2s-1.4-3.9-1.6-5.9
		C135.4,132.1,134.7,132.1,134.7,132.6L134.7,132.6L134.7,132.6z"/>
	<path d="M125.3,152.9c1.3-0.6,2.7-1,4-1.4c0.5-0.1,0.9-0.3,1.3-0.6c0.6-0.4,1.1-0.7,1.8-0.9c1.2-0.5,2.4-1,3.7-1.3
		c0.6-0.2,1.2-0.3,1.8-0.6s1-0.8,1.5-1.1c0.4-0.3-0.1-0.8-0.5-0.5c-0.6,0.5-1.2,1-1.9,1.3c-0.6,0.2-1.2,0.3-1.8,0.5
		c-1.2,0.4-2.5,0.9-3.7,1.4c-0.4,0.2-0.8,0.4-1.2,0.7c-0.6,0.4-1.2,0.6-1.9,0.8c-1.2,0.4-2.4,0.8-3.5,1.3
		C124.5,152.5,124.9,153.1,125.3,152.9L125.3,152.9L125.3,152.9z"/>
	<path d="M138.9,143.9c0.1,0.8,0.2,1.7,0.2,2.5c0,0.2,0.2,0.4,0.4,0.4c0.2,0,0.4-0.2,0.4-0.4c-0.1-0.8-0.1-1.7-0.2-2.5
		c0-0.2-0.2-0.4-0.4-0.4C139.1,143.5,138.9,143.7,138.9,143.9L138.9,143.9z"/>
	<path d="M139.2,144.4c0.2,0.1,0.4,0.4,0.5,0.6c0.2,0.3,0.4,0.6,0.6,0.9c0.4,0.6,0.8,1.2,1.3,1.7c0.4,0.3,0.9-0.2,0.5-0.5
		c-0.5-0.5-1-1.1-1.4-1.8c-0.2-0.3-0.4-0.6-0.6-1s-0.4-0.6-0.8-0.7C138.9,143.5,138.7,144.3,139.2,144.4L139.2,144.4L139.2,144.4z"
		/>
	<path d="M33.9,104.4c-0.5,3.1-0.2,6.2,0,9.3s0.2,6.5-0.1,9.7c-0.1,1,1.4,1,1.5,0c0.3-3.1,0.3-6.2,0.1-9.3s-0.5-6.2,0-9.3
		C35.5,103.9,34.1,103.5,33.9,104.4L33.9,104.4L33.9,104.4z"/>
	<path d="M38.9,86.2c0.4,3.1,0.4,6.2,0.5,9.2s0.2,6.3,0.3,9.4c0.1,6.1-0.3,12.3,0.4,18.3c0.1,0.9,1.6,1,1.5,0
		c-0.7-6.1-0.3-12.2-0.4-18.3c0-3.1-0.2-6.1-0.2-9.2s-0.1-6.4-0.5-9.5C40.3,85.3,38.8,85.3,38.9,86.2L38.9,86.2L38.9,86.2z"/>
	<path d="M48.7,96.3c-0.2,5.2,0.2,10.4,0.4,15.7s-0.2,10.3-0.2,15.5c0,1,1.5,1,1.5,0c0.1-5.2,0.4-10.3,0.2-15.5s-0.5-10.4-0.4-15.7
		C50.3,95.3,48.8,95.3,48.7,96.3L48.7,96.3z"/>
	<path d="M54.6,112.1c-0.2,1.3,0,2.6,0.1,3.9c0.1,1.5,0.2,2.9,0.2,4.4c0,2.9-0.1,5.8-0.2,8.7c0,1,1.5,1,1.5,0
		c0.1-2.8,0.3-5.6,0.2-8.4c0-1.4,0-2.7-0.2-4.1s-0.4-2.8-0.2-4.2C56.2,111.6,54.7,111.2,54.6,112.1L54.6,112.1L54.6,112.1z"/>
	<path d="M57.3,94.7c0.4,12,0.8,23.9,2,35.9c0.1,0.9,1.6,1,1.5,0c-1.2-11.9-1.6-23.9-2-35.8C58.8,93.8,57.3,93.8,57.3,94.7
		C57.3,94.7,57.3,94.7,57.3,94.7z"/>
	<path d="M91.6,87.8c0.5,5.8,0.1,11.6,0.4,17.4s0.6,11.9,0.9,17.8c0.1,1,1.6,1,1.5,0c-0.3-5.9-0.6-11.9-0.9-17.8s0.1-11.6-0.4-17.4
		C93,86.8,91.5,86.8,91.6,87.8L91.6,87.8z"/>
	<path d="M99.2,98.5c0,3.4,0.1,6.8,0.3,10.2s0.5,6.9,0.5,10.4c0,0.8,1.3,1.1,1.5,0.2l0.1-0.3c0.2-0.9-1.3-1.3-1.4-0.4l-0.1,0.3
		l1.5,0.2c0-3.4-0.2-6.9-0.5-10.4s-0.3-6.8-0.3-10.2C100.7,97.5,99.2,97.5,99.2,98.5L99.2,98.5L99.2,98.5z"/>
	<path d="M107,79.5c0.4,12.3-1.1,24.6,0.6,36.9c0.1,0.9,1.6,0.6,1.4-0.4c-1.7-12.1-0.2-24.3-0.6-36.5C108.5,78.6,107,78.6,107,79.5
		L107,79.5L107,79.5z"/>
	<path d="M113,88.7c0.1,4.1,0,8.3-0.1,12.4s-0.5,8.1-0.1,12c0.1,0.9,1.6,1,1.5,0c-0.4-4,0.1-8,0.1-12s0.1-8.3,0.1-12.4
		C114.4,87.8,112.9,87.8,113,88.7C113,88.7,113,88.7,113,88.7z"/>
	<path d="M116.6,75.5c0.4,6.1,0.7,12.2,0.9,18.3c0.2,5.7-0.3,11.7,1.2,17.3c0.2,0.9,1.7,0.5,1.4-0.4c-0.7-2.8-0.8-5.6-0.9-8.5
		s-0.1-5.9-0.2-8.9c-0.2-5.9-0.5-11.8-0.9-17.8C118,74.5,116.5,74.5,116.6,75.5L116.6,75.5L116.6,75.5z"/>
	<path d="M120.7,60c1.1,8.6-0.2,17.3,0,26c0.1,4.3,0.4,8.7,0.8,13c0.2,2.1,0.4,4.2,0.6,6.4c0.1,1,0,2.2,0.3,3.1
		c0.2,0.5,0.4,0.7,1,0.8c1,0.1,0.9-1.4,0-1.5l-0.2,0l0.7,0.4c-0.3-0.8-0.2-2.2-0.3-3c-0.1-1-0.2-2-0.3-2.9c-0.2-2-0.4-4.1-0.6-6.1
		c-0.3-4-0.6-8-0.6-12.1c0-8,1.1-16,0-24C122.1,59.1,120.6,59,120.7,60L120.7,60L120.7,60z"/>
	<path d="M124.4,54.5c-0.5,4.3,0.5,8.6,0.5,12.9s-0.2,8.7-0.1,13c0.1,8.8,0.6,17.5,1.4,26.3c0.1,0.9,1.6,1,1.5,0
		c-0.9-8.7-1.4-17.5-1.4-26.3c0-4.3,0.1-8.7,0.1-13s-1-8.6-0.5-12.9C126.1,53.6,124.6,53.6,124.4,54.5L124.4,54.5z"/>
	<path d="M131.1,104.8c0.7-3.9,0.5-7.9,0.4-11.8s0.4-8,0-12c-0.6-8.2-1-16.3-0.4-24.5c0.1-1-1.4-1-1.5,0c-0.5,8-0.3,16,0.4,24
		c0.3,3.8-0.1,7.7,0,11.5c0.1,4.1,0.3,8.3-0.4,12.4C129.4,105.4,130.9,105.8,131.1,104.8L131.1,104.8L131.1,104.8z"/>
	<path d="M145.9,97.2c-1-4.6,0.1-9.3,0.1-13.9c0-4.6-0.3-9.3-0.5-13.9c0-1-1.5-1-1.5,0c0.2,4.8,0.6,9.6,0.5,14.3s-1.1,9.3-0.1,13.9
		C144.7,98.5,146.1,98.1,145.9,97.2L145.9,97.2L145.9,97.2z"/>
	<path d="M151.1,96.3c-1.4-5.4-0.1-11.1-0.5-16.6c-0.1-1-1.6-1-1.5,0c0.4,5.7-0.9,11.4,0.5,17C149.9,97.6,151.4,97.2,151.1,96.3
		L151.1,96.3z"/>
	<path d="M90.4,93.4c0.9-0.4,1.2-1.4,1.5-2.3c0.4-0.9,0.7-1.9,1.1-2.8c0.1-0.4-0.2-0.8-0.5-0.9c-0.4-0.1-0.8,0.1-0.9,0.5
		c-0.3,0.9-0.7,1.7-1,2.6c-0.1,0.2-0.2,0.4-0.2,0.6c0,0.1-0.1,0.2-0.1,0.3c0,0,0,0.1-0.1,0.1c0-0.1,0-0.1,0,0
		c-0.1,0.1-0.1,0.3-0.2,0.4c0.1-0.1-0.1,0.1-0.1,0.1c0.1-0.1-0.1,0-0.1,0.1c-0.3,0.2-0.5,0.7-0.3,1C89.6,93.5,90,93.6,90.4,93.4
		L90.4,93.4L90.4,93.4z"/>
	<path d="M33.7,105.3c0.4,1.3,0.9,2.6,1.6,3.8c0.2,0.3,0.7,0.5,1,0.3c0.3-0.2,0.5-0.7,0.3-1c-0.2-0.3-0.3-0.6-0.4-0.8
		c-0.1-0.1-0.1-0.3-0.2-0.4c0-0.1-0.1-0.2-0.1-0.2c0.1,0.2,0-0.1,0-0.1c-0.2-0.6-0.5-1.2-0.6-1.8c-0.1-0.4-0.5-0.7-0.9-0.5
		S33.6,104.9,33.7,105.3L33.7,105.3L33.7,105.3z"/>
	<path d="M33.2,113.6c0.6-1,1.2-2,1.6-3.1c0.1-0.2,0-0.4-0.1-0.6s-0.3-0.3-0.5-0.3c-0.2,0-0.4,0-0.6,0.1s-0.3,0.3-0.3,0.4
		c0,0.1,0,0.1-0.1,0.2c0.1-0.2,0,0,0,0.1c0,0.1-0.1,0.2-0.2,0.3c-0.1,0.2-0.2,0.5-0.4,0.7c-0.2,0.5-0.5,0.9-0.8,1.4
		c-0.2,0.3-0.1,0.8,0.3,1C32.5,114,32.9,113.9,33.2,113.6C33.2,113.6,33.2,113.6,33.2,113.6z"/>
	<path d="M34.1,115.9c0.3,0.8,0.6,1.5,1.2,2.1s1.4,1,2.3,0.9c0.4,0,0.8-0.3,0.8-0.8c0-0.4-0.3-0.8-0.8-0.8c-0.1,0-0.2,0-0.2,0
		c0,0-0.1,0-0.1,0c0,0,0.2,0,0,0c-0.1,0-0.2,0-0.2-0.1c0,0-0.1,0-0.1,0c-0.1,0-0.1-0.1,0,0c-0.1-0.1-0.3-0.1-0.4-0.2
		c0,0-0.1-0.1,0,0s0,0,0,0c-0.1-0.1-0.1-0.1-0.2-0.2c0-0.1-0.1-0.1-0.2-0.2c-0.1-0.1,0,0,0,0c0,0,0-0.1-0.1-0.1
		c-0.1-0.1-0.2-0.3-0.3-0.4s-0.2-0.3-0.2-0.4c0-0.1,0-0.2,0,0c0,0,0-0.1,0-0.1c0-0.1-0.1-0.2-0.1-0.2c-0.1-0.2-0.2-0.3-0.3-0.4
		c-0.2-0.1-0.4-0.1-0.6-0.1C34.2,115.1,33.9,115.5,34.1,115.9L34.1,115.9L34.1,115.9z"/>
	<path d="M33.5,121.5c0.6-0.7,1.2-1.4,1.9-2.1c0.3-0.3,0.3-0.8,0-1.1c-0.3-0.3-0.8-0.3-1.1,0c-0.6,0.7-1.2,1.4-1.9,2.1
		c-0.1,0.2-0.2,0.3-0.2,0.5c0,0.2,0.1,0.4,0.2,0.5s0.3,0.2,0.5,0.2C33.1,121.8,33.3,121.7,33.5,121.5
		C33.4,121.5,33.4,121.5,33.5,121.5z"/>
	<path d="M39.7,92.1c0.6,1,0.8,2.2,1.3,3.2c0.5,1.2,1.4,2,2.3,2.8c0.3,0.3,0.8,0.3,1.1,0c0.3-0.3,0.3-0.8,0-1.1
		c-0.8-0.7-1.7-1.4-2.1-2.5s-0.6-2.2-1.3-3.2c-0.2-0.3-0.7-0.5-1-0.3C39.7,91.3,39.5,91.8,39.7,92.1L39.7,92.1L39.7,92.1z"/>
	<path d="M38,101c1.3-1.2,2.2-2.7,2.8-4.3c0.1-0.4-0.2-0.8-0.5-0.9c-0.4-0.1-0.8,0.1-0.9,0.5c-0.1,0.2-0.1,0.4-0.2,0.5
		c0,0.1,0-0.1,0,0c0,0,0,0.1,0,0.1c0,0.1-0.1,0.2-0.1,0.3c-0.2,0.3-0.4,0.7-0.6,1c-0.1,0.2-0.2,0.3-0.3,0.5c0,0,0,0.1-0.1,0.1
		c-0.1,0.1,0.1-0.1,0,0c-0.1,0.1-0.1,0.1-0.2,0.2c-0.3,0.3-0.5,0.6-0.8,0.9s-0.3,0.8,0,1.1C37.3,101.2,37.7,101.2,38,101L38,101
		L38,101z"/>
	<path d="M43.6,106.9c-0.1-0.1-0.2-0.1-0.2-0.2c0,0-0.1-0.1-0.1-0.1c0-0.1,0-0.1,0,0c-0.1-0.2-0.2-0.3-0.3-0.5
		c-0.2-0.4-0.3-0.7-0.5-1.1c-0.4-0.9-0.9-1.7-1.5-2.4c-0.2-0.3-0.8-0.3-1.1,0c-0.3,0.3-0.3,0.7,0,1.1c0,0.1,0.1,0.1,0.1,0.2
		c0.1,0.1,0-0.1,0,0c0.1,0.1,0.1,0.2,0.2,0.3c0.1,0.2,0.3,0.4,0.4,0.6c0.2,0.4,0.4,0.8,0.6,1.2c0.3,0.8,0.7,1.6,1.3,2.1
		c0.3,0.2,0.8,0.3,1.1,0C43.9,107.6,44,107.1,43.6,106.9L43.6,106.9L43.6,106.9z"/>
	<path d="M37.7,113.1c0.8-2,1.6-4.1,3-5.7c0.3-0.3,0.3-0.8,0-1.1c-0.3-0.3-0.8-0.3-1.1,0c-1.6,1.8-2.5,4.1-3.4,6.4
		c-0.2,0.4,0.2,0.8,0.5,0.9C37.2,113.7,37.6,113.5,37.7,113.1L37.7,113.1L37.7,113.1z"/>
	<path d="M39.8,113.6c0.1,0.5,0.3,0.9,0.6,1.3s0.6,0.8,0.9,1.1c0.6,0.7,1.3,1.3,2.2,1.6c0.4,0.1,0.8-0.2,0.9-0.5
		c0.1-0.4-0.1-0.8-0.5-0.9c0,0-0.2-0.1-0.1,0s0,0-0.1,0c-0.1,0-0.2-0.1-0.2-0.1c-0.1-0.1-0.2-0.1-0.2-0.2c0,0-0.2-0.1,0,0
		c0,0-0.1-0.1-0.1-0.1c-0.3-0.2-0.5-0.5-0.8-0.8c-0.1-0.1-0.1-0.1-0.2-0.2c0,0-0.1-0.1,0-0.1s0,0,0-0.1c-0.1-0.2-0.2-0.3-0.3-0.5
		c-0.1-0.2-0.2-0.3-0.3-0.5c0,0-0.1-0.1-0.1-0.1l0,0.1c0,0,0-0.1,0-0.1c0-0.1-0.1-0.2-0.1-0.3c-0.1-0.4-0.6-0.6-0.9-0.5
		C39.9,112.8,39.8,113.2,39.8,113.6L39.8,113.6L39.8,113.6z"/>
	<path d="M48.2,110c0.1-0.3,0.2-0.6,0.3-0.9c0-0.1,0.1-0.2,0.1-0.2c-0.1,0.1,0,0,0-0.1c0.1-0.2,0.1-0.3,0.2-0.4
		c0.2-0.3,0.3-0.6,0.5-0.8c0-0.1,0.1-0.1,0.1-0.2c0,0-0.1,0.1,0,0c0,0,0-0.1,0.1-0.1c0.1-0.1,0.2-0.3,0.3-0.4c0.3-0.3,0.3-0.8,0-1.1
		s-0.8-0.3-1.1,0c-1,1.1-1.8,2.4-2.1,3.9c-0.1,0.4,0.1,0.8,0.5,0.9C47.6,110.6,48.1,110.4,48.2,110L48.2,110L48.2,110z"/>
	<path d="M48.9,101.6c0.9,1.3,1.8,2.5,2.9,3.6c0.3,0.3,0.8,0.3,1.1,0s0.3-0.8,0-1.1c-0.5-0.5-1-1.1-1.5-1.6
		c-0.1-0.1-0.2-0.3-0.3-0.4c0-0.1,0-0.1,0,0c0,0,0-0.1-0.1-0.1c-0.1-0.1-0.1-0.2-0.2-0.2c-0.2-0.3-0.4-0.6-0.6-0.9
		c-0.2-0.3-0.7-0.5-1-0.3C48.8,100.8,48.6,101.3,48.9,101.6C48.9,101.6,48.9,101.6,48.9,101.6z"/>
	<path d="M49.3,111.9C49.3,111.9,49.4,112,49.3,111.9c0,0,0.1,0.1,0.1,0.1c0,0,0,0.1,0.1,0.1c0,0.1,0,0.1,0,0
		c0.1,0.2,0.1,0.4,0.2,0.6c0.1,0.4,0.3,0.9,0.5,1.2c0.5,0.8,1.2,1.4,2,1.9c0.3,0.2,0.8,0.1,1-0.3c0.2-0.4,0.1-0.8-0.3-1
		c-0.1-0.1-0.2-0.1-0.2-0.2c-0.1-0.1,0,0,0,0c0,0-0.1-0.1-0.1-0.1c-0.2-0.1-0.3-0.3-0.4-0.4s-0.3-0.3-0.4-0.4s0,0.1,0,0
		c0,0-0.1-0.1-0.1-0.1c-0.1-0.1-0.1-0.2-0.2-0.3c0-0.1-0.1-0.2-0.1-0.2c0-0.1,0-0.1,0,0c0-0.1,0-0.1,0-0.1c-0.1-0.2-0.1-0.4-0.2-0.6
		c-0.2-0.5-0.3-0.9-0.7-1.3c-0.3-0.3-0.8-0.3-1.1,0S49,111.6,49.3,111.9L49.3,111.9L49.3,111.9z"/>
	<path d="M48.1,121.1c0.5-0.7,0.9-1.6,1.2-2.4c0-0.1,0.1-0.2,0.1-0.3c0-0.1,0-0.1,0.1-0.1c0,0,0.1-0.2,0-0.1
		c0.1-0.2,0.2-0.4,0.3-0.6s0.2-0.4,0.3-0.6c0-0.1,0.1-0.2,0.2-0.2c0-0.1,0.1-0.1,0.1-0.2c0,0,0.1-0.2,0-0.1c0.2-0.3,0.3-0.8,0-1.1
		c-0.3-0.2-0.8-0.3-1.1,0c-0.6,0.8-1,1.6-1.4,2.5c-0.1,0.2-0.2,0.4-0.2,0.6c0,0.1,0,0,0,0.1c0,0.1,0,0.1-0.1,0.1
		c0,0.1-0.1,0.2-0.1,0.3c-0.2,0.4-0.4,0.8-0.7,1.2c-0.2,0.3-0.1,0.8,0.3,1C47.5,121.6,47.9,121.5,48.1,121.1L48.1,121.1L48.1,121.1z
		"/>
	<path d="M49.1,120.9c0.3,1,0.9,1.9,1.6,2.6c0.4,0.4,0.9,0.9,1.5,0.9c0.8,0.1,1.5-0.7,1.3-1.5c-0.1-0.4-0.5-0.7-0.9-0.5
		s-0.6,0.5-0.5,0.9c0-0.1,0-0.1,0-0.2c0-0.1,0-0.1,0,0c0-0.1,0.1-0.1,0-0.1c0,0.1,0,0,0.1-0.1c-0.1,0.1,0.1-0.1,0,0c0,0,0.2-0.1,0,0
		c-0.1,0,0.2,0,0,0c0.1,0,0.1,0,0.1,0h0c0.1,0,0.1,0,0.1,0c0,0,0,0-0.1,0c0,0-0.1-0.1-0.1-0.1c-0.1-0.1,0.1,0.1,0,0
		c0,0-0.1-0.1-0.1-0.1c-0.1-0.1-0.1-0.1-0.2-0.2c-0.1-0.1-0.3-0.3-0.4-0.4c-0.1-0.1-0.1-0.1-0.2-0.2c0.1,0.1,0,0,0,0
		c0,0,0-0.1-0.1-0.1c-0.1-0.2-0.2-0.3-0.3-0.5s-0.2-0.3-0.2-0.5c0,0,0-0.1-0.1-0.1c-0.1-0.2,0.1,0.2,0,0c0-0.1-0.1-0.2-0.1-0.3
		c-0.1-0.4-0.5-0.7-0.9-0.5C49.3,120.1,49,120.5,49.1,120.9L49.1,120.9L49.1,120.9z"/>
	<path d="M52.8,120.9c1.2-0.3,1.9-1.4,2.2-2.5c0.4-1.2,0.6-2.4,0.8-3.7c0.1-0.4-0.1-0.8-0.5-0.9c-0.4-0.1-0.8,0.1-0.9,0.5
		c-0.2,1.1-0.5,2.2-0.7,3.2c-0.1,0.4-0.2,0.9-0.5,1.3c-0.2,0.3-0.5,0.5-0.8,0.6c-0.4,0.1-0.6,0.5-0.5,0.9S52.5,121,52.8,120.9
		L52.8,120.9L52.8,120.9z"/>
	<path d="M54.8,122.4c0.7,1,1.5,2,2.4,2.8c0.3,0.3,0.8,0.3,1.1,0c0.3-0.3,0.3-0.8,0-1.1c-0.4-0.4-0.8-0.8-1.2-1.2
		c-0.1-0.1-0.2-0.2-0.3-0.3c0,0,0-0.1-0.1-0.1c-0.1-0.1,0.1,0.1,0,0c0-0.1-0.1-0.1-0.1-0.2c-0.2-0.2-0.3-0.5-0.5-0.7
		c-0.2-0.3-0.7-0.5-1-0.3S54.5,122,54.8,122.4L54.8,122.4L54.8,122.4z"/>
	<path d="M57.7,95.5C57.8,95.6,57.7,95.4,57.7,95.5C57.8,95.6,57.8,95.6,57.7,95.5l0.1,0.2c0,0.1,0.1,0.3,0.1,0.4
		c0,0.3,0.1,0.5,0.2,0.8c0.2,0.6,0.4,1.1,0.6,1.6c0.5,1,1.3,1.9,2.3,2.5c0.3,0.2,0.8,0.1,1-0.3s0.1-0.8-0.3-1
		c-0.2-0.2-0.4-0.2-0.6-0.4s-0.4-0.3-0.5-0.5c0,0-0.1-0.1-0.1-0.1c0,0-0.1-0.1-0.1-0.1c-0.1-0.1-0.2-0.2-0.2-0.3
		c-0.1-0.2-0.3-0.5-0.4-0.7c-0.1-0.2-0.2-0.4-0.2-0.6s-0.2-0.5-0.2-0.7c-0.1-0.6-0.2-1.2-0.7-1.7C58.1,93.7,57,94.8,57.7,95.5
		L57.7,95.5L57.7,95.5z"/>
	<path d="M56.7,106.5c0.7-0.6,0.9-1.5,1.1-2.4c0.2-1,0.6-1.8,1.1-2.6c0.2-0.3,0.1-0.8-0.3-1c-0.4-0.2-0.8-0.1-1,0.3
		c-0.5,0.8-0.9,1.8-1.2,2.7c-0.1,0.4-0.2,0.8-0.3,1.2c0,0.1-0.1,0.2-0.1,0.3c0-0.1,0,0.1-0.1,0.1c0,0.1-0.1,0.1-0.1,0.2
		c-0.1,0.1,0.1-0.1,0,0c-0.1,0.1-0.1,0.2-0.2,0.2c-0.3,0.3-0.3,0.8,0,1.1C55.9,106.8,56.3,106.8,56.7,106.5
		C56.7,106.5,56.7,106.5,56.7,106.5z"/>
	<path d="M57.7,108c0.6,1.8,2,3.2,3.7,3.8c0.4,0.1,0.8-0.2,0.9-0.5c0.1-0.4-0.1-0.8-0.5-0.9c-0.1,0-0.2-0.1-0.3-0.1c0.2,0.1,0,0,0,0
		s-0.1,0-0.1-0.1c-0.2-0.1-0.3-0.2-0.5-0.3c-0.1-0.1-0.2-0.1-0.2-0.2c0,0-0.1-0.1-0.1-0.1c0.1,0.1,0.1,0.1,0,0l0,0
		c-0.2-0.1-0.3-0.2-0.4-0.4s-0.2-0.3-0.4-0.4c0-0.1,0.1,0.1,0,0c0,0,0-0.1-0.1-0.1c-0.1-0.1-0.1-0.2-0.2-0.2
		c-0.1-0.2-0.2-0.3-0.3-0.5c0,0-0.1-0.1-0.1-0.1s0.1,0.2,0,0c0-0.1-0.1-0.2-0.1-0.3c-0.1-0.4-0.5-0.7-0.9-0.5
		C57.9,107.2,57.6,107.6,57.7,108L57.7,108L57.7,108z"/>
	<path d="M57.4,117c0-0.2,0.1-0.4,0.2-0.6c0,0,0.1-0.2,0-0.1c0,0.1,0-0.1,0-0.1c0-0.1,0.1-0.2,0.1-0.3c0.2-0.4,0.4-0.7,0.6-1.1
		c0.4-0.7,0.9-1.5,1-2.3c0.1-0.4-0.1-0.8-0.5-0.9c-0.4-0.1-0.8,0.1-0.9,0.5c0,0.2-0.1,0.4-0.1,0.6c0,0.1,0,0.1,0,0.2
		c0,0,0,0.1,0,0.1c0-0.1,0,0.1,0,0.1c0,0,0,0.1-0.1,0.1c-0.2,0.4-0.4,0.7-0.6,1.1c-0.4,0.7-0.9,1.5-1.1,2.3
		c-0.1,0.4,0.1,0.8,0.5,0.9C56.8,117.6,57.3,117.4,57.4,117L57.4,117L57.4,117z"/>
	<path d="M58.5,118.5c0.3,0.8,0.7,1.6,1.3,2.2s1.4,1.1,2.3,1.2c0.4,0,0.8-0.4,0.8-0.8c0-0.4-0.3-0.7-0.8-0.8c-0.2,0,0.2,0,0,0
		c0,0-0.1,0-0.1,0c-0.1,0-0.2,0-0.2-0.1c0,0-0.1-0.1-0.1,0c0.1,0,0.1,0.1,0.1,0c0,0,0,0-0.1,0c-0.1,0-0.1-0.1-0.2-0.1
		s-0.1-0.1-0.2-0.1c-0.1-0.1,0.1,0.1,0,0c0,0-0.1-0.1-0.1-0.1c-0.1-0.1-0.2-0.2-0.3-0.4c0,0-0.1-0.1,0,0s0,0,0-0.1
		c0-0.1-0.1-0.2-0.2-0.2c-0.1-0.2-0.2-0.3-0.3-0.5c-0.2-0.3-0.3-0.7-0.5-1.1c-0.1-0.2-0.3-0.3-0.5-0.3c-0.2-0.1-0.4,0-0.6,0.1
		s-0.3,0.3-0.3,0.4C58.4,118.2,58.5,118.4,58.5,118.5L58.5,118.5L58.5,118.5z"/>
	<path d="M58.8,128.9c0.1-0.2,0.1-0.5,0.2-0.7c0-0.1,0.1-0.2,0.1-0.4c0-0.1,0-0.1,0.1-0.2c0,0,0-0.1,0-0.1c0-0.1-0.1,0.2,0,0
		c0.1-0.2,0.2-0.4,0.3-0.6c0,0,0-0.1,0.1-0.1c0.1-0.1,0,0,0,0.1c0,0,0.1-0.1,0.1-0.1c0.1-0.1,0.2-0.2,0.3-0.3c0.3-0.2,0.3-0.8,0-1.1
		c-0.3-0.3-0.7-0.3-1.1,0c-0.9,0.8-1.3,2-1.6,3.1c-0.1,0.4,0.1,0.8,0.5,0.9S58.6,129.4,58.8,128.9L58.8,128.9L58.8,128.9z"/>
	<path d="M91.8,87.8c0.1,0.7,0.2,1.4,0.3,2.1c0.1,0.6,0.2,1.3,0.4,1.8c0.5,1.2,1.5,1.9,2.6,2.6c0.3,0.2,0.8,0.1,1-0.3
		c0.2-0.4,0.1-0.8-0.3-1c-0.8-0.5-1.7-1.1-2-2.1c-0.2-0.5-0.2-1.1-0.3-1.6c-0.1-0.7-0.2-1.3-0.3-2c-0.1-0.4-0.6-0.6-0.9-0.5
		C91.9,87,91.7,87.4,91.8,87.8L91.8,87.8L91.8,87.8z"/>
	<path d="M89,100.1c2.1-0.9,3.8-3,4.2-5.3c0.1-0.4-0.1-0.8-0.5-0.9c-0.4-0.1-0.8,0.1-0.9,0.5c-0.1,0.3-0.1,0.5-0.2,0.8
		c0,0.1-0.1,0.2-0.1,0.4c0,0.1,0,0.1-0.1,0.2c0.1-0.1,0,0.1,0,0.1c-0.1,0.2-0.2,0.4-0.4,0.7c-0.1,0.1-0.1,0.2-0.2,0.3
		c0,0.1-0.1,0.1-0.1,0.2c0,0,0,0.1-0.1,0.1c0-0.1,0-0.1,0,0c-0.3,0.4-0.7,0.8-1.1,1.1c0.1-0.1,0,0-0.1,0c-0.1,0-0.1,0.1-0.2,0.1
		c-0.1,0.1-0.2,0.2-0.4,0.2c-0.2,0.1-0.5,0.2-0.7,0.4c-0.4,0.2-0.5,0.7-0.3,1C88.2,100.2,88.7,100.3,89,100.1L89,100.1L89,100.1z"/>
	<path d="M92,96.2c0.6,1.6,1.8,3,3.3,3.8c0.3,0.2,0.8,0.1,1-0.3s0.1-0.8-0.3-1c-0.2-0.1-0.3-0.2-0.5-0.3c-0.1-0.1-0.1-0.1-0.2-0.2
		c0,0-0.1-0.1-0.1-0.1c-0.1-0.1,0.1,0.1,0,0c-0.3-0.2-0.6-0.5-0.8-0.8c-0.1-0.1-0.1-0.1-0.2-0.2c0,0-0.1-0.1-0.1-0.1
		c0.1,0.2,0,0,0,0c-0.1-0.2-0.2-0.3-0.3-0.4s-0.2-0.3-0.3-0.5c0-0.1-0.1-0.2-0.1-0.2c0,0,0-0.1,0-0.1c0-0.1,0,0,0,0.1
		c0,0,0-0.1-0.1-0.1c-0.1-0.4-0.5-0.7-0.9-0.5C92.2,95.4,91.8,95.8,92,96.2L92,96.2L92,96.2z"/>
	<path d="M88.9,107.8C88.8,107.9,88.9,107.7,88.9,107.8C89,107.6,89,107.6,88.9,107.8c0.1-0.1,0.1-0.1,0.1-0.1c0,0,0.2-0.1,0.1-0.1
		c0.1,0,0.1-0.1,0.2-0.1c0.2-0.2,0.5-0.3,0.8-0.4c0.6-0.3,1.1-0.7,1.5-1.3c0.2-0.2,0.3-0.5,0.4-0.8c0.1-0.2,0.1-0.3,0.2-0.5
		c0,0,0.1-0.2,0.1-0.2s0.1-0.1,0.1-0.2c0.1-0.3,0.2-0.5,0.4-0.8c0,0,0.1-0.2,0-0.1c0-0.1,0.1-0.1,0.1-0.2s0.1-0.1,0.1-0.1
		c0.1-0.1,0.1-0.1,0,0c0,0,0.1-0.1,0.1-0.1c0.3-0.2,0.5-0.7,0.3-1c-0.2-0.3-0.7-0.5-1-0.3c-0.6,0.4-1,1-1.3,1.6
		c-0.1,0.2-0.1,0.3-0.2,0.5c0,0.1-0.1,0.2-0.1,0.3c0,0-0.1,0.2,0,0.1c-0.1,0.3-0.3,0.6-0.4,0.9c0,0.1-0.1,0.1-0.1,0.2
		c-0.1,0.1-0.1,0.1,0,0c0,0-0.1,0.1-0.1,0.1c0,0.1-0.1,0.1-0.1,0.1c0,0-0.2,0.2-0.1,0.1s-0.1,0.1-0.2,0.1c-0.1,0-0.1,0.1-0.2,0.1
		c-0.1,0.1-0.3,0.2-0.4,0.2c-0.7,0.3-1.3,0.8-1.6,1.5c-0.2,0.4,0.2,0.8,0.5,0.9C88.4,108.4,88.7,108.1,88.9,107.8L88.9,107.8
		L88.9,107.8z"/>
	<path d="M92.3,104.5l1,0.9c0.3,0.3,0.6,0.6,0.9,0.9c0.4,0.3,0.8,0.6,1.3,0.6c0.5,0.1,1-0.1,1.3-0.4c0.3-0.3,0.3-0.8,0-1.1
		s-0.8-0.3-1.1,0c-0.1,0.1,0,0,0,0c0,0-0.1,0-0.1,0.1c0,0,0.2-0.1,0,0c0,0-0.1,0-0.1,0c0,0,0.2,0,0.1,0c0,0-0.1,0-0.1,0
		c-0.1,0,0.1,0,0.1,0c0,0-0.1,0-0.1,0c0,0-0.1-0.1,0,0s0,0,0,0c-0.1,0-0.1-0.1-0.2-0.1c-0.1-0.1,0.1,0.1,0,0c0,0-0.1-0.1-0.1-0.1
		c-0.1-0.1-0.1-0.1-0.2-0.2c-0.6-0.5-1.1-1-1.6-1.6c-0.3-0.3-0.8-0.3-1.1,0S92,104.2,92.3,104.5L92.3,104.5L92.3,104.5z"/>
	<path d="M90.2,115.4c0.9-0.2,1.6-1.1,2.1-1.8s0.9-1.6,1.1-2.4c0.1-0.4-0.1-0.8-0.5-0.9s-0.8,0.1-0.9,0.5c-0.1,0.2-0.1,0.4-0.2,0.5
		c0,0.1-0.1,0.2-0.1,0.3c0-0.1,0-0.1,0,0c0,0.1,0,0.1-0.1,0.1c-0.2,0.3-0.3,0.7-0.6,1c-0.1,0.1-0.1,0.2-0.2,0.2c0,0-0.1,0.1-0.1,0.1
		c0,0.1-0.1,0.1,0,0c-0.1,0.1-0.2,0.3-0.4,0.4c-0.1,0.1-0.1,0.1-0.2,0.2c0,0-0.1,0.1-0.1,0.1l0.1-0.1c0,0-0.1,0-0.1,0.1
		c-0.1,0-0.2,0.1-0.2,0.1c0.1,0,0.1,0,0,0c-0.1,0-0.1,0-0.2,0c-0.4,0.1-0.6,0.6-0.5,0.9C89.4,115.3,89.8,115.5,90.2,115.4
		L90.2,115.4L90.2,115.4z"/>
	<path d="M93.1,113.7c0.5,0.9,1.5,1.4,2.5,1.7c0.6,0.2,1.2,0.2,1.7,0c0.6-0.2,1-0.6,1.2-1.2c0.1-0.4-0.2-0.8-0.5-0.9
		c-0.4-0.1-0.8,0.1-0.9,0.5c0-0.1,0-0.1,0,0c0,0.1,0,0,0,0c0,0-0.1,0.1-0.1,0.1c-0.1,0.1,0.1,0,0,0c0,0-0.1,0-0.1,0.1
		c0,0-0.1,0.1,0,0s0,0-0.1,0c0,0-0.1,0-0.1,0c0,0-0.1,0-0.1,0c0.1,0-0.1,0-0.1,0c-0.1,0-0.1,0-0.2,0c0,0-0.1,0,0,0
		c-0.2,0-0.4-0.1-0.6-0.2c-0.1,0-0.2-0.1-0.2-0.1c0,0-0.1,0-0.1,0c0,0-0.1-0.1-0.1,0s0,0-0.1,0c0,0-0.1,0-0.1-0.1
		c-0.1,0-0.2-0.1-0.2-0.1c-0.1,0-0.1-0.1-0.2-0.1s0,0,0,0c0,0-0.1-0.1-0.1-0.1c0,0-0.1-0.1-0.1-0.1c0,0-0.1-0.1,0,0s0,0,0-0.1
		c0,0-0.1-0.1-0.1-0.1c-0.2-0.3-0.7-0.5-1-0.3S92.8,113.3,93.1,113.7L93.1,113.7L93.1,113.7z"/>
	<path d="M99.2,100.9c0.2-0.6,0.5-1.1,0.9-1.5l-0.1,0.2c0.1-0.1,0.2-0.2,0.2-0.3c0.1-0.2,0.2-0.3,0.2-0.5c0-0.2-0.1-0.4-0.2-0.5
		s-0.3-0.2-0.5-0.2c-0.2,0-0.4,0.1-0.5,0.2c-0.5,0.6-0.9,1.2-1.2,2c-0.1,0.1-0.1,0.2-0.1,0.3c0,0.1,0,0.2,0,0.3
		c0.1,0.2,0.2,0.4,0.3,0.4c0.2,0.1,0.4,0.1,0.6,0.1C99,101.2,99.2,101.1,99.2,100.9L99.2,100.9L99.2,100.9z"/>
	<path d="M99.3,100.6c0.1,1.1,0.5,2.2,1.3,3s1.9,1.3,3,1.2c0.4,0,0.8-0.3,0.8-0.8c0-0.4-0.3-0.8-0.8-0.8c-0.1,0-0.2,0-0.3,0
		c-0.1,0-0.1,0-0.1,0c-0.1,0,0.1,0,0,0c-0.2,0-0.4-0.1-0.6-0.2c0.2,0.1,0,0,0,0c-0.1,0-0.1-0.1-0.2-0.1c-0.1-0.1-0.2-0.1-0.2-0.2
		c0,0-0.1-0.1-0.1-0.1c0.1,0.1,0,0,0,0c-0.1-0.1-0.2-0.1-0.2-0.2s-0.2-0.2-0.2-0.2c-0.1-0.1,0,0.1,0,0c0-0.1-0.1-0.1-0.1-0.1
		c-0.1-0.2-0.2-0.4-0.3-0.6c0-0.1,0.1,0.1,0,0c0-0.1,0-0.1-0.1-0.2c0-0.1-0.1-0.2-0.1-0.3s-0.1-0.2-0.1-0.3c0-0.1,0-0.1,0-0.2
		c0-0.2,0,0.1,0,0c0-0.4-0.3-0.8-0.8-0.8C99.7,99.8,99.3,100.1,99.3,100.6L99.3,100.6L99.3,100.6z"/>
	<path d="M99.3,103.4C99.3,103.3,99.3,103.3,99.3,103.4c0,0.1,0,0.1,0,0.2c0,0-0.1,0.3-0.1,0.2c-0.1,0.2-0.2,0.3-0.3,0.5
		c-0.2,0.4-0.5,0.7-0.7,1.1c-0.5,0.8-1,1.5-1.5,2.3c-0.2,0.3-0.1,0.8,0.3,1c0.4,0.2,0.8,0.1,1-0.3c0.5-0.8,1.1-1.6,1.6-2.5
		s1.1-1.6,1.2-2.6c0-0.4-0.4-0.8-0.8-0.8C99.6,102.7,99.3,103,99.3,103.4L99.3,103.4L99.3,103.4z"/>
	<path d="M99.6,108.4l0.8,0.9c0.3,0.3,0.5,0.6,0.8,0.9c0.3,0.3,0.7,0.6,1.1,0.7c0.5,0.1,1,0,1.4-0.3c0.3-0.2,0.3-0.8,0-1.1
		c-0.3-0.3-0.7-0.3-1.1,0c0,0,0.1-0.1,0,0c-0.1,0.1,0.1,0,0,0c0,0-0.1,0-0.1,0c-0.1,0,0.2,0,0.1,0c0,0-0.1,0-0.1,0c0,0,0.2,0,0.1,0
		c0,0-0.1,0-0.1,0c0,0-0.2-0.1,0,0c0.1,0,0,0,0,0c0,0-0.1,0-0.1-0.1c-0.1-0.1,0,0,0,0c0,0-0.1-0.1-0.1-0.1c-0.1-0.1-0.2-0.2-0.3-0.3
		c-0.5-0.5-1-1.1-1.4-1.6c-0.3-0.3-0.8-0.3-1.1,0C99.3,107.7,99.3,108.1,99.6,108.4C99.6,108.4,99.6,108.4,99.6,108.4z"/>
	<path d="M97.9,114.3c0.7,0.3,1.5,0,2-0.5c0.2-0.2,0.4-0.5,0.6-0.7c0.2-0.2,0.3-0.5,0.5-0.7c0.1-0.2,0.1-0.4,0.1-0.6
		s-0.2-0.4-0.3-0.4c-0.4-0.2-0.8-0.1-1,0.3c-0.2,0.3-0.4,0.6-0.6,0.9l0.1-0.2c-0.2,0.2-0.3,0.4-0.5,0.5l0.2-0.1
		c-0.1,0.1-0.2,0.2-0.4,0.2l0.2-0.1c-0.1,0.1-0.2,0.1-0.4,0.1l0.2,0c-0.1,0-0.2,0-0.3,0l0.2,0c-0.1,0-0.1,0-0.2-0.1
		c-0.2-0.1-0.4,0-0.6,0.1s-0.3,0.3-0.3,0.4c0,0.2,0,0.4,0.1,0.6S97.7,114.3,97.9,114.3L97.9,114.3L97.9,114.3z"/>
	<path d="M105.2,83.9c0.9-0.1,1.6-0.8,2.2-1.5c0.5-0.7,0.9-1.4,1.1-2.1c0.1-0.4-0.1-0.8-0.5-0.9c-0.4-0.1-0.8,0.1-0.9,0.5
		c0,0.1-0.1,0.2-0.1,0.2c0,0,0,0.1,0,0.1c0,0-0.1,0.2,0,0.1s0,0,0,0.1c0,0,0,0.1-0.1,0.1c0,0.1-0.1,0.1-0.1,0.2
		c-0.2,0.3-0.3,0.6-0.5,0.8c0,0-0.1,0.1,0,0c0.1-0.1,0,0,0,0c-0.1,0.1-0.1,0.1-0.2,0.2c-0.1,0.1-0.2,0.2-0.3,0.3
		c-0.1,0.1-0.1,0.1-0.2,0.2c0,0-0.1,0.1-0.1,0.1c-0.1,0.1,0.1-0.1,0,0c-0.1,0-0.2,0.1-0.2,0.1c0,0,0.1-0.1,0,0c-0.1,0-0.1,0,0,0
		c0.1,0,0.1,0,0,0c-0.4,0-0.8,0.3-0.8,0.8C104.4,83.6,104.7,84,105.2,83.9L105.2,83.9L105.2,83.9z"/>
	<path d="M107.4,83.6C107.4,83.5,107.4,83.5,107.4,83.6C107.4,83.6,107.4,83.6,107.4,83.6C107.3,83.5,107.4,83.6,107.4,83.6
		C107.5,83.7,107.3,83.4,107.4,83.6c0,0.1,0,0.1,0,0.1c0.1,0.2,0.2,0.5,0.3,0.7c0.2,0.4,0.4,0.8,0.6,1.1c0.3,0.4,0.6,0.8,0.9,1.1
		c0.4,0.4,0.8,0.8,1.4,0.8c0.4,0,0.8-0.3,0.8-0.8S111,86,110.6,86c-0.1,0,0,0,0.1,0c0.1,0,0,0-0.1,0c-0.1-0.1,0,0.1,0,0
		c0,0-0.1-0.1-0.1-0.1c-0.2-0.1-0.3-0.3-0.4-0.4c-0.1-0.1-0.1-0.2-0.2-0.2s0.1,0.1,0,0c0,0-0.1-0.1-0.1-0.1
		c-0.1-0.2-0.2-0.3-0.3-0.5s-0.2-0.3-0.3-0.5c0-0.1,0-0.1-0.1-0.1c0-0.1-0.1-0.1,0,0c0-0.1-0.1-0.2-0.1-0.3
		c-0.2-0.5-0.3-0.9-0.8-1.2c-0.3-0.2-0.8-0.1-1,0.3C107,83,107.1,83.4,107.4,83.6L107.4,83.6L107.4,83.6z"/>
	<path d="M105.7,91.1c1.2-1,2.2-2.3,2.9-3.8c0.2-0.4,0.1-0.8-0.3-1c-0.3-0.2-0.8-0.1-1,0.3c-0.3,0.7-0.7,1.3-1.2,1.9
		c-0.1,0.1,0.1-0.1,0,0c0,0-0.1,0.1-0.1,0.1c-0.1,0.1-0.1,0.1-0.2,0.2c-0.1,0.2-0.2,0.3-0.4,0.4c-0.3,0.3-0.5,0.5-0.8,0.8
		s-0.3,0.8,0,1.1C104.9,91.4,105.4,91.4,105.7,91.1L105.7,91.1L105.7,91.1z"/>
	<path d="M107.1,89.5c0.6,1.4,1.6,2.7,3,3.3c0.3,0.2,0.8,0.1,1-0.3c0.2-0.3,0.1-0.8-0.3-1c-0.3-0.1-0.6-0.3-0.8-0.5c0,0-0.1-0.1,0,0
		c0,0-0.1-0.1-0.1-0.1c-0.1-0.1-0.1-0.1-0.2-0.2c-0.1-0.1-0.2-0.2-0.3-0.3c-0.1-0.1-0.1-0.1-0.2-0.2c0,0-0.1-0.1-0.1-0.1
		c0,0-0.1-0.2,0,0c-0.1-0.1-0.2-0.3-0.3-0.4s-0.2-0.3-0.2-0.4c0-0.1-0.1-0.2-0.1-0.2c0-0.1-0.1-0.2,0,0c0,0,0-0.1-0.1-0.1
		c-0.1-0.2-0.2-0.3-0.3-0.4c-0.2-0.1-0.4-0.1-0.6-0.1C107.3,88.7,107,89.1,107.1,89.5L107.1,89.5L107.1,89.5z"/>
	<path d="M105.8,99c1-0.9,1.8-2,2.5-3.1c0.2-0.3,0.1-0.8-0.3-1s-0.8-0.1-1,0.3c-0.2,0.3-0.3,0.5-0.5,0.8c-0.1,0.1-0.2,0.3-0.3,0.4
		c-0.1,0.1-0.1,0.1-0.2,0.2c-0.1,0.1,0,0,0,0c0,0-0.1,0.1-0.1,0.1c-0.4,0.5-0.8,0.9-1.3,1.4c-0.3,0.3-0.3,0.8,0,1.1
		C105,99.3,105.4,99.3,105.8,99L105.8,99L105.8,99z"/>
	<path d="M107,99.2c-0.1,1,0.4,1.9,1.1,2.6s1.6,1.1,2.5,1.4c0.4,0.1,0.8-0.1,0.9-0.5s-0.1-0.8-0.5-0.9c-0.2-0.1-0.4-0.1-0.6-0.2
		c0,0-0.1,0-0.1-0.1c-0.2-0.1,0,0,0,0c0,0-0.2-0.1-0.3-0.1c-0.2-0.1-0.3-0.2-0.5-0.3c-0.1,0-0.1-0.1-0.1-0.1c0,0-0.1-0.1-0.1,0
		s0,0-0.1,0c0,0-0.1-0.1-0.1-0.1c-0.1-0.1-0.1-0.1-0.2-0.2c0,0-0.1-0.1-0.1-0.1c-0.1-0.1,0.1,0.1,0,0c-0.1-0.2-0.2-0.3-0.3-0.5
		c0,0,0-0.1,0-0.1c0-0.1,0,0,0,0.1c0,0,0-0.1,0-0.1c0-0.1-0.1-0.2-0.1-0.3c0,0,0-0.1,0-0.1c0-0.1,0,0.2,0,0c0-0.1,0-0.2,0-0.3
		c0-0.4-0.4-0.8-0.8-0.8C107.3,98.5,107,98.8,107,99.2L107,99.2L107,99.2z"/>
	<path d="M104.4,108.2c0.3,0.1,0.6,0,0.9-0.1c0.2-0.1,0.4-0.2,0.6-0.4c0.1-0.1-0.1,0.1,0,0c0,0,0.1-0.1,0.1-0.1
		c0.1-0.1,0.2-0.1,0.2-0.1c0.2-0.1,0.3-0.2,0.5-0.2c0.8-0.4,1.2-1.1,1.5-1.9c0.2-0.3,0.1-0.8-0.3-1c-0.3-0.2-0.8-0.1-1,0.3
		c-0.1,0.3-0.3,0.6-0.5,0.8c0,0-0.1,0.1-0.1,0.1c-0.1,0.1,0,0,0,0c-0.1,0.1-0.1,0.1-0.2,0.2s-0.1,0.1-0.2,0.2c0.1-0.1,0.1-0.1,0,0
		c0,0-0.1,0-0.1,0.1c-0.3,0.2-0.6,0.3-0.9,0.5c-0.1,0.1-0.2,0.2-0.3,0.2c-0.1,0.1,0,0,0,0c0,0-0.1,0.1-0.1,0.1c0,0-0.1,0-0.1,0.1
		c0,0-0.1,0.1,0,0s0,0,0,0l0.1,0c0.1,0,0.2,0,0.1,0c-0.4-0.1-0.8,0.1-0.9,0.5C103.8,107.6,104,108.1,104.4,108.2L104.4,108.2
		L104.4,108.2z"/>
	<path d="M107.1,108.1c1.2,1.5,3.2,2.2,5.1,1.9c0.4-0.1,0.6-0.6,0.5-0.9c-0.1-0.4-0.5-0.6-0.9-0.5c-0.1,0-0.1,0,0,0
		c-0.1,0-0.1,0-0.2,0c-0.1,0-0.2,0-0.3,0c-0.2,0-0.4,0-0.6,0c-0.1,0,0.1,0,0,0c0,0-0.1,0-0.1,0c-0.1,0-0.2,0-0.3-0.1
		c-0.2-0.1-0.4-0.1-0.6-0.2c0,0-0.1-0.1-0.1,0s-0.1,0-0.1,0c-0.1,0-0.2-0.1-0.3-0.1c-0.2-0.1-0.3-0.2-0.5-0.3c-0.1,0-0.1-0.1,0,0
		c0,0-0.1-0.1-0.1-0.1c-0.1-0.1-0.1-0.1-0.2-0.2c-0.2-0.1-0.3-0.3-0.4-0.5c-0.2-0.3-0.8-0.3-1.1,0
		C106.8,107.4,106.9,107.8,107.1,108.1L107.1,108.1L107.1,108.1z"/>
	<path d="M105.6,114.5c1.2-0.6,2.2-1.6,2.8-2.8c0.2-0.3,0.1-0.8-0.3-1c-0.3-0.2-0.8-0.1-1,0.3c-0.1,0.3-0.3,0.5-0.5,0.8
		c0,0-0.1,0.1-0.1,0.1c0.1-0.2,0.1-0.1,0,0c0,0.1-0.1,0.1-0.1,0.2c-0.1,0.1-0.2,0.2-0.3,0.3s-0.2,0.2-0.3,0.3c0,0-0.1,0-0.1,0.1
		c-0.1,0.1,0.2-0.1,0,0c-0.1,0-0.1,0.1-0.2,0.1c-0.2,0.2-0.5,0.3-0.8,0.4c-0.2,0.1-0.3,0.3-0.3,0.4c-0.1,0.2,0,0.4,0.1,0.6
		C104.8,114.6,105.2,114.7,105.6,114.5L105.6,114.5L105.6,114.5z"/>
	<path d="M113.1,89.1c-0.2,1.8,0.6,3.6,1.9,4.7c0.3,0.2,0.8,0.3,1.1,0c0.2-0.3,0.3-0.8,0-1.1c-0.2-0.1-0.3-0.2-0.4-0.4
		c-0.1-0.1-0.1-0.1-0.2-0.2c0,0-0.1-0.1-0.1-0.1c-0.1-0.1,0.1,0.1,0,0c-0.1-0.2-0.2-0.3-0.3-0.5c-0.1-0.1-0.1-0.2-0.1-0.2
		c0,0,0-0.1-0.1-0.1c-0.1-0.1,0,0.1,0,0c-0.1-0.3-0.2-0.7-0.3-1.1c0,0.1,0,0.1,0,0c0-0.1,0-0.1,0-0.2c0-0.1,0-0.2,0-0.3
		c0-0.2,0-0.4,0-0.6c0.1-0.4-0.4-0.8-0.8-0.8C113.4,88.4,113.2,88.7,113.1,89.1L113.1,89.1L113.1,89.1z"/>
	<path d="M112,98.6c0.8-1.4,1.6-2.8,2.5-4.2c0.2-0.3,0.1-0.8-0.3-1c-0.4-0.2-0.8-0.1-1,0.3c-0.8,1.4-1.7,2.8-2.5,4.2
		c-0.2,0.3-0.1,0.8,0.3,1S111.8,99,112,98.6L112,98.6z"/>
	<path d="M113,99.9c-0.1,0.9,0.4,1.7,0.9,2.4c0.2,0.3,0.5,0.6,0.8,0.8c0.3,0.3,0.7,0.6,1.1,0.8c0.3,0.2,0.8,0.1,1-0.3
		c0.2-0.3,0.1-0.8-0.3-1c-0.1-0.1-0.2-0.1-0.2-0.2c-0.1-0.1,0,0,0,0c0,0-0.1-0.1-0.1-0.1c-0.1-0.1-0.3-0.2-0.4-0.4
		c-0.2-0.2-0.5-0.5-0.7-0.8c0,0-0.1-0.1-0.1-0.1c-0.1-0.1,0.1,0.1,0,0c-0.1-0.1-0.1-0.1-0.1-0.2s-0.1-0.1-0.1-0.2
		c0-0.1-0.1-0.2-0.1-0.2c0,0,0.1,0.1,0,0c0,0,0-0.1,0-0.1c0-0.1,0-0.2-0.1-0.2c0,0,0-0.2,0-0.1s0,0,0-0.1c0-0.1,0-0.2,0-0.3
		c0-0.4-0.4-0.8-0.8-0.8C113.4,99.1,113.1,99.5,113,99.9L113,99.9L113,99.9z"/>
	<path d="M112.4,107.7c0.8-0.8,1.4-1.6,2-2.5c0.2-0.3,0.1-0.8-0.3-1s-0.8-0.1-1,0.3c-0.2,0.4-0.5,0.8-0.8,1.2l0.1-0.2
		c-0.3,0.4-0.7,0.8-1,1.2c-0.3,0.3-0.3,0.8,0,1.1S112.1,107.9,112.4,107.7L112.4,107.7L112.4,107.7z"/>
	<path d="M112.9,110.1c0.2,0.5,0.6,0.9,1.1,1.2s1,0.5,1.5,0.5c0.2,0,0.4-0.1,0.5-0.2c0.1-0.1,0.2-0.3,0.2-0.5s-0.1-0.4-0.2-0.5
		l-0.2-0.1c-0.1-0.1-0.2-0.1-0.4-0.1c0,0,0,0-0.1,0l0.2,0c-0.2,0-0.4-0.1-0.6-0.2l0.2,0.1c-0.2-0.1-0.4-0.2-0.6-0.3l0.2,0.1
		c-0.2-0.1-0.3-0.3-0.4-0.4l0.1,0.2c-0.1-0.1-0.2-0.3-0.3-0.4c-0.1-0.2-0.3-0.3-0.4-0.3c-0.2-0.1-0.4,0-0.6,0.1
		C112.8,109.3,112.7,109.8,112.9,110.1L112.9,110.1L112.9,110.1z"/>
	<path d="M116.7,83.3c0.7-1.5,1.2-3,1.4-4.7c0.1-0.4-0.1-0.8-0.5-0.9c-0.3-0.1-0.9,0.1-0.9,0.5c-0.1,0.8-0.3,1.5-0.5,2.2
		c-0.1,0.4-0.2,0.7-0.4,1.1c-0.1,0.2-0.1,0.4-0.2,0.5c-0.1,0.1,0,0-0.1,0.1c0,0.1-0.1,0.2-0.1,0.3c-0.2,0.4-0.1,0.8,0.3,1
		C116,83.7,116.5,83.7,116.7,83.3L116.7,83.3L116.7,83.3z"/>
	<path d="M117,82.5c0.3,1.7,1.6,3.1,3.2,3.7c0.4,0.1,0.8-0.2,0.9-0.5c0.1-0.4-0.1-0.8-0.5-0.9c0,0-0.1,0-0.1-0.1c-0.1,0-0.1-0.1,0,0
		c-0.1-0.1-0.2-0.1-0.2-0.1c-0.2-0.1-0.3-0.2-0.4-0.3c0,0-0.1,0-0.1-0.1c-0.1,0,0.1,0.1,0,0c-0.1-0.1-0.1-0.1-0.2-0.2
		c-0.1-0.1-0.2-0.2-0.4-0.4c0,0,0-0.1-0.1-0.1c0.1,0.1,0.1,0.1,0.1,0.1c0,0,0,0,0-0.1c-0.1-0.1-0.1-0.1-0.1-0.2
		c-0.1-0.2-0.2-0.3-0.2-0.5l0,0c0-0.1,0-0.1,0,0.1c0,0,0-0.1,0-0.1c0-0.1-0.1-0.2-0.1-0.2c-0.1-0.2-0.1-0.3-0.1-0.5
		s-0.2-0.4-0.3-0.4c-0.2-0.1-0.4-0.1-0.6-0.1C117.1,81.7,116.9,82.1,117,82.5L117,82.5L117,82.5z"/>
	<path d="M116.1,91.5c1.1-0.6,2.1-1.6,2.7-2.8c0.2-0.3,0.1-0.8-0.3-1c-0.3-0.2-0.8-0.1-1,0.3c-0.1,0.2-0.3,0.5-0.4,0.7
		c0,0.1-0.2,0.2,0,0.1c0,0.1-0.1,0.1-0.1,0.2c-0.1,0.1-0.2,0.2-0.3,0.3c-0.2,0.2-0.4,0.4-0.6,0.6c-0.1,0.1,0.2-0.1,0,0
		c0,0-0.1,0-0.1,0.1c-0.1,0-0.1,0.1-0.2,0.1c-0.1,0.1-0.2,0.2-0.4,0.2c-0.3,0.2-0.5,0.7-0.3,1S115.7,91.7,116.1,91.5L116.1,91.5
		L116.1,91.5z"/>
	<path d="M117.8,95.5c0.1,0.2,0.2,0.3,0.3,0.5c0.1,0.2,0.3,0.4,0.5,0.5s0.4,0.3,0.6,0.4s0.4,0.2,0.6,0.3c0.2,0.1,0.4,0,0.6-0.1
		s0.3-0.3,0.3-0.4c0-0.2,0-0.4-0.1-0.6l-0.1-0.2c-0.1-0.1-0.2-0.2-0.3-0.2c0,0,0,0-0.1,0l0.2,0.1c-0.2-0.1-0.4-0.2-0.6-0.3l0.2,0.1
		c-0.2-0.1-0.3-0.3-0.5-0.5l0.1,0.2c-0.1-0.2-0.2-0.3-0.3-0.5c-0.1-0.2-0.3-0.3-0.4-0.3c-0.2-0.1-0.4,0-0.6,0.1s-0.3,0.3-0.3,0.4
		l0,0.2C117.7,95.3,117.7,95.4,117.8,95.5L117.8,95.5L117.8,95.5z"/>
	<path d="M117.5,101.4c0.9-1.1,2.2-1.8,3.1-2.8c0.5-0.6,0.8-1.3,1.1-2c0.3-0.8,0.6-1.6,0.9-2.5c0.1-0.4-0.2-0.8-0.5-0.9
		c-0.4-0.1-0.8,0.1-0.9,0.5c-0.3,0.8-0.6,1.5-0.8,2.3c-0.2,0.6-0.5,1.2-1,1.7c-0.9,1-2.1,1.7-3,2.7c-0.3,0.3-0.3,0.8,0,1.1
		C116.7,101.7,117.2,101.7,117.5,101.4C117.5,101.4,117.5,101.4,117.5,101.4z"/>
	<path d="M117.6,103.5c0.8,1.7,1.8,3.6,3.8,4.2c0.4,0.1,0.8-0.1,0.9-0.5s-0.1-0.8-0.5-0.9c-0.1,0-0.2-0.1-0.3-0.1
		c-0.2-0.1,0.1,0,0,0c0,0-0.1,0-0.1-0.1c-0.2-0.1-0.3-0.2-0.5-0.3c-0.1-0.1,0.1,0.1,0,0c0,0-0.1-0.1-0.1-0.1
		c-0.1-0.1-0.2-0.1-0.2-0.2c-0.1-0.1-0.3-0.3-0.4-0.4c-0.1-0.1,0-0.1,0,0c0-0.1-0.1-0.1-0.1-0.2c-0.1-0.1-0.1-0.2-0.2-0.3
		c-0.1-0.2-0.2-0.4-0.3-0.6c-0.2-0.4-0.4-0.8-0.6-1.2c-0.2-0.4-0.7-0.5-1-0.3C117.5,102.8,117.4,103.2,117.6,103.5L117.6,103.5
		L117.6,103.5z"/>
	<path d="M120.3,106.6c1.2-0.8,2.1-1.9,2.8-3.2c0.2-0.3,0.1-0.8-0.3-1c-0.3-0.2-0.8-0.1-1,0.3c-0.2,0.3-0.3,0.6-0.5,0.8
		c-0.1,0.1-0.2,0.2-0.3,0.4c-0.1,0.1,0.1-0.1,0,0c0,0-0.1,0.1-0.1,0.1c-0.1,0.1-0.1,0.1-0.2,0.2c-0.2,0.2-0.4,0.5-0.6,0.7
		c-0.1,0.1-0.2,0.2-0.4,0.3c-0.1,0.1-0.1,0.1-0.2,0.1c-0.1,0.1,0.1-0.1,0,0c0,0-0.1,0.1-0.1,0.1c-0.2,0.1-0.3,0.2-0.3,0.4
		c-0.1,0.2,0,0.4,0.1,0.6C119.5,106.7,120,106.9,120.3,106.6L120.3,106.6L120.3,106.6z"/>
	<path d="M121.7,97.4c-0.6,1.5,0.8,2.9,1.9,3.7c0.6,0.4,1.2,0.8,1.9,1.1c0.3,0.1,0.7,0.2,1,0.2c0.5,0.1,0.9-0.1,1.2-0.5
		c0.2-0.3,0.1-0.8-0.3-1c-0.4-0.2-0.8-0.1-1,0.3c0.1-0.1,0.2-0.2,0.3-0.2c0.1,0,0.1,0,0,0c-0.1,0-0.1,0,0,0c-0.1,0-0.3-0.1-0.4-0.1
		c-0.1,0-0.2-0.1-0.4-0.1c-0.1,0-0.1,0-0.2-0.1c-0.2-0.1,0.1,0.1-0.1,0c-0.2-0.1-0.4-0.2-0.7-0.4c-0.1-0.1-0.2-0.1-0.3-0.2
		c-0.1,0-0.1-0.1-0.2-0.1c0.1,0.1,0,0-0.1-0.1c-0.2-0.2-0.4-0.3-0.6-0.5c-0.1-0.1-0.2-0.2-0.3-0.3c0-0.1-0.1-0.1-0.1-0.2
		c-0.1-0.1,0.1,0.1-0.1-0.1c-0.1-0.1-0.1-0.2-0.2-0.3c0,0-0.1-0.2-0.1-0.1s0-0.1,0-0.1c0-0.1,0-0.1-0.1-0.2c0,0.1,0,0,0-0.1
		c0,0,0-0.2,0-0.1c0-0.1,0-0.1,0.1-0.2c0.1-0.4-0.2-0.8-0.5-0.9C122.2,96.8,121.8,97,121.7,97.4L121.7,97.4L121.7,97.4z"/>
	<path d="M121.3,88.8c0.8,1.4,1.9,2.5,3.2,3.3c0.3,0.2,0.8,0.1,1-0.3s0.1-0.8-0.3-1c-0.2-0.1-0.3-0.2-0.4-0.3
		c-0.1-0.1-0.2-0.1-0.2-0.2c-0.1-0.1,0.1,0.1,0,0c0,0-0.1-0.1-0.1-0.1c-0.3-0.2-0.5-0.5-0.8-0.7c-0.1-0.1-0.2-0.2-0.3-0.4
		c-0.1-0.1-0.1-0.1-0.2-0.2c0,0-0.1-0.1-0.1-0.1c0.1,0.2,0,0.1,0,0c-0.2-0.3-0.4-0.6-0.6-0.9c-0.2-0.3-0.7-0.5-1-0.3
		S121.1,88.4,121.3,88.8L121.3,88.8L121.3,88.8z"/>
	<path d="M119.4,89.2c1.1-1.2,2.1-2.7,2.8-4.2c0.2-0.4,0.1-0.8-0.3-1c-0.3-0.2-0.8-0.1-1,0.3c-0.3,0.7-0.7,1.4-1.2,2.1
		c-0.2,0.3-0.4,0.7-0.7,1c0.1-0.1,0,0,0,0s-0.1,0.1-0.1,0.1c-0.1,0.1-0.1,0.2-0.2,0.2c-0.1,0.2-0.3,0.3-0.4,0.5
		c-0.3,0.3-0.3,0.8,0,1.1C118.6,89.5,119.1,89.5,119.4,89.2L119.4,89.2L119.4,89.2z"/>
	<path d="M118.5,78.5c1.8-0.6,3.2-2.1,3.8-3.9c0.1-0.4-0.1-0.8-0.5-0.9c-0.4-0.1-0.8,0.1-0.9,0.5c0,0.1-0.1,0.2-0.1,0.3
		c-0.1,0.2,0.1-0.2,0,0c0,0,0,0.1-0.1,0.1c-0.1,0.2-0.2,0.3-0.3,0.5c-0.1,0.1-0.1,0.2-0.2,0.2c0,0-0.1,0.1-0.1,0.1
		c-0.1,0.1,0.1-0.1,0,0c-0.1,0.2-0.2,0.3-0.4,0.4s-0.3,0.3-0.4,0.4c0,0-0.2,0.1,0,0c0,0-0.1,0.1-0.1,0.1c-0.1,0.1-0.2,0.1-0.2,0.2
		c-0.2,0.1-0.3,0.2-0.5,0.3c0,0-0.1,0-0.1,0.1c-0.1,0.1,0.1,0,0,0c-0.1,0-0.2,0.1-0.3,0.1c-0.4,0.1-0.7,0.5-0.5,0.9
		C117.7,78.3,118.1,78.6,118.5,78.5L118.5,78.5L118.5,78.5z"/>
	<path d="M121.2,78.8l2.7,3.8c0.2,0.3,0.7,0.5,1,0.3c0.3-0.2,0.5-0.7,0.3-1l-2.7-3.8c-0.2-0.3-0.7-0.5-1-0.3
		C121.2,78,121,78.5,121.2,78.8L121.2,78.8z"/>
	<path d="M118.3,78.6c1.6-1.1,2.9-2.5,4-4.1c0.2-0.3,0.1-0.8-0.3-1c-0.4-0.2-0.8-0.1-1,0.3c-0.1,0.2-0.2,0.4-0.4,0.5
		c0,0-0.1,0.1-0.1,0.1c0,0-0.1,0.1,0,0c-0.1,0.1-0.1,0.2-0.2,0.3c-0.3,0.3-0.6,0.7-0.8,1s-0.6,0.6-0.9,0.9c-0.2,0.1-0.3,0.3-0.5,0.4
		c0,0-0.1,0.1-0.1,0.1c-0.2,0.1,0.1-0.1,0,0s-0.2,0.2-0.3,0.2c-0.3,0.2-0.5,0.7-0.3,1C117.5,78.6,118,78.8,118.3,78.6L118.3,78.6
		L118.3,78.6z"/>
	<path d="M119.1,68.3c1.4-2.1,2.8-4.3,3.1-6.8c0.1-0.4-0.1-0.8-0.5-0.9c-0.4-0.1-0.9,0.1-0.9,0.5c-0.4,2.4-1.7,4.4-3,6.4
		C117.3,68.4,118.6,69.1,119.1,68.3L119.1,68.3L119.1,68.3z"/>
	<path d="M121.3,67.3c0.5,1.8,1.2,3.8,2.9,4.7c0.3,0.2,0.8,0.1,1-0.3s0.1-0.8-0.3-1c-0.1,0-0.2-0.1-0.2-0.1c-0.1,0-0.1-0.1-0.1-0.1
		c-0.1-0.1,0.1,0.1,0,0c-0.2-0.1-0.3-0.2-0.4-0.4c-0.1-0.1-0.1-0.1-0.2-0.2c0-0.1-0.1-0.1,0,0c0-0.1-0.1-0.1-0.1-0.1
		c-0.1-0.2-0.2-0.3-0.3-0.5s-0.2-0.4-0.3-0.5l0-0.1c0,0,0,0.1,0,0s0-0.1-0.1-0.1c0-0.1-0.1-0.2-0.1-0.3c-0.2-0.4-0.3-0.9-0.4-1.3
		c-0.1-0.4-0.5-0.7-0.9-0.5S121.2,66.9,121.3,67.3L121.3,67.3L121.3,67.3z"/>
	<path d="M124.2,97.3c0-0.1,0.1-0.2,0.1-0.2c0,0,0-0.1,0-0.1c0,0.1-0.1,0.1,0,0.1c0,0,0,0,0-0.1c0.1-0.2,0.1-0.3,0.2-0.4
		s0.2-0.3,0.3-0.4c0,0,0.1-0.1,0.1-0.1c0.1-0.1-0.1,0.1,0,0c0.1-0.1,0.1-0.1,0.2-0.2c0.1-0.1,0.2-0.2,0.3-0.3
		c0.1-0.1,0.1-0.1,0.2-0.2c0.1,0,0.1-0.1,0.2-0.2c-0.1,0.1-0.1,0.1-0.1,0.1c0,0,0,0,0.1,0c0,0,0.1,0,0.1-0.1
		c0.1-0.1,0.1-0.1,0.2-0.1c0.1-0.1,0.3-0.2,0.4-0.2c0.3-0.2,0.5-0.7,0.3-1c-0.2-0.4-0.7-0.5-1-0.3c-1.4,0.7-2.4,2-2.9,3.4
		c-0.1,0.4,0.1,0.8,0.5,0.9C123.7,97.9,124.1,97.7,124.2,97.3L124.2,97.3L124.2,97.3z"/>
	<path d="M125.4,85.8c0.4,0.7,0.8,1.4,1.3,1.9c0.6,0.6,1.3,1.1,2.1,1.2c0.4,0.1,0.8-0.1,0.9-0.5c0.1-0.4-0.1-0.8-0.5-0.9
		c-0.2,0-0.3-0.1-0.5-0.2s0.1,0.1,0,0c0,0-0.1,0-0.1-0.1c-0.1,0-0.1-0.1-0.2-0.1s-0.1-0.1-0.2-0.1c0,0-0.1,0-0.1-0.1
		c0.1,0.1,0.1,0.1,0,0c-0.1-0.1-0.3-0.2-0.4-0.4c-0.1-0.1-0.1-0.1-0.2-0.2c0,0-0.1-0.1-0.1-0.1c-0.1-0.1,0.1,0.1,0,0
		c-0.1-0.1-0.2-0.3-0.3-0.4c-0.2-0.3-0.4-0.6-0.5-0.9c-0.2-0.3-0.7-0.5-1-0.3S125.2,85.4,125.4,85.8L125.4,85.8L125.4,85.8z"/>
	<path d="M124,78.3c0.9-0.8,1.6-1.7,2.1-2.8c0.2-0.3,0.1-0.8-0.3-1c-0.3-0.2-0.8-0.1-1,0.3c-0.2,0.5-0.5,0.9-0.9,1.4
		c-0.1,0.1,0.1-0.1,0-0.1c0,0-0.1,0.1-0.1,0.1c0,0.1-0.1,0.1-0.1,0.2c-0.1,0.1-0.2,0.2-0.3,0.3c-0.2,0.2-0.4,0.4-0.6,0.6
		c-0.3,0.3-0.3,0.8,0,1.1C123.2,78.6,123.7,78.6,124,78.3L124,78.3L124,78.3z"/>
	<path d="M125.1,68.8c0.7,1.1,1.6,2.1,2.5,3.1c0.3,0.3,0.8,0.3,1.1,0s0.3-0.8,0-1.1c-0.4-0.4-0.9-0.9-1.3-1.4
		c-0.1-0.1-0.2-0.2-0.3-0.3c-0.1-0.1,0.1,0.1,0,0c0,0,0-0.1-0.1-0.1c-0.1-0.1-0.1-0.1-0.1-0.2c-0.2-0.3-0.4-0.5-0.5-0.8
		c-0.2-0.3-0.7-0.5-1-0.3C125,68,124.8,68.5,125.1,68.8L125.1,68.8L125.1,68.8z"/>
	<path d="M124.3,55c0.2,2.3,1.3,4.6,3.2,6.1c0.3,0.2,0.8,0.3,1.1,0c0.3-0.3,0.3-0.8,0-1.1c-0.8-0.7-1.4-1.4-1.9-2.3
		c-0.4-0.8-0.7-1.8-0.8-2.7c0-0.4-0.3-0.8-0.8-0.8C124.7,54.2,124.3,54.5,124.3,55C124.3,55,124.3,55,124.3,55z"/>
	<path d="M127.7,68.4c0.8-0.7,1.3-1.6,1.7-2.5c0.5-1.1,1-2.1,1.5-3.2c0.2-0.4,0.1-0.8-0.3-1c-0.3-0.2-0.9-0.1-1,0.3
		c-0.5,1-0.9,2-1.4,3.1c-0.4,0.9-0.8,1.7-1.5,2.3c-0.3,0.3-0.3,0.8,0,1.1C126.9,68.7,127.3,68.6,127.7,68.4L127.7,68.4L127.7,68.4z"
		/>
	<path d="M129.9,57.5L129.9,57.5C130,57.6,130,57.5,129.9,57.5c0.2,0.1,0-0.1,0.1,0.1c0.1,0.1,0.1,0.2,0.2,0.3
		c0.1,0.1-0.1-0.2,0,0.1c0,0,0,0.1,0.1,0.2c0.1,0.1,0.1,0.3,0.1,0.4c0.2,0.5,0.4,1,0.6,1.5c0.4,1,0.9,2,1.8,2.8
		c0.3,0.3,0.8,0.3,1.1,0c0.3-0.3,0.3-0.8,0-1.1c-0.4-0.4-0.7-0.7-0.9-1.1s-0.5-0.9-0.6-1.4c-0.2-0.5-0.4-1-0.6-1.5
		c-0.2-0.6-0.5-1.2-1.1-1.5c-0.4-0.2-0.8-0.1-1,0.3S129.6,57.3,129.9,57.5L129.9,57.5L129.9,57.5z"/>
	<path d="M129.8,75.9c0.5,0.8,1,1.6,1.5,2.3s1.2,1.4,2.1,1.4c0.4,0,0.8-0.4,0.8-0.8c0-0.4-0.3-0.7-0.8-0.8c0,0-0.2,0,0,0
		c0.1,0,0,0,0,0c0,0-0.1,0-0.1,0c-0.1,0,0.2,0.1,0,0c-0.1,0-0.1-0.1-0.2-0.1c-0.1-0.1,0,0,0,0c0,0-0.1-0.1-0.1-0.1
		c-0.1-0.1-0.2-0.2-0.3-0.3c-0.1-0.1-0.1,0,0,0c0,0-0.1-0.1-0.1-0.1c-0.1-0.1-0.1-0.1-0.1-0.2c-0.5-0.7-0.9-1.4-1.4-2.1
		c-0.2-0.3-0.7-0.5-1-0.3C129.8,75.1,129.6,75.5,129.8,75.9L129.8,75.9L129.8,75.9z"/>
	<path d="M130.2,91.6c1.1,1.4,2.5,2.5,4.2,3c0.4,0.1,0.8-0.1,0.9-0.5s-0.1-0.8-0.5-0.9c-0.2-0.1-0.4-0.1-0.6-0.2
		c-0.1,0-0.1,0-0.1-0.1c0.1,0,0.1,0,0,0s-0.2-0.1-0.2-0.1c-0.4-0.2-0.7-0.4-1-0.6c-0.1-0.1-0.1-0.1-0.2-0.2c-0.1-0.1,0,0,0,0
		c0,0-0.1-0.1-0.1-0.1c-0.1-0.1-0.3-0.2-0.4-0.4c-0.1-0.1-0.3-0.3-0.4-0.4c-0.1-0.1-0.1-0.2-0.2-0.2c0,0-0.1-0.1-0.1-0.1
		c0.1,0.1,0,0,0,0c-0.2-0.3-0.7-0.5-1-0.3C130.2,90.8,130,91.3,130.2,91.6L130.2,91.6L130.2,91.6z"/>
	<path d="M128.9,99.4l2.4-2.8c0.1-0.2,0.2-0.3,0.2-0.5c0-0.2-0.1-0.4-0.2-0.5c-0.3-0.3-0.8-0.3-1.1,0l-2.4,2.8
		c-0.1,0.2-0.2,0.3-0.2,0.5c0,0.2,0.1,0.4,0.2,0.5C128.1,99.7,128.6,99.8,128.9,99.4L128.9,99.4L128.9,99.4z"/>
	<path d="M128.6,85.2c0.6-0.5,1-1.1,1.3-1.8c0.2-0.3,0.3-0.6,0.5-0.9c0.1-0.1,0.2-0.3,0.3-0.4s-0.1,0.1,0,0c0,0,0.1-0.1,0.1-0.1
		c0.1-0.1,0.1-0.1,0.2-0.2c0.3-0.3,0.3-0.8,0-1.1s-0.8-0.3-1.1,0c-0.5,0.5-0.9,1.2-1.3,1.9c-0.2,0.3-0.3,0.6-0.5,0.9
		c0,0.1-0.1,0.2-0.2,0.2c0.1-0.1,0-0.1,0,0c0,0-0.1,0.1-0.1,0.1c-0.1,0.1-0.2,0.3-0.4,0.4c-0.3,0.2-0.3,0.8,0,1.1
		C127.8,85.5,128.2,85.5,128.6,85.2L128.6,85.2L128.6,85.2z"/>
	<path d="M142.4,78.3C142.4,78.4,142.4,78.2,142.4,78.3c0.1-0.1,0.1-0.2,0.1-0.2c0.1-0.1,0.1-0.2,0.2-0.3c0.1-0.2,0.2-0.4,0.3-0.5
		c0.3-0.4,0.7-0.7,1.1-1c0.4-0.3,0.8-0.7,1.1-1.1c0.3-0.4,0.5-1,0.7-1.5c0.1-0.4-0.1-0.8-0.5-0.9c-0.4-0.1-0.8,0.1-0.9,0.5
		c-0.1,0.4-0.3,0.9-0.6,1.2c-0.1,0.1-0.3,0.3-0.5,0.5c-0.2,0.2-0.4,0.3-0.6,0.5c-0.8,0.7-1.4,1.5-1.8,2.4c-0.1,0.4,0.2,0.8,0.5,0.9
		C141.9,78.9,142.2,78.7,142.4,78.3L142.4,78.3L142.4,78.3z"/>
	<path d="M143.9,68.9c0.5,1.7,1.5,3.2,2.9,4.3c0.3,0.2,0.8,0.3,1.1,0c0.2-0.3,0.3-0.8,0-1.1s-0.6-0.5-0.9-0.8
		c-0.1-0.1-0.2-0.3-0.4-0.4c-0.1-0.1,0.1,0.1,0,0c0,0-0.1-0.1-0.1-0.1c-0.1-0.1-0.1-0.2-0.2-0.3c-0.2-0.3-0.4-0.7-0.6-1
		c0-0.1-0.1-0.1-0.1-0.2c0,0-0.1-0.2,0,0c0-0.1-0.1-0.2-0.1-0.3c-0.1-0.2-0.1-0.4-0.2-0.6c-0.1-0.4-0.5-0.7-0.9-0.5
		S143.8,68.5,143.9,68.9L143.9,68.9L143.9,68.9z"/>
	<path d="M144.6,79.3c0.4,0.7,0.9,1.5,1.5,2.1c0.3,0.3,0.7,0.6,1.2,0.8s0.9,0.2,1.4,0.1c0.4-0.1,0.6-0.6,0.5-0.9
		c-0.1-0.4-0.5-0.6-0.9-0.5c0.1,0,0.1,0,0,0c0,0-0.1,0-0.1,0c0,0-0.1,0-0.1,0c-0.2,0,0.1,0,0,0c-0.1,0-0.1,0-0.2-0.1
		c0,0-0.1,0-0.1,0c-0.1,0,0.1,0.1,0,0c-0.1,0-0.1-0.1-0.2-0.1c0,0-0.1-0.1-0.1-0.1c0,0-0.1-0.1-0.1,0s0,0-0.1,0c0,0-0.1-0.1-0.1-0.1
		c-0.1-0.1-0.1-0.1-0.2-0.2c-0.1-0.1-0.1-0.1-0.2-0.2c0,0,0,0,0,0c0,0,0,0,0,0c0,0-0.1-0.1-0.1-0.1c-0.1-0.1-0.2-0.3-0.3-0.4
		c-0.2-0.3-0.4-0.7-0.6-1s-0.7-0.5-1-0.3S144.4,79,144.6,79.3L144.6,79.3L144.6,79.3z"/>
	<path d="M142.6,88.2c0.6-0.5,1.2-0.9,1.8-1.4c0.5-0.4,1-0.9,1.2-1.6c0.1-0.4-0.1-0.8-0.5-0.9s-0.8,0.1-0.9,0.5c0,0,0,0.1,0,0.1
		c0,0.1,0.1-0.2,0,0c0,0.1-0.1,0.1-0.1,0.2c0,0,0,0.1-0.1,0.1c-0.1,0.1,0.1-0.1,0,0c0,0.1-0.1,0.1-0.1,0.2c-0.2,0.2-0.4,0.4-0.6,0.6
		c-0.6,0.4-1.1,0.9-1.7,1.3c-0.1,0.1-0.2,0.4-0.2,0.5c0,0.2,0.1,0.4,0.2,0.5s0.3,0.2,0.5,0.2C142.3,88.4,142.4,88.4,142.6,88.2
		L142.6,88.2L142.6,88.2z"/>
	<path d="M144.5,91c0.6,1.4,2.4,2.1,3.8,1.6c0.4-0.1,0.6-0.5,0.5-0.9c-0.1-0.4-0.5-0.7-0.9-0.5c-0.1,0-0.1,0-0.2,0.1
		c0,0-0.1,0-0.1,0c-0.1,0,0.2,0,0.1,0c-0.1,0-0.3,0-0.4,0c0,0-0.1,0-0.1,0c-0.1,0,0.2,0,0,0c-0.1,0-0.1,0-0.2,0s-0.1,0-0.2-0.1
		c0,0-0.1,0-0.1,0c-0.1,0,0.1,0.1,0.1,0c-0.1-0.1-0.2-0.1-0.4-0.2c0,0-0.1,0-0.1-0.1c-0.1,0-0.1-0.1,0,0c-0.1-0.1-0.1-0.1-0.1-0.1
		s-0.1-0.1-0.1-0.1c0,0,0-0.1-0.1-0.1c-0.1-0.1,0.1,0.2,0,0c-0.1-0.1-0.2-0.2-0.2-0.4c-0.2-0.4-0.7-0.5-1-0.3
		C144.4,90.2,144.3,90.6,144.5,91L144.5,91L144.5,91z"/>
	<path d="M142.1,97.5c1.3-0.3,2.6-1,3.5-2c0.3-0.3,0.3-0.8,0-1.1c-0.3-0.3-0.8-0.3-1.1,0c-0.2,0.2-0.4,0.4-0.7,0.6c0,0-0.1,0.1,0,0
		c0.1-0.1,0,0-0.1,0c-0.1,0-0.1,0.1-0.2,0.1c-0.1,0.1-0.3,0.2-0.4,0.2c-0.1,0.1-0.3,0.1-0.4,0.2c0,0-0.1,0-0.1,0c-0.1,0-0.1,0,0,0
		c-0.1,0-0.1,0.1-0.2,0.1c-0.3,0.1-0.6,0.2-0.9,0.2c-0.4,0.1-0.6,0.6-0.5,0.9C141.3,97.4,141.6,97.6,142.1,97.5L142.1,97.5
		L142.1,97.5z"/>
	<path d="M148.5,90c1-1.1,1.8-2.4,2.2-3.8c0.1-0.4-0.1-0.8-0.5-0.9s-0.8,0.1-0.9,0.5c0,0.2-0.1,0.3-0.1,0.5
		c-0.1,0.1-0.1,0.3-0.2,0.5c0,0,0.1-0.1,0,0c0,0,0,0.1-0.1,0.1c0,0.1-0.1,0.2-0.1,0.2c-0.1,0.2-0.1,0.3-0.2,0.4
		c-0.2,0.3-0.3,0.5-0.5,0.8c0,0-0.1,0.2,0,0c0,0-0.1,0.1-0.1,0.1c-0.1,0.1-0.1,0.1-0.1,0.2c-0.1,0.1-0.2,0.3-0.4,0.4
		c-0.3,0.3-0.3,0.8,0,1.1S148.2,90.3,148.5,90L148.5,90L148.5,90z"/>
	<path d="M149.2,79.8c-0.2,1.8,0.7,3.7,2.1,4.8c0.3,0.2,0.8,0.3,1.1,0c0.2-0.3,0.3-0.8,0-1.1c-0.3-0.2-0.6-0.5-0.8-0.8
		c0,0.1,0,0.1,0,0c0,0-0.1-0.1-0.1-0.1c-0.1-0.1-0.1-0.2-0.2-0.2c-0.1-0.2-0.2-0.3-0.3-0.5c0,0.1,0,0.1,0,0c0,0,0-0.1-0.1-0.1
		c0-0.1-0.1-0.2-0.1-0.3c-0.1-0.2-0.1-0.4-0.1-0.6c0-0.1,0-0.1,0-0.2c0,0.1,0,0.1,0,0c0-0.1,0-0.2,0-0.3c0-0.2,0-0.4,0-0.6
		c0-0.4-0.4-0.8-0.8-0.8C149.5,79,149.2,79.3,149.2,79.8L149.2,79.8L149.2,79.8z"/>
	<path d="M149.6,88.8C149.5,88.7,149.6,88.8,149.6,88.8c0.1,0.1,0.1,0.1,0.1,0.1c0,0,0.1,0.1,0,0c0,0,0.1,0.1,0.1,0.1
		c0.1,0.2,0.2,0.3,0.3,0.5c0.2,0.4,0.4,0.7,0.6,1c0.5,0.7,1.2,1.3,2,1.8c0.3,0.2,0.8,0.1,1-0.3s0.1-0.8-0.3-1
		c-0.2-0.1-0.3-0.2-0.5-0.3c-0.1-0.1-0.1,0,0,0c0,0-0.1-0.1-0.1-0.1c-0.1-0.1-0.1-0.1-0.2-0.2c-0.1-0.1-0.3-0.3-0.4-0.4
		c-0.1-0.1-0.1-0.2-0.2-0.2s0.1,0.1,0,0c0-0.1-0.1-0.1-0.1-0.1c-0.2-0.3-0.4-0.7-0.6-1c-0.2-0.4-0.5-0.8-0.9-1.1
		c-0.3-0.2-0.9-0.1-1,0.3C149.2,88.2,149.3,88.6,149.6,88.8L149.6,88.8L149.6,88.8z"/>
	<path d="M148.3,96.1c0.6-0.2,1.2-0.6,1.6-1c0.4-0.4,0.8-0.9,1.1-1.4c0.1-0.2,0.1-0.4,0.1-0.6c-0.1-0.2-0.2-0.4-0.3-0.4
		c-0.3-0.2-0.8-0.1-1,0.3c-0.1,0.3-0.3,0.5-0.5,0.7l0.1-0.2c-0.2,0.3-0.5,0.6-0.8,0.8l0.1-0.1c-0.3,0.2-0.6,0.4-1,0.6l0.2-0.1
		c0,0,0,0-0.1,0c-0.2,0.1-0.3,0.2-0.4,0.3c-0.1,0.2-0.1,0.4-0.1,0.6s0.2,0.4,0.3,0.4S148.1,96.2,148.3,96.1L148.3,96.1L148.3,96.1z"
		/>
	<path d="M56.6,73.3c1.1-0.2,2.1-0.5,3.1-1.1c1-0.6,1.7-1.5,2.3-2.5l-1.4-0.4c-0.2,2.7,1.5,5.2,4,6.1c0.4,0.2,0.8-0.2,0.9-0.5
		c0.1-0.4-0.1-0.8-0.5-0.9c-1.8-0.7-3-2.7-2.8-4.7c0.1-0.8-1-0.9-1.4-0.4c-0.5,0.8-1.1,1.5-1.9,2s-1.7,0.7-2.6,0.9
		C55.3,72.1,55.7,73.6,56.6,73.3C56.6,73.3,56.6,73.3,56.6,73.3z"/>
	<path d="M67.5,82c1.4,0.2,2.8,0,3.9-0.8c1.1-0.8,1.8-1.8,2.6-2.8l-1.4-0.2c0.1,0.4-0.1,0.7-0.2,1.1c-0.1,0.4-0.1,0.8,0,1.2
		c0.2,0.7,0.8,1.4,1.3,1.9c1,1.1,2.7,1.9,4,0.8c0.7-0.6-0.3-1.7-1.1-1.1c-0.3,0.3-0.9,0-1.2-0.2c-0.4-0.3-0.7-0.7-1.1-1.1
		c-0.3-0.4-0.6-0.8-0.5-1.3c0.1-0.6,0.3-1.1,0.2-1.7c-0.2-0.7-1-0.7-1.4-0.2c-1.2,1.6-2.6,3.4-4.9,3c-0.4-0.1-0.8,0.1-0.9,0.5
		C66.9,81.4,67.1,81.9,67.5,82L67.5,82L67.5,82z"/>
	<path d="M67.1,64.2c2.4,0.1,4.8-0.9,6.5-2.6l-1.3-0.5c-0.1,1.6,0.5,3.1,1.6,4.3c0.9,0.9,3,2.3,3.9,0.8c0.5-0.8-0.8-1.6-1.3-0.8
		c0.1-0.2,0.2,0-0.1-0.1c-0.1,0-0.1,0-0.2-0.1c-0.2-0.1-0.4-0.2-0.7-0.4c-0.4-0.3-0.7-0.6-1-1c-0.6-0.8-0.9-1.8-0.8-2.8
		c0.1-0.7-0.8-1-1.3-0.5c-1.4,1.4-3.4,2.2-5.4,2.1C66.1,62.7,66.2,64.2,67.1,64.2L67.1,64.2L67.1,64.2z"/>
</g>
</svg>
