<?xml version="1.0" encoding="UTF-8"?>
<svg id="billy-can" xmlns="http://www.w3.org/2000/svg" viewBox="0 0 261.87 307.17">
  <g id="billy-can-2" data-name="billy-can">
    <path d="m24.09,75.27c-3.2-.4-6.39,1.1-8.52,3.45-2.33,2.56-3.33,5.95-3.64,9.34-.34,3.68.09,7.48,1.01,11.05.85,3.33,2.14,7.06,4.26,9.81,2.3,2.98,6.17,3.31,9.66,3.34,1.93.02,1.93-2.98,0-3-1.64-.02-3.3-.05-4.87-.54-1.73-.55-2.62-1.77-3.44-3.32-1.81-3.42-3.01-7.21-3.48-11.06-.44-3.61-.49-7.62,1.03-11,1.41-3.15,4.43-5.52,7.99-5.07,1.91.24,1.89-2.76,0-3h0Z"/>
    <path d="m21.92,72.46c2.39,22.81,4.71,45.63,6.96,68.46,2.24,22.74,4.4,45.5,6.48,68.25,1.18,12.83,2.33,25.66,3.46,38.49.17,1.91,3.17,1.93,3,0-2.01-22.85-4.1-45.69-6.26-68.52-2.15-22.75-4.38-45.5-6.68-68.24-1.3-12.82-2.62-25.63-3.96-38.44-.2-1.9-3.2-1.92-3,0h0Z"/>
    <path d="m38.77,248.39c.11.24-.09-.25.02.04.04.12.09.25.13.37.11.33.21.67.31,1.01.25.88.49,1.77.75,2.65.76,2.62,1.64,5.2,2.7,7.71,2.58,6.1,6.2,11.75,10.76,16.56,8.74,9.2,20.35,14.93,31.56,20.51,4.37,2.17,8.77,4.29,13.39,5.88,5.84,2.02,11.93,3.17,18.09,3.69,13.87,1.16,27.94-.57,41.43-3.78,4.4-1.05,8.75-2.3,13.11-3.5,1.26-.35,2.53-.68,3.82-.93.11-.02.22-.04.32-.05-.22.03-.21.02,0,0,.46-.03.92-.05,1.38-.1,1.39-.15,2.75-.45,4.08-.9,5.97-2.03,11.02-6.26,15.61-10.46,4.71-4.31,9.3-8.78,13.93-13.17,2.42-2.3,4.72-4.71,6.67-7.43,2.04-2.85,3.33-5.98,4.38-9.3,2.23-7.07,3.39-14.38,4.05-21.74,1.5-16.57,2.7-33.17,4.11-49.75,1.41-16.63,2.87-33.26,4.36-49.89,1.5-16.72,3.05-33.43,4.64-50.14.38-4.05.77-8.11,1.16-12.16.18-1.92-2.82-1.91-3,0-3.15,32.75-6.14,65.51-8.97,98.29-1.4,16.22-2.76,32.44-4.08,48.66-.64,7.87-1.01,15.81-2.27,23.61-.55,3.43-1.29,6.84-2.25,10.18-.96,3.34-2.08,6.76-4.05,9.75-3.51,5.34-8.68,9.35-13.24,13.74-4.61,4.44-9.09,9.11-14.33,12.83-2.32,1.65-4.81,3.17-7.52,4.1-1.91.65-3.81.7-5.77,1.04-3.12.54-6.17,1.6-9.21,2.43-23.44,6.45-49.56,9.78-72.36-.62-4.97-2.27-9.87-4.75-14.71-7.3-5.52-2.91-10.99-6.06-15.91-9.92-4.75-3.72-8.91-8.12-12.17-13.21s-5.41-10.45-7.02-16.14c-.39-1.37-.7-2.79-1.3-4.08-.82-1.75-3.4-.23-2.59,1.51h0Z"/>
    <path d="m24.01,73.25c12.98,15.7,32.42,23.95,51.7,28.91,10.7,2.76,21.65,4.99,32.56,6.72s22.36,1.62,33.63,1.15c19.7-.82,39.82-2.73,58.4-9.76,9.62-3.64,18.31-8.72,26.49-14.94,4.05-3.08,8.49-6.08,11.66-10.12,2.68-3.42,4.17-7.52,4.64-11.82.93-8.67-2.43-17.57-7.92-24.2-6.19-7.47-14.72-12.52-23.27-16.83-2.09-1.06-4.2-2.08-6.31-3.09-1.73-.83-3.25,1.75-1.51,2.59,15.45,7.45,34.42,17.11,36.06,36.44.34,3.97-.15,8.1-1.93,11.71-2.1,4.27-5.77,7.21-9.46,10.07-4.23,3.28-8.47,6.54-13.02,9.36-3.99,2.47-8.17,4.62-12.49,6.45-17.7,7.54-37.16,9.88-56.21,10.9-10.5.56-21.14,1.11-31.62.04-5.41-.56-10.75-1.57-16.08-2.61s-10.49-2.06-15.7-3.24c-19.01-4.3-38.46-10.8-52.72-24.69-1.67-1.63-3.25-3.35-4.74-5.15-1.23-1.49-3.34.64-2.12,2.12h-.04Z"/>
    <path d="m27.16,71.15c-5.72-6.96-6.23-16.6-2.04-24.43s12.23-13.53,20.09-18.04c5.03-2.88,10.15-5.6,15.32-8.21,1.72-.87.21-3.46-1.51-2.59-4.98,2.51-9.9,5.12-14.75,7.88-4.45,2.53-8.81,5.25-12.72,8.56-7.11,6.03-12.76,14.75-12.22,24.41.3,5.35,2.32,10.4,5.72,14.54,1.23,1.49,3.34-.64,2.12-2.12h0Z"/>
    <path d="m37.89,43.89c8.38-9.48,16.94-19.16,27.52-26.25,5.41-3.63,11.22-6.38,17.48-8.18,6.93-2,14.08-3.38,21.21-4.44,14.36-2.14,28.98-2.58,43.44-1.4,7.25.59,14.46,1.6,21.59,3.02,7.13,1.42,13.96,2.91,20.41,5.77,7.06,3.13,12.75,8.24,18.21,13.58,6.02,5.88,12,11.8,18,17.71,1.38,1.36,3.5-.76,2.12-2.12-5.58-5.49-11.17-10.99-16.75-16.48-4.84-4.76-9.78-9.55-15.67-13.02s-13.09-5.54-19.98-7.13c-7.35-1.7-14.79-2.95-22.29-3.78-14.72-1.63-29.63-1.56-44.33.22-7.33.89-14.6,2.17-21.78,3.89-6.8,1.63-13.35,3.89-19.41,7.42-12.55,7.31-22.38,18.32-31.89,29.08-1.27,1.44.84,3.57,2.12,2.12h0Z"/>
    <path d="m110.19,24.31c-.99,2.17-2.01,4.32-2.95,6.51-.88,2.05-.59,3.78.6,5.63,2.13,3.3,5.22,5.93,8.71,7.7,8.08,4.07,17.41,3.51,25.84.89,4.04-1.26,8.36-2.79,11.54-5.7,2.82-2.59,4.67-6.79,3.47-10.6s-4.86-5.84-8.39-7.13c-3.98-1.46-8.18-2.31-12.41-2.62-9.56-.7-19.29,1.55-27.54,6.42-1.66.98-.15,3.58,1.51,2.59,6.33-3.74,13.55-5.84,20.9-6.11,3.63-.13,7.27.15,10.82.91,3.33.71,7.07,1.65,9.86,3.7s3.25,5.51,1.5,8.5c-1.86,3.17-5.49,4.8-8.78,6.03-7.29,2.73-15.44,4.32-23.07,2.01-3.64-1.1-7.04-3.05-9.63-5.86-1.1-1.19-2.94-3.09-2.33-4.82.79-2.23,1.97-4.38,2.95-6.53.79-1.74-1.79-3.27-2.59-1.51h0Z"/>
    <path d="m107.72,30.31c-7.97,4.23-15.93,8.46-23.9,12.69-1.98,1.05-3.99,2.07-5.94,3.16-1.39.78-2.78,1.72-3.81,2.96s-1.61,2.63-1.47,4.21c.17,1.9,1.43,3.44,2.8,4.67,5.42,4.86,13.12,5.42,20,4.4,4.16-.62,8.22-1.78,12.32-2.68,4.33-.95,8.71-1.4,13.13-1.63,8.72-.46,17.54-.88,26.24,0,4.42.45,8.67,1.48,12.98,2.5,4.01.94,8.07,1.55,12.2,1.07,3.78-.44,7.44-1.55,10.79-3.36,2.97-1.59,6.88-4.08,4.83-7.94-.8-1.52-2.28-2.63-3.7-3.53-1.93-1.21-3.9-2.37-5.85-3.56-3.76-2.29-7.52-4.58-11.28-6.87-3.51-2.14-7.04-4.41-11.1-5.32s-8.46-.76-12.67-.75c-9.04.04-18.07.34-27.09.9-2.23.14-4.47.29-6.7.46-1.91.15-1.93,3.15,0,3,8.35-.63,16.71-1.05,25.08-1.24,4.14-.09,8.27-.14,12.41-.12,3.78.02,7.6.13,11.16,1.57s6.97,3.83,10.31,5.87,6.96,4.24,10.44,6.36c1.51.92,8.63,4.17,5.81,6.56s-6.36,3.69-9.74,4.48c-3.58.83-7.26.86-10.87.21-3.91-.7-7.72-1.89-11.64-2.56-7.98-1.37-16.1-1.35-24.16-1.05s-16.01.76-23.91,2.64c-6.85,1.63-14.02,3.62-21.01,1.6-1.56-.45-3.04-1.1-4.41-1.99-1.23-.81-2.89-2.04-3.33-3.51-.88-2.92,4.04-4.91,5.94-5.92l22.15-11.75,5.48-2.91c1.71-.91.19-3.5-1.51-2.59h0l.02-.03Z"/>
    <path d="m62.95,83.35c8.72,3.62,17.95,5.68,27.14,7.73s19.01,4.08,28.77,4.31,19.94-.62,29.82-1.58,19.44-2.22,29.09-3.83c9.04-1.5,19.26-2.63,26.32-9.07,1.43-1.3-.7-3.42-2.12-2.12-6.03,5.51-14.85,6.56-22.58,7.89-9.46,1.63-18.97,2.93-28.51,3.91s-19.18,1.81-28.79,1.84-19.14-1.57-28.6-3.66c-10.05-2.22-20.21-4.35-29.74-8.31-1.78-.74-2.56,2.16-.8,2.89h0Z"/>
    <path d="m239.39,78.9c3.1,0,5.48,2.52,6.6,5.23,1.47,3.56,1.12,7.62,1.23,11.38.1,3.35,1.05,7.44-1.65,10.05s-6.95,2.69-10.55,2.74c-1.93.03-1.93,3.03,0,3,4.44-.07,9.3-.34,12.67-3.62s2.65-7.88,2.53-12.17c-.14-4.54.18-9.34-1.93-13.51-1.71-3.39-4.97-6.1-8.9-6.09-1.93,0-1.93,3,0,3h0Z"/>
  </g>
  <g id="handle">
    <path d="m14.02,101.27c-5.6,3.21-9.93,8.32-12.4,14.27-1.22,2.95-2.51,6.57-.8,9.58,1.58,2.78,5.02,4.31,7.83,5.47,6.47,2.67,13.78,3.17,20.55,1.36,1.67-.44,3.34-1.1,5.07-1.22,1.94-.14,3.54.58,4.99,1.83,2.83,2.43,5.2,5.53,7.69,8.3,10.87,12.07,21.71,24.16,32.42,36.38,10.57,12.07,20.72,24.51,31.36,36.51,9.84,11.1,20.67,21.03,33.34,28.83,11.67,7.18,24.64,13.02,37.99,16.25,12.03,2.91,25.24,3.66,36.84-1.29,5.97-2.55,11.1-6.61,15.09-11.71,4.3-5.5,7.31-11.86,9.78-18.37,10.6-28,9.67-58.75,7.58-88.12-.27-3.73-.55-7.46-.85-11.19l-1.5,1.5c7.88.19,12.72-8.32,12.88-15.34.21-9.77-6.27-18.51-11.08-26.48-1-1.65-3.59-.14-2.59,1.51,4.3,7.12,10.05,14.77,10.63,23.36.39,5.78-2.96,14.11-9.83,13.95-.76-.02-1.56.7-1.5,1.5,2.25,28.76,4.57,58.48-2.87,86.72-1.77,6.71-4.04,13.35-7.12,19.58-2.95,5.98-6.78,11.64-12.06,15.8-9.57,7.53-22.28,8.85-34.01,7.32-12.88-1.68-25.44-6.58-36.92-12.51-12.59-6.51-23.96-14.93-33.89-25.04-10.71-10.89-20.17-22.99-30.14-34.54s-20.74-23.68-31.25-35.4c-5.17-5.77-10.33-11.55-15.54-17.28-2.18-2.4-4.66-4.75-8.06-5.04s-6.84,1.42-10.24,1.96c-6.71,1.07-14.07-.33-19.81-4.01-1.17-.75-2.35-1.75-2.58-3.21-.26-1.66.49-3.5,1.06-5.02,1.06-2.85,2.65-5.56,4.62-7.89s4.23-4.21,6.84-5.71c1.67-.96.17-3.55-1.51-2.59h0Z"/>
  </g>
</svg>