<svg xmlns="http://www.w3.org/2000/svg" id="canvas" viewBox="180.162 374.873 781.512 125.313"><path d="M 242.68,424.16 C 242.40 423.50, 241.95 422.90, 240.63 422.28 C 239.31 421.67, 238.37 421.14, 236.09 421.10 C 233.81 421.06, 232.20 421.04, 229.22 422.09 C 226.24 423.15, 224.64 424.25, 221.19 426.36 C 217.74 428.47, 215.77 429.74, 211.98 432.62 C 208.20 435.51, 205.96 437.26, 202.28 440.78 C 198.60 444.30, 196.58 446.34, 193.58 450.22 C 190.57 454.10, 189.23 456.29, 187.25 460.19 C 185.27 464.08, 184.37 466.11, 183.69 469.70 C 183.00 473.30, 182.93 475.15, 183.82 478.16 C 184.72 481.18, 185.67 482.64, 188.16 484.77 C 190.66 486.89, 192.60 487.77, 196.28 488.81 C 199.97 489.84, 202.05 489.92, 206.59 489.93 C 211.14 489.94, 213.90 489.71, 219.00 488.86 C 224.10 488.02, 226.86 487.36, 232.10 485.72 C 237.34 484.08, 240.16 482.85, 245.21 480.66 C 250.26 478.48, 252.84 477.30, 257.37 474.81 C 261.90 472.32, 264.19 470.87, 267.86 468.22 C 271.53 465.56, 273.05 464.13, 275.73 461.52 C 278.40 458.90, 279.56 457.59, 281.23 455.14 C 282.90 452.68, 283.43 451.40, 284.08 449.25 C 284.73 447.11, 284.68 446.03, 284.48 444.42 C 284.29 442.81, 283.65 441.78, 283.10 441.20 C 282.56 440.62, 282.02 440.85, 281.75 441.51 C 281.49 442.16, 281.93 443.13, 281.79 444.47 C 281.65 445.81, 281.72 446.46, 281.05 448.22 C 280.37 449.98, 279.87 450.99, 278.41 453.26 C 276.94 455.54, 276.13 456.98, 273.73 459.58 C 271.34 462.19, 269.92 463.63, 266.43 466.29 C 262.94 468.95, 260.71 470.40, 256.30 472.88 C 251.89 475.37, 249.34 476.56, 244.37 478.71 C 239.40 480.85, 236.60 482.05, 231.45 483.61 C 226.30 485.16, 223.60 485.78, 218.63 486.49 C 213.67 487.21, 210.94 487.33, 206.63 487.20 C 202.33 487.08, 200.41 486.85, 197.13 485.87 C 193.85 484.89, 192.32 484.02, 190.25 482.30 C 188.19 480.57, 187.56 479.67, 186.80 477.26 C 186.05 474.84, 185.94 473.40, 186.49 470.21 C 187.04 467.03, 187.74 465.03, 189.54 461.33 C 191.34 457.62, 192.60 455.45, 195.49 451.69 C 198.37 447.94, 200.35 445.95, 203.97 442.57 C 207.59 439.19, 209.83 437.48, 213.59 434.81 C 217.36 432.13, 219.40 430.93, 222.79 429.20 C 226.17 427.47, 227.85 426.93, 230.53 426.17 C 233.21 425.40, 234.33 425.52, 236.18 425.39 C 238.03 425.26, 238.60 425.49, 239.77 425.54 C 240.94 425.58, 241.44 425.88, 242.03 425.61 C 242.61 425.33, 242.96 424.83, 242.68 424.16" style="stroke: black; fill: black;"/><path d="M 290.87,442.87 C 291.53 442.41, 291.91 441.50, 292.35 440.29 C 292.79 439.08, 293.02 438.26, 293.08 436.82 C 293.13 435.39, 292.97 434.47, 292.61 433.10 C 292.24 431.72, 292.11 431.14, 291.25 429.95 C 290.39 428.75, 289.78 427.87, 288.32 427.12 C 286.85 426.38, 285.90 426.16, 283.93 426.24 C 281.95 426.31, 280.81 426.42, 278.46 427.48 C 276.11 428.54, 274.74 429.46, 272.19 431.54 C 269.64 433.62, 268.24 435.05, 265.72 437.90 C 263.20 440.74, 261.80 442.52, 259.58 445.75 C 257.36 448.98, 256.20 450.76, 254.63 454.04 C 253.06 457.32, 252.29 459.02, 251.75 462.16 C 251.21 465.31, 251.30 467.06, 251.94 469.78 C 252.58 472.50, 253.24 473.81, 254.96 475.75 C 256.67 477.69, 257.92 478.49, 260.51 479.47 C 263.09 480.45, 264.83 480.77, 267.88 480.63 C 270.93 480.50, 272.62 480.03, 275.77 478.78 C 278.93 477.53, 280.69 476.42, 283.65 474.39 C 286.61 472.36, 288.15 471.16, 290.55 468.62 C 292.96 466.08, 294.01 464.53, 295.67 461.67 C 297.33 458.81, 298.11 457.21, 298.84 454.33 C 299.58 451.45, 299.64 449.92, 299.36 447.26 C 299.08 444.60, 298.55 443.21, 297.44 441.02 C 296.33 438.82, 295.49 437.77, 293.80 436.28 C 292.11 434.79, 290.78 434.10, 288.99 433.55 C 287.20 433.00, 286.02 433.06, 284.87 433.52 C 283.73 433.98, 283.20 434.75, 283.27 435.85 C 283.35 436.95, 283.75 437.92, 285.24 439.02 C 286.73 440.12, 288.08 440.73, 290.72 441.35 C 293.36 441.96, 295.10 441.91, 298.46 442.08 C 301.81 442.24, 303.66 442.26, 307.51 442.17 C 311.35 442.07, 313.68 441.89, 317.68 441.59 C 321.69 441.30, 323.90 440.91, 327.54 440.68 C 331.17 440.45, 333.03 440.51, 335.87 440.45 C 338.70 440.39, 340.11 440.18, 341.73 440.38 C 343.35 440.58, 343.73 440.63, 343.97 441.45 C 344.20 442.26, 343.79 442.86, 342.90 444.47 C 342.00 446.08, 341.10 447.19, 339.49 449.49 C 337.88 451.78, 336.80 453.36, 334.86 455.93 C 332.92 458.50, 331.37 459.98, 329.79 462.33 C 328.20 464.69, 327.39 465.97, 326.92 467.70 C 326.45 469.43, 326.55 470.32, 327.44 470.98 C 328.33 471.63, 329.39 471.79, 331.37 470.96 C 333.35 470.13, 334.64 468.87, 337.33 466.82 C 340.03 464.77, 341.58 463.20, 344.84 460.71 C 348.10 458.22, 350.10 456.72, 353.63 454.37 C 357.16 452.02, 359.13 450.71, 362.47 448.97 C 365.81 447.22, 367.63 446.63, 370.32 445.64 C 373.01 444.66, 374.14 444.19, 375.92 444.06 C 377.69 443.92, 378.30 444.18, 379.21 444.96 C 380.12 445.75, 380.26 446.43, 380.47 447.98 C 380.68 449.53, 380.48 450.53, 380.28 452.71 C 380.08 454.89, 379.80 456.34, 379.48 458.89 C 379.16 461.43, 378.74 462.92, 378.67 465.44 C 378.61 467.96, 378.55 469.34, 379.15 471.47 C 379.75 473.60, 380.14 474.74, 381.69 476.09 C 383.25 477.45, 384.44 478.12, 386.92 478.24 C 389.41 478.37, 390.98 478.01, 394.12 476.70 C 397.27 475.40, 398.98 474.26, 402.63 471.72 C 406.28 469.19, 408.33 467.58, 412.37 464.03 C 416.41 460.49, 418.67 458.34, 422.83 454.00 C 427.00 449.66, 429.23 447.15, 433.21 442.32 C 437.18 437.49, 439.18 434.91, 442.71 429.83 C 446.24 424.75, 447.93 422.03, 450.87 416.92 C 453.82 411.81, 455.08 409.06, 457.43 404.28 C 459.79 399.50, 460.76 397.12, 462.66 393.02 C 464.55 388.92, 465.91 386.68, 466.92 383.77 C 467.93 380.86, 468.03 379.41, 467.71 378.48 C 467.40 377.55, 466.47 377.63, 465.37 379.13 C 464.26 380.63, 463.59 382.30, 462.18 385.99 C 460.78 389.69, 459.98 392.53, 458.34 397.60 C 456.69 402.68, 455.75 405.76, 453.97 411.39 C 452.18 417.02, 451.23 420.05, 449.43 425.76 C 447.63 431.47, 446.68 434.49, 444.96 439.94 C 443.24 445.39, 442.28 448.26, 440.84 453.02 C 439.40 457.78, 438.75 460.21, 437.77 463.73 C 436.78 467.25, 436.34 468.57, 435.91 470.64 C 435.47 472.70, 435.52 473.12, 435.60 474.04 C 435.68 474.97, 435.98 475.12, 436.31 475.25 C 436.63 475.38, 437.19 474.90, 437.21 474.69 C 437.23 474.48, 436.54 474.12, 436.38 474.19 C 436.23 474.26, 436.24 474.99, 436.43 475.04 C 436.63 475.09, 436.91 475.17, 437.36 474.44 C 437.81 473.70, 438.07 473.36, 438.69 471.36 C 439.31 469.36, 439.58 467.97, 440.44 464.43 C 441.30 460.88, 441.71 458.41, 442.99 453.64 C 444.28 448.86, 445.21 445.99, 446.87 440.54 C 448.54 435.08, 449.48 432.06, 451.31 426.36 C 453.14 420.67, 454.10 417.64, 456.02 412.07 C 457.95 406.50, 459.05 403.49, 460.92 398.51 C 462.79 393.53, 464.04 390.87, 465.37 387.18 C 466.71 383.49, 467.33 381.87, 467.61 380.07 C 467.88 378.27, 467.48 377.70, 466.75 378.20 C 466.01 378.70, 465.21 379.81, 463.95 382.58 C 462.68 385.35, 462.10 387.89, 460.42 392.05 C 458.75 396.21, 457.82 398.60, 455.58 403.39 C 453.34 408.17, 452.10 410.90, 449.22 415.98 C 446.34 421.06, 444.68 423.74, 441.19 428.77 C 437.69 433.80, 435.71 436.35, 431.74 441.11 C 427.77 445.87, 425.54 448.34, 421.36 452.56 C 417.17 456.79, 414.90 458.88, 410.83 462.22 C 406.77 465.56, 404.65 467.06, 401.03 469.27 C 397.41 471.47, 395.56 472.15, 392.73 473.24 C 389.91 474.34, 388.73 474.61, 386.91 474.75 C 385.09 474.88, 384.50 474.70, 383.63 473.91 C 382.76 473.12, 382.71 472.42, 382.57 470.79 C 382.43 469.16, 382.61 468.02, 382.91 465.76 C 383.20 463.50, 383.70 462.06, 384.04 459.47 C 384.37 456.89, 384.64 455.32, 384.59 452.85 C 384.54 450.37, 384.52 449.10, 383.78 447.10 C 383.05 445.09, 382.50 444.03, 380.92 442.82 C 379.33 441.62, 378.22 441.14, 375.87 441.06 C 373.52 440.98, 372.13 441.40, 369.17 442.45 C 366.20 443.50, 364.48 444.43, 361.05 446.32 C 357.62 448.21, 355.65 449.57, 352.01 451.90 C 348.38 454.23, 346.32 455.66, 342.88 457.97 C 339.43 460.28, 337.48 461.45, 334.80 463.45 C 332.11 465.45, 330.83 466.63, 329.44 467.96 C 328.05 469.30, 327.84 469.90, 327.83 470.13 C 327.83 470.37, 328.30 470.16, 329.42 469.14 C 330.53 468.12, 331.63 467.17, 333.40 465.04 C 335.16 462.91, 336.27 461.10, 338.24 458.49 C 340.22 455.89, 341.69 454.56, 343.30 452.01 C 344.90 449.46, 345.73 448.01, 346.28 445.73 C 346.84 443.45, 346.84 442.22, 346.07 440.59 C 345.31 438.96, 344.51 438.32, 342.46 437.56 C 340.41 436.81, 338.87 436.83, 335.84 436.82 C 332.80 436.81, 330.96 437.17, 327.29 437.50 C 323.62 437.84, 321.42 438.23, 317.46 438.50 C 313.51 438.77, 311.23 438.93, 307.50 438.84 C 303.78 438.76, 301.98 438.55, 298.85 438.08 C 295.71 437.61, 294.20 437.03, 291.82 436.50 C 289.43 435.98, 288.33 435.71, 286.90 435.45 C 285.47 435.19, 285.06 435.10, 284.67 435.20 C 284.28 435.30, 284.37 435.55, 284.95 435.96 C 285.53 436.36, 286.28 436.58, 287.56 437.23 C 288.83 437.87, 290.00 438.09, 291.33 439.18 C 292.67 440.27, 293.34 440.98, 294.23 442.67 C 295.12 444.36, 295.58 445.47, 295.78 447.62 C 295.98 449.77, 295.87 450.94, 295.23 453.40 C 294.60 455.86, 294.04 457.36, 292.61 459.93 C 291.17 462.50, 290.24 463.95, 288.06 466.27 C 285.88 468.58, 284.41 469.68, 281.69 471.49 C 278.97 473.30, 277.25 474.28, 274.44 475.30 C 271.64 476.32, 270.23 476.48, 267.69 476.61 C 265.14 476.75, 263.76 476.58, 261.71 475.97 C 259.66 475.35, 258.70 474.92, 257.42 473.53 C 256.13 472.14, 255.73 471.19, 255.28 469.03 C 254.83 466.87, 254.71 465.46, 255.17 462.74 C 255.62 460.02, 256.14 458.45, 257.55 455.42 C 258.96 452.39, 260.08 450.63, 262.23 447.60 C 264.37 444.57, 265.78 442.84, 268.28 440.27 C 270.78 437.71, 272.31 436.55, 274.72 434.77 C 277.12 432.98, 278.38 432.29, 280.28 431.34 C 282.19 430.40, 282.95 430.24, 284.24 430.04 C 285.53 429.84, 285.91 429.97, 286.72 430.35 C 287.53 430.74, 287.88 431.26, 288.30 431.95 C 288.73 432.65, 288.77 432.90, 288.85 433.83 C 288.93 434.76, 288.81 435.42, 288.72 436.59 C 288.63 437.76, 288.35 438.47, 288.41 439.67 C 288.47 440.86, 288.53 441.94, 289.03 442.58 C 289.52 443.22, 290.20 443.33, 290.87 442.87" style="stroke: black; fill: black;"/><path d="M 430.47,445.50 C 431.01 445.90, 431.46 445.93, 432.96 446.05 C 434.45 446.17, 435.35 446.32, 437.94 446.08 C 440.53 445.84, 442.45 445.42, 445.90 444.84 C 449.35 444.25, 451.39 443.75, 455.18 443.16 C 458.97 442.56, 461.03 442.49, 464.85 441.86 C 468.67 441.22, 472.46 440.75, 474.29 439.99 C 476.12 439.22, 475.98 438.25, 474.01 438.02 C 472.04 437.80, 468.31 438.50, 464.46 438.87 C 460.61 439.23, 458.56 439.47, 454.75 439.86 C 450.94 440.26, 448.87 440.55, 445.39 440.86 C 441.91 441.16, 439.95 440.99, 437.37 441.37 C 434.79 441.76, 433.91 442.26, 432.49 442.80 C 431.06 443.33, 430.65 443.52, 430.25 444.06 C 429.85 444.60, 429.92 445.10, 430.47 445.50" style="stroke: black; fill: black;"/><path d="M 500.11,440.84 C 500.97 440.67, 501.77 439.99, 503.03 438.92 C 504.29 437.85, 505.25 437.07, 506.42 435.48 C 507.59 433.90, 508.43 432.66, 508.89 431.00 C 509.35 429.34, 509.15 428.48, 508.71 427.18 C 508.27 425.88, 507.95 425.19, 506.69 424.49 C 505.43 423.79, 504.47 423.41, 502.41 423.67 C 500.35 423.93, 498.92 424.36, 496.39 425.80 C 493.86 427.24, 492.60 428.48, 489.76 430.86 C 486.93 433.24, 485.18 434.73, 482.22 437.69 C 479.26 440.66, 477.54 442.44, 474.95 445.69 C 472.37 448.93, 471.07 450.76, 469.30 453.92 C 467.53 457.07, 466.72 458.64, 466.09 461.46 C 465.46 464.28, 465.53 465.77, 466.17 468.03 C 466.81 470.28, 467.60 471.34, 469.31 472.72 C 471.02 474.10, 472.26 474.56, 474.74 474.93 C 477.21 475.30, 478.68 475.31, 481.68 474.57 C 484.68 473.83, 486.42 473.00, 489.73 471.24 C 493.05 469.48, 494.93 468.26, 498.24 465.78 C 501.54 463.30, 503.20 461.81, 506.25 458.83 C 509.29 455.86, 510.91 454.04, 513.46 450.89 C 516.01 447.74, 517.23 446.05, 518.98 443.08 C 520.72 440.11, 521.71 438.36, 522.19 436.03 C 522.66 433.71, 522.24 432.29, 521.34 431.45 C 520.44 430.61, 519.32 430.94, 517.68 431.84 C 516.04 432.73, 514.81 433.68, 513.15 435.93 C 511.50 438.19, 510.60 440.11, 509.40 443.12 C 508.20 446.12, 507.59 447.93, 507.16 450.96 C 506.72 453.99, 506.71 455.58, 507.22 458.26 C 507.73 460.94, 508.16 462.29, 509.69 464.36 C 511.22 466.43, 512.29 467.40, 514.87 468.62 C 517.46 469.84, 519.23 470.22, 522.60 470.46 C 525.96 470.69, 527.94 470.49, 531.70 469.79 C 535.45 469.10, 537.56 468.37, 541.38 466.98 C 545.20 465.59, 547.25 464.75, 550.81 462.84 C 554.38 460.94, 556.36 459.53, 559.20 457.44 C 562.05 455.35, 563.35 454.30, 565.04 452.38 C 566.74 450.47, 567.37 449.23, 567.68 447.86 C 567.98 446.48, 566.94 445.93, 566.56 445.50 C 566.19 445.08, 565.94 445.44, 565.79 445.75 C 565.65 446.06, 566.51 446.23, 565.85 447.06 C 565.19 447.89, 564.25 448.33, 562.51 449.88 C 560.78 451.43, 559.83 452.73, 557.20 454.79 C 554.57 456.85, 552.73 458.32, 549.37 460.18 C 546.00 462.05, 544.01 462.85, 540.36 464.11 C 536.72 465.38, 534.64 465.98, 531.14 466.51 C 527.65 467.04, 525.84 467.01, 522.89 466.76 C 519.94 466.50, 518.50 466.10, 516.39 465.22 C 514.28 464.35, 513.48 463.88, 512.36 462.38 C 511.23 460.88, 511.00 459.86, 510.77 457.72 C 510.55 455.59, 510.67 454.26, 511.25 451.70 C 511.82 449.14, 512.45 447.55, 513.65 444.92 C 514.84 442.29, 516.01 440.74, 517.22 438.55 C 518.42 436.35, 519.05 435.22, 519.69 433.93 C 520.33 432.65, 520.53 431.90, 520.41 432.13 C 520.29 432.35, 519.96 433.19, 519.09 435.04 C 518.22 436.90, 517.66 438.60, 516.07 441.40 C 514.49 444.21, 513.53 446.00, 511.17 449.08 C 508.80 452.15, 507.19 453.93, 504.25 456.78 C 501.30 459.62, 499.65 461.04, 496.43 463.31 C 493.22 465.58, 491.32 466.66, 488.18 468.12 C 485.03 469.58, 483.33 469.97, 480.71 470.61 C 478.09 471.25, 477.01 471.37, 475.10 471.30 C 473.19 471.23, 472.35 471.07, 471.15 470.27 C 469.94 469.46, 469.42 468.89, 469.08 467.28 C 468.73 465.68, 468.83 464.61, 469.43 462.25 C 470.03 459.88, 470.50 458.38, 472.07 455.44 C 473.65 452.51, 474.84 450.66, 477.31 447.56 C 479.78 444.47, 481.47 442.71, 484.41 439.95 C 487.35 437.19, 489.16 435.79, 492.01 433.77 C 494.86 431.76, 496.39 431.11, 498.66 429.87 C 500.93 428.63, 501.95 428.18, 503.37 427.59 C 504.79 427.00, 505.18 426.91, 505.75 426.92 C 506.32 426.93, 506.32 427.16, 506.20 427.63 C 506.09 428.11, 505.91 428.31, 505.16 429.30 C 504.41 430.28, 503.50 431.13, 502.45 432.56 C 501.40 433.98, 500.66 435.00, 499.92 436.44 C 499.18 437.88, 498.70 438.89, 498.74 439.76 C 498.77 440.64, 499.25 441.01, 500.11 440.84" style="stroke: black; fill: black;"/><path d="M 580.70,437.00 C 580.47 436.38, 580.04 435.88, 578.92 435.38 C 577.80 434.88, 577.02 434.46, 575.12 434.51 C 573.22 434.55, 571.87 434.70, 569.44 435.61 C 567.00 436.52, 565.61 437.37, 562.96 439.05 C 560.31 440.73, 558.82 441.81, 556.20 444.02 C 553.58 446.23, 552.19 447.52, 549.86 450.12 C 547.54 452.72, 546.21 454.13, 544.58 457.03 C 542.95 459.92, 542.22 461.68, 541.71 464.58 C 541.20 467.47, 541.29 468.98, 542.03 471.50 C 542.77 474.03, 543.38 475.30, 545.42 477.20 C 547.45 479.10, 549.00 480.10, 552.21 481.00 C 555.43 481.91, 557.34 481.98, 561.48 481.72 C 565.62 481.45, 568.15 480.96, 572.91 479.67 C 577.67 478.39, 580.25 477.56, 585.28 475.30 C 590.31 473.03, 593.06 471.53, 598.07 468.33 C 603.07 465.14, 605.65 463.27, 610.30 459.32 C 614.96 455.37, 617.24 453.11, 621.36 448.56 C 625.49 444.02, 627.43 441.43, 630.93 436.61 C 634.43 431.78, 636.04 429.21, 638.87 424.42 C 641.70 419.64, 642.89 417.10, 645.07 412.67 C 647.25 408.24, 648.42 405.78, 649.77 402.28 C 651.13 398.78, 651.58 396.99, 651.83 395.15 C 652.08 393.31, 651.68 392.75, 651.02 393.07 C 650.36 393.40, 649.53 394.25, 648.52 396.77 C 647.52 399.28, 647.08 401.55, 645.98 405.66 C 644.89 409.77, 644.34 412.44, 643.06 417.30 C 641.79 422.16, 640.97 424.88, 639.59 429.96 C 638.21 435.04, 637.49 437.68, 636.16 442.69 C 634.83 447.69, 634.18 450.36, 632.92 455.00 C 631.67 459.64, 630.95 462.06, 629.90 465.89 C 628.84 469.71, 628.23 471.75, 627.65 474.13 C 627.08 476.51, 627.17 477.20, 627.04 477.79 C 626.91 478.38, 627.04 478.09, 627.00 477.08 C 626.96 476.08, 627.17 475.02, 626.84 472.76 C 626.51 470.50, 626.11 468.65, 625.34 465.79 C 624.57 462.93, 623.96 461.22, 623.00 458.46 C 622.05 455.70, 621.45 454.27, 620.56 452.00 C 619.66 449.74, 619.19 448.74, 618.54 447.15 C 617.89 445.56, 617.48 444.91, 617.32 444.05 C 617.15 443.18, 617.06 443.06, 617.70 442.83 C 618.35 442.59, 618.87 442.75, 620.53 442.87 C 622.19 442.99, 623.35 443.21, 626.01 443.42 C 628.68 443.62, 630.36 443.67, 633.86 443.89 C 637.35 444.12, 639.56 444.22, 643.49 444.53 C 647.41 444.84, 649.56 445.08, 653.49 445.44 C 657.41 445.80, 659.57 445.95, 663.12 446.32 C 666.68 446.69, 668.46 447.07, 671.26 447.30 C 674.06 447.53, 675.29 447.52, 677.12 447.48 C 678.95 447.43, 679.44 447.29, 680.41 447.08 C 681.39 446.86, 681.68 446.72, 681.99 446.41 C 682.29 446.11, 682.24 445.82, 681.93 445.55 C 681.63 445.28, 681.36 445.32, 680.45 445.08 C 679.53 444.83, 679.12 444.64, 677.35 444.33 C 675.57 444.03, 674.37 443.79, 671.58 443.55 C 668.78 443.31, 666.95 443.37, 663.39 443.13 C 659.83 442.90, 657.69 442.76, 653.77 442.40 C 649.85 442.04, 647.70 441.77, 643.80 441.33 C 639.89 440.88, 637.73 440.66, 634.25 440.16 C 630.76 439.65, 629.19 439.04, 626.39 438.80 C 623.59 438.57, 622.28 438.58, 620.25 438.97 C 618.22 439.35, 617.35 439.72, 616.23 440.73 C 615.10 441.74, 614.84 442.52, 614.64 444.01 C 614.45 445.50, 614.80 446.33, 615.24 448.19 C 615.69 450.05, 616.15 450.98, 616.85 453.30 C 617.56 455.61, 618.04 457.00, 618.77 459.75 C 619.50 462.50, 619.77 464.20, 620.49 467.05 C 621.21 469.90, 621.45 471.78, 622.38 474.01 C 623.30 476.24, 623.99 477.24, 625.12 478.20 C 626.26 479.16, 626.91 479.45, 628.04 478.82 C 629.17 478.20, 629.87 477.54, 630.78 475.09 C 631.69 472.64, 631.71 470.47, 632.60 466.57 C 633.48 462.67, 634.06 460.25, 635.20 455.59 C 636.35 450.93, 636.99 448.26, 638.31 443.26 C 639.63 438.26, 640.34 435.63, 641.81 430.58 C 643.27 425.54, 644.14 422.83, 645.64 418.04 C 647.13 413.25, 647.95 410.67, 649.27 406.63 C 650.59 402.59, 651.75 400.53, 652.24 397.84 C 652.74 395.15, 652.29 393.86, 651.76 393.17 C 651.22 392.47, 650.50 392.76, 649.57 394.38 C 648.63 396.00, 648.39 397.78, 647.08 401.25 C 645.77 404.72, 645.02 407.27, 643.03 411.71 C 641.04 416.14, 639.87 418.66, 637.14 423.42 C 634.42 428.18, 632.82 430.72, 629.39 435.50 C 625.96 440.27, 624.04 442.83, 619.98 447.31 C 615.92 451.78, 613.67 454.00, 609.08 457.87 C 604.48 461.73, 601.93 463.55, 597.00 466.63 C 592.06 469.71, 589.33 471.15, 584.39 473.26 C 579.44 475.38, 576.89 476.12, 572.28 477.20 C 567.68 478.28, 565.16 478.61, 561.35 478.68 C 557.53 478.76, 555.92 478.39, 553.20 477.57 C 550.48 476.76, 549.35 476.02, 547.74 474.63 C 546.14 473.24, 545.66 472.49, 545.17 470.63 C 544.69 468.76, 544.81 467.65, 545.32 465.28 C 545.83 462.91, 546.29 461.35, 547.72 458.79 C 549.15 456.23, 550.31 454.85, 552.48 452.48 C 554.65 450.11, 556.01 448.88, 558.55 446.94 C 561.09 445.00, 562.67 444.17, 565.18 442.78 C 567.69 441.39, 569.03 440.79, 571.10 439.99 C 573.17 439.18, 574.11 439.03, 575.53 438.75 C 576.95 438.48, 577.29 438.67, 578.20 438.62 C 579.11 438.57, 579.58 438.83, 580.08 438.51 C 580.58 438.19, 580.93 437.63, 580.70 437.00" style="stroke: black; fill: black;"/><path d="M 755.40,445.44 C 754.54 446.04, 753.75 447.11, 752.66 449.12 C 751.57 451.14, 750.90 452.65, 749.97 455.50 C 749.03 458.36, 748.31 460.32, 747.99 463.40 C 747.67 466.49, 747.78 468.22, 748.38 470.92 C 748.98 473.62, 749.56 474.84, 751.00 476.91 C 752.45 478.98, 753.35 480.04, 755.61 481.29 C 757.88 482.53, 759.46 482.97, 762.32 483.13 C 765.19 483.29, 766.84 482.98, 769.96 482.08 C 773.08 481.19, 774.70 480.41, 777.91 478.68 C 781.12 476.96, 782.83 475.84, 786.01 473.46 C 789.19 471.09, 790.92 469.61, 793.82 466.80 C 796.72 463.99, 798.12 462.35, 800.51 459.40 C 802.90 456.46, 804.10 454.93, 805.77 452.09 C 807.45 449.25, 808.28 447.64, 808.89 445.21 C 809.50 442.79, 809.35 441.30, 808.83 439.95 C 808.31 438.60, 807.52 438.35, 806.28 438.48 C 805.04 438.61, 804.03 439.03, 802.65 440.58 C 801.27 442.14, 800.38 443.56, 799.38 446.25 C 798.39 448.93, 798.11 450.88, 797.68 454.00 C 797.25 457.12, 797.04 458.84, 797.21 461.84 C 797.39 464.83, 797.66 466.35, 798.54 468.98 C 799.41 471.61, 799.89 472.85, 801.60 475.00 C 803.31 477.15, 804.50 478.32, 807.09 479.73 C 809.68 481.13, 811.32 481.62, 814.56 482.04 C 817.79 482.46, 819.58 482.33, 823.26 481.81 C 826.93 481.29, 829.06 480.85, 832.94 479.45 C 836.81 478.05, 838.80 476.97, 842.62 474.82 C 846.45 472.67, 848.46 471.31, 852.05 468.72 C 855.63 466.12, 857.43 464.57, 860.56 461.83 C 863.69 459.09, 865.12 457.57, 867.69 454.99 C 870.26 452.42, 871.62 451.18, 873.41 448.97 C 875.20 446.76, 875.73 445.57, 876.63 443.94 C 877.53 442.31, 877.59 441.63, 877.91 440.83 C 878.22 440.02, 878.13 439.87, 878.20 439.93 C 878.27 439.98, 877.93 440.26, 878.26 441.11 C 878.59 441.95, 878.80 442.71, 879.84 444.16 C 880.88 445.60, 881.83 446.48, 883.47 448.36 C 885.11 450.24, 886.15 451.30, 888.04 453.55 C 889.92 455.79, 891.06 457.11, 892.90 459.60 C 894.75 462.08, 895.80 463.50, 897.25 465.99 C 898.70 468.49, 899.36 469.72, 900.17 472.08 C 900.97 474.43, 901.26 475.65, 901.28 477.75 C 901.29 479.85, 901.12 480.84, 900.23 482.57 C 899.33 484.31, 898.58 485.02, 896.78 486.44 C 894.98 487.86, 893.68 488.62, 891.22 489.68 C 888.76 490.75, 887.27 491.16, 884.47 491.78 C 881.67 492.40, 879.97 492.51, 877.23 492.78 C 874.49 493.04, 872.82 493.09, 870.77 493.13 C 868.71 493.16, 867.88 493.16, 866.94 492.95 C 865.99 492.74, 866.21 492.51, 866.06 492.07 C 865.91 491.64, 866.39 491.11, 866.18 490.79 C 865.97 490.47, 865.41 490.13, 865.01 490.46 C 864.62 490.80, 864.07 491.48, 864.21 492.46 C 864.35 493.43, 864.45 494.45, 865.71 495.36 C 866.98 496.26, 868.14 496.68, 870.52 496.99 C 872.90 497.31, 874.65 497.20, 877.61 496.93 C 880.58 496.67, 882.29 496.37, 885.35 495.68 C 888.40 494.98, 890.10 494.71, 892.89 493.45 C 895.68 492.20, 897.20 491.28, 899.29 489.41 C 901.39 487.55, 902.25 486.44, 903.35 484.12 C 904.46 481.80, 904.75 480.45, 904.83 477.81 C 904.91 475.16, 904.63 473.65, 903.77 470.90 C 902.92 468.16, 902.10 466.81, 900.57 464.09 C 899.03 461.38, 897.90 459.97, 896.09 457.33 C 894.27 454.68, 893.25 453.29, 891.48 450.86 C 889.70 448.43, 888.85 447.13, 887.23 445.17 C 885.60 443.20, 884.70 442.29, 883.35 441.04 C 882.00 439.79, 881.52 439.43, 880.47 438.90 C 879.42 438.37, 879.01 438.29, 878.12 438.39 C 877.22 438.50, 876.83 438.67, 876.00 439.43 C 875.17 440.20, 875.05 440.77, 873.97 442.23 C 872.88 443.68, 872.27 444.56, 870.57 446.70 C 868.88 448.83, 867.86 450.28, 865.49 452.89 C 863.12 455.51, 861.73 457.04, 858.73 459.77 C 855.72 462.50, 853.96 464.02, 850.47 466.54 C 846.98 469.07, 844.99 470.38, 841.29 472.40 C 837.58 474.42, 835.64 475.41, 831.96 476.64 C 828.27 477.86, 826.23 478.18, 822.85 478.53 C 819.48 478.88, 817.87 478.82, 815.08 478.39 C 812.28 477.95, 811.03 477.48, 808.90 476.35 C 806.76 475.22, 805.78 474.43, 804.41 472.74 C 803.04 471.05, 802.65 470.10, 802.03 467.90 C 801.42 465.69, 801.31 464.34, 801.32 461.72 C 801.33 459.09, 801.49 457.52, 802.09 454.77 C 802.68 452.02, 803.51 450.40, 804.31 447.97 C 805.10 445.55, 805.52 444.25, 806.05 442.65 C 806.59 441.05, 806.84 440.48, 806.97 439.98 C 807.09 439.48, 807.01 439.32, 806.69 440.15 C 806.38 440.98, 806.18 442.08, 805.40 444.13 C 804.62 446.18, 804.25 447.72, 802.79 450.39 C 801.33 453.07, 800.32 454.64, 798.11 457.49 C 795.89 460.34, 794.52 461.95, 791.73 464.64 C 788.94 467.33, 787.25 468.75, 784.17 470.95 C 781.10 473.16, 779.40 474.18, 776.36 475.67 C 773.32 477.16, 771.74 477.70, 768.96 478.41 C 766.19 479.11, 764.83 479.25, 762.49 479.20 C 760.14 479.15, 758.99 478.98, 757.26 478.14 C 755.52 477.29, 754.86 476.57, 753.82 474.99 C 752.79 473.41, 752.39 472.44, 752.09 470.24 C 751.79 468.04, 751.88 466.67, 752.34 463.99 C 752.79 461.31, 753.59 459.55, 754.36 456.85 C 755.13 454.15, 755.68 452.64, 756.20 450.49 C 756.71 448.34, 757.10 447.11, 756.94 446.10 C 756.78 445.09, 756.26 444.83, 755.40 445.44" style="stroke: black; fill: black;"/><path d="M 956.84,396.65 C 956.19 397.09, 955.95 397.89, 955.18 399.29 C 954.42 400.68, 954.01 401.44, 953.03 403.62 C 952.05 405.79, 951.42 407.35, 950.28 410.15 C 949.15 412.96, 948.59 414.61, 947.34 417.63 C 946.08 420.65, 945.25 422.21, 944.01 425.27 C 942.76 428.33, 942.03 429.83, 941.12 432.92 C 940.22 436.01, 939.43 439.05, 939.47 440.73 C 939.51 442.41, 940.34 442.64, 941.32 441.31 C 942.30 439.97, 943.19 436.98, 944.37 434.05 C 945.56 431.11, 945.96 429.61, 947.25 426.63 C 948.54 423.66, 949.39 422.13, 950.81 419.18 C 952.22 416.24, 953.03 414.68, 954.32 411.91 C 955.61 409.14, 956.42 407.64, 957.26 405.33 C 958.09 403.02, 958.26 402.02, 958.49 400.37 C 958.73 398.72, 958.76 397.82, 958.43 397.08 C 958.09 396.33, 957.48 396.21, 956.84 396.65" style="stroke: black; fill: black;"/><path d="M 936.10,458.96 C 935.63 459.14, 935.31 460.05, 935.58 460.48 C 935.86 460.92, 936.98 461.30, 937.46 461.13 C 937.94 460.95, 938.25 460.04, 937.98 459.60 C 937.71 459.17, 936.58 458.79, 936.10 458.96" style="stroke: black; fill: black;"/></svg>