<?xml version="1.0" encoding="UTF-8"?>
<svg xmlns="http://www.w3.org/2000/svg" viewBox="0 0 215.6 201.84">
  <defs>
    <style>
      .cls-1 {
        font-size: 36px;
        stroke-width: .1px;
      }

      .cls-1, .cls-2, .cls-3 {
        stroke: #000;
        stroke-miterlimit: 10;
      }

      .cls-1, .cls-4 {
        font-family: NorthFace, 'North Face';
      }

      .cls-4 {
        font-size: 21px;
      }

      .cls-3 {
        fill: none;
        stroke-width: 5px;
      }
    </style>
  </defs>
  <g id="Layer_7" data-name="Layer 7">
    <circle class="cls-3" cx="106.79" cy="108.94" r="67.69"/>
  </g>
  <g id="Layer_4" data-name="Layer 4">
    <text class="cls-1" transform="translate(34.01 94.7) rotate(-62.88) scale(1.25 1.1)"><tspan x="0" y="0">B</tspan></text>
    <text class="cls-1" transform="translate(57.53 55.89) rotate(-32.04) scale(1.25 1.1)"><tspan x="0" y="0">I</tspan></text>
    <text class="cls-1" transform="translate(85.41 38.86) rotate(-2.76) scale(1.25 1.1)"><tspan x="0" y="0">L</tspan></text>
    <text class="cls-1" transform="translate(126.64 38.39) rotate(29.71) scale(1.25 1.1)"><tspan x="0" y="0">L</tspan></text>
    <text class="cls-1" transform="translate(161.94 59.83) rotate(63.39) scale(1.25 1.1)"><tspan x="0" y="0">Y</tspan></text>
    <text/>
  </g>
  <g id="Layer_5" data-name="Layer 5">
    <path d="m44.49,125.75c7.7-.08,14.87,4.09,21.96,6.96,3.79,1.53,7.67,2.72,11.76,3.05,4.55.37,9.06-.71,13.26-2.39,4.62-1.84,9.08-4.09,13.57-6.21s9.17-4.32,13.76-6.48,9.09-4.25,13.62-6.41,8.6-4.25,12.53-7.01c2.1-1.48,4.15-3.1,6.49-4.2,2.06-.97,4.37-1.43,6.61-1.82,4.99-.86,9.97-1.31,14.53-3.69,1.44-.75,1.87-2.75,1.08-4.1-.85-1.46-2.66-1.83-4.1-1.08-3.7,1.93-8.02,2.27-12.07,2.92-4.52.72-8.68,2.02-12.49,4.62s-7.65,5.22-11.84,7.35-8.79,4.22-13.2,6.29c-9.02,4.25-18.02,8.57-27.08,12.73-3.91,1.8-8.08,3.48-12.44,3.56-3.66.06-7.11-.9-10.63-2.22-8.27-3.09-16.17-7.96-25.32-7.86-3.86.04-3.87,6.04,0,6h0Z"/>
    <path d="m117.5,148.27l.26,1.21c.04.19.28.32.46.26.2-.07.31-.26.26-.46l-.26-1.21c-.04-.19-.28-.32-.46-.26-.2.07-.31.26-.26.46h0Z"/>
    <path d="m117.73,148.58c1.27-.46,2.5-.96,3.48-1.93,1.06-1.04,1.89-2.34,2.74-3.55,1.87-2.64,3.75-5.29,5.41-8.07.25-.42-.4-.79-.65-.38-1.53,2.56-3.25,5-4.97,7.44-.84,1.19-1.65,2.43-2.6,3.53s-2.21,1.73-3.62,2.24c-.45.16-.26.89.2.72h0Z"/>
    <path d="m121.94,145.29c-.11.81-.16,1.65-.08,2.46.04.39.29.49.63.6.37.12.74.24,1.12.33,1.3.31,2.94.4,3.65,1.73.23.42.88.05.65-.38-.69-1.27-2.1-1.66-3.42-1.93-.37-.07-.74-.15-1.11-.26-.19-.05-.37-.11-.56-.17-.08-.03-.15-.05-.23-.08-.05-.02-.09-.03-.14-.05.12.23.17.28.15.15.04-.16-.02-.4-.02-.57,0-.21,0-.41,0-.62.01-.41.05-.82.1-1.23.03-.2-.19-.37-.38-.38-.22,0-.35.17-.38.38h0Z"/>
    <path d="m128.74,134.82c-.13,1.31-.04,2.62-.07,3.94s-.11,2.53-.26,3.79c-.3,2.65-.82,5.26-1.35,7.87-.1.47.63.67.72.2.52-2.57,1.03-5.15,1.34-7.76.16-1.31.26-2.63.29-3.95s-.06-2.73.07-4.09c.05-.48-.7-.48-.75,0h0Z"/>
    <path d="m128.84,135.11c0,2.67-.06,5.35-.26,8.02s-.47,5.19-.11,7.79c.07.48.79.27.72-.2-.37-2.63-.04-5.27.16-7.9s.24-5.14.24-7.71c0-.48-.75-.48-.75,0h0Z"/>
    <path d="m128.94,151.14c1.11.61,2.4.7,3.61.99,1.34.31,2.66.73,3.98,1.14.46.14.66-.58.2-.72-1.27-.4-2.54-.8-3.84-1.11-1.18-.28-2.49-.35-3.57-.94-.42-.23-.8.41-.38.65h0Z"/>
    <path d="m136.05,148.47c-.09,1.42.02,2.85.33,4.24.1.47.83.27.72-.2-.29-1.33-.39-2.69-.3-4.04.03-.48-.72-.48-.75,0h0Z"/>
    <path d="m128.83,134.77c.1.68.18,1.36.3,2.04.11.59.39.99.66,1.5.63,1.2,1.05,2.48,1.74,3.67s1.34,2.26,2.1,3.32c.84,1.17,1.82,2.21,2.62,3.41.27.4.92.02.65-.38-.75-1.13-1.65-2.13-2.47-3.21s-1.46-2.18-2.12-3.3-1.16-2.35-1.7-3.56c-.26-.57-.63-1.02-.75-1.65-.12-.67-.2-1.36-.3-2.04-.07-.48-.79-.27-.72.2h0Z"/>
    <path d="m136.3,149.1c.36.29.51.74.72,1.15.24.46.56.88.9,1.27s.68.75,1.01,1.14c.36.44.68.92.96,1.42.23.42.88.04.65-.38-.55-.99-1.29-1.8-2.02-2.65-.34-.39-.64-.79-.87-1.25s-.4-.91-.8-1.23c-.16-.13-.37-.15-.53,0-.13.13-.16.4,0,.53h0Z"/>
    <path d="m136.99,148.52c1.16-.08,2.29-.55,3.36-.98,1.15-.46,2.27-.97,3.45-1.37s2.51-.56,3.74-.97,2.41-.95,3.67-1.28c.47-.12.27-.84-.2-.72-1.26.32-2.44.87-3.67,1.28-1.15.38-2.35.53-3.51.89s-2.16.82-3.22,1.26c-1.13.47-2.39,1.06-3.62,1.14-.48.03-.48.78,0,.75h0Z"/>
    <path d="m129.29,134.66c2.87.73,5.87.48,8.78.14,1.42-.17,2.83-.41,4.21-.77,1.49-.39,2.95-.86,4.48-1.06.47-.06.48-.81,0-.75-2.84.37-5.52,1.43-8.37,1.79s-6.01.66-8.91-.08c-.47-.12-.67.6-.2.72h0Z"/>
    <path d="m146.43,132.55c.22,2.1.91,4.15,1.61,6.13s1.5,3.75,2.72,5.35c.29.38.94,0,.65-.38-1.19-1.56-2-3.33-2.65-5.17s-1.37-3.92-1.58-5.93c-.05-.48-.8-.48-.75,0h0Z"/>
    <path d="m137.04,152.92c1.32-.57,2.68-1.02,4.05-1.45.49-.15.92-.33,1.34-.63.56-.39,1.11-.66,1.75-.92,1.22-.5,2.45-.98,3.73-1.33.61-.17,1.22-.29,1.77-.62s1.02-.76,1.51-1.15c.38-.3-.15-.82-.53-.53-.61.48-1.21,1.04-1.95,1.3-.57.2-1.18.31-1.75.5-1.24.39-2.47.88-3.67,1.39-.45.19-.83.43-1.22.71-.58.41-1.22.56-1.89.77-1.19.37-2.36.81-3.5,1.31-.44.19-.06.84.38.65h0Z"/>
    <path d="m150.65,143.91c.1.83.18,1.66.24,2.5.01.2.16.38.38.38.19,0,.39-.17.38-.38-.06-.84-.14-1.67-.24-2.5-.02-.19-.16-.38-.38-.38-.18,0-.4.17-.38.38h0Z"/>
    <path d="m150.93,144.35c.25.07.39.39.51.59.19.31.37.63.56.94.38.62.81,1.21,1.34,1.71.35.33.88-.2.53-.53-.54-.51-.96-1.12-1.35-1.75-.19-.32-.38-.64-.57-.96s-.45-.62-.83-.72c-.47-.13-.67.6-.2.72h0Z"/>
    <path d="m45.64,104.4c-.49,3.12-.24,6.22-.03,9.35s.21,6.46-.09,9.69c-.09.96,1.41.96,1.5,0,.28-3.11.31-6.22.11-9.33s-.53-6.22-.05-9.31c.15-.94-1.3-1.35-1.45-.4h0Z"/>
    <path d="m50.64,86.21c.38,3.06.38,6.17.49,9.25s.2,6.29.26,9.43c.11,6.1-.3,12.26.38,18.33.11.95,1.61.96,1.5,0-.68-6.07-.28-12.24-.38-18.33-.05-3.06-.15-6.12-.25-9.19s-.11-6.36-.49-9.5c-.12-.95-1.62-.96-1.5,0h0Z"/>
    <path d="m60.45,96.23c-.16,5.25.25,10.44.38,15.68s-.15,10.35-.24,15.51c-.02.97,1.48.97,1.5,0,.1-5.16.38-10.35.24-15.51s-.54-10.43-.38-15.68c.03-.97-1.47-.96-1.5,0h0Z"/>
    <path d="m66.31,112.09c-.18,1.32-.04,2.59.07,3.9.12,1.47.18,2.95.2,4.43.03,2.91-.11,5.81-.25,8.72-.05.96,1.45.96,1.5,0,.13-2.79.27-5.59.25-8.39,0-1.37-.05-2.74-.15-4.11s-.36-2.78-.17-4.16c.13-.94-1.32-1.35-1.45-.4h0Z"/>
    <path d="m69.01,94.7c.39,11.98.79,23.92,2.03,35.85.1.95,1.6.96,1.5,0-1.24-11.93-1.64-23.87-2.03-35.85-.03-.96-1.53-.97-1.5,0h0Z"/>
    <path d="m103.35,87.76c.49,5.81.1,11.62.41,17.44s.63,11.86.95,17.8c.05.96,1.55.97,1.5,0-.32-5.93-.64-11.86-.95-17.8s.08-11.63-.41-17.44c-.08-.95-1.58-.96-1.5,0h0Z"/>
    <path d="m110.92,98.47c0,3.42.05,6.82.3,10.23s.51,6.93.47,10.39c0,.82,1.32,1.05,1.47.2l.05-.26c.16-.94-1.28-1.35-1.45-.4l-.05.26,1.47.2c.03-3.45-.22-6.94-.47-10.39s-.3-6.81-.3-10.23c0-.97-1.5-.97-1.5,0h0Z"/>
    <path d="m118.75,79.51c.37,12.29-1.05,24.62.64,36.86.13.95,1.58.55,1.45-.4-1.67-12.09-.22-24.32-.59-36.47-.03-.96-1.53-.97-1.5,0h0Z"/>
    <path d="m124.68,88.7c.06,4.13.04,8.26-.05,12.39s-.54,8.05-.13,12.02c.1.95,1.6.96,1.5,0-.4-3.97.05-8.04.13-12.02s.1-8.26.05-12.39c-.01-.96-1.51-.97-1.5,0h0Z"/>
    <path d="m128.33,75.46c.38,6.08.68,12.17.88,18.26.18,5.69-.3,11.72,1.17,17.27.25.93,1.69.54,1.45-.4-.74-2.79-.85-5.6-.91-8.47s-.13-5.93-.23-8.89c-.2-5.93-.49-11.85-.86-17.77-.06-.96-1.56-.97-1.5,0h0Z"/>
    <path d="m132.46,59.97c1.12,8.62-.19,17.33-.01,25.99.09,4.35.4,8.7.8,13.03.2,2.13.41,4.25.64,6.38.1.96.04,2.22.34,3.14.16.5.45.71.97.77.96.11.95-1.39,0-1.5l-.15-.02.65.37c-.35-.76-.24-2.18-.33-3.01-.1-.98-.21-1.96-.3-2.94-.21-2.04-.4-4.09-.56-6.14-.32-4.01-.55-8.03-.57-12.05-.04-8.01,1.08-16.04.04-24.02-.12-.94-1.62-.96-1.5,0h0Z"/>
    <path d="m136.18,54.5c-.51,4.28.47,8.59.47,12.88s-.16,8.66-.11,12.99c.09,8.77.58,17.53,1.45,26.26.09.95,1.6.96,1.5,0-.87-8.73-1.36-17.49-1.45-26.26-.04-4.33.11-8.66.11-12.99s-.98-8.6-.47-12.88c.11-.96-1.39-.95-1.5,0h0Z"/>
    <path d="m142.77,104.82c.66-3.92.53-7.87.44-11.83s.36-8.04.04-12.04c-.65-8.19-.99-16.29-.45-24.5.06-.96-1.44-.96-1.5,0-.53,8.04-.27,16.01.41,24.03.33,3.85-.09,7.68-.02,11.54.07,4.14.33,8.3-.36,12.41-.16.94,1.29,1.35,1.45.4h0Z"/>
    <path d="m157.67,97.16c-1-4.61.11-9.28.15-13.93.04-4.63-.32-9.28-.51-13.91-.04-.96-1.54-.97-1.5,0,.19,4.77.6,9.58.5,14.35s-1.09,9.26-.09,13.88c.2.94,1.65.54,1.45-.4h0Z"/>
    <path d="m162.86,96.28c-1.42-5.42-.1-11.05-.48-16.56-.07-.96-1.57-.96-1.5,0,.39,5.66-.93,11.39.53,16.96.24.93,1.69.54,1.45-.4h0Z"/>
    <path d="m102.08,93.35c.87-.42,1.15-1.44,1.46-2.27.36-.94.73-1.88,1.09-2.82.14-.37-.16-.84-.52-.92-.43-.1-.77.13-.92.52-.33.86-.66,1.71-.99,2.57-.08.2-.15.4-.23.6-.04.11-.08.21-.12.32-.02.04-.03.08-.05.13.03-.07.03-.07,0,.01-.07.14-.14.29-.24.42.09-.12-.08.07-.1.09.11-.1-.09.04-.12.06-.35.17-.48.7-.27,1.03.23.36.65.45,1.03.27h0Z"/>
    <path d="m45.41,105.25c.39,1.32.91,2.59,1.56,3.8.19.35.69.48,1.03.27.35-.23.47-.66.27-1.03-.15-.28-.29-.56-.43-.84-.07-.14-.13-.29-.2-.43-.04-.08-.07-.17-.11-.25.06.15-.03-.07-.04-.1-.24-.59-.45-1.2-.63-1.82-.11-.38-.53-.65-.92-.52s-.64.52-.52.92h0Z"/>
    <path d="m44.9,113.55c.63-.98,1.15-2.01,1.58-3.09.07-.17.01-.43-.08-.58s-.27-.3-.45-.34c-.19-.04-.41-.03-.58.08s-.27.26-.34.45c-.03.07-.05.13-.08.2.09-.19-.01.03-.03.07-.05.11-.1.23-.15.34-.11.24-.23.49-.36.72-.25.48-.52.94-.81,1.39-.21.33-.08.84.27,1.03.37.2.8.08,1.03-.27h0Z"/>
    <path d="m45.78,115.84c.29.77.64,1.54,1.24,2.13s1.44,1,2.29.93c.39-.03.77-.32.75-.75-.02-.38-.33-.78-.75-.75-.07,0-.15,0-.22,0-.03,0-.11,0-.13,0,.04.02.18.03.05,0-.07-.01-.15-.03-.22-.05-.04-.01-.07-.02-.11-.04-.07-.02-.14-.09.01,0-.13-.08-.27-.14-.39-.22-.02-.02-.13-.1-.03-.02s0,0-.03-.03c-.06-.05-.12-.11-.18-.17-.05-.06-.11-.11-.16-.17-.07-.09-.02-.03.01.02-.02-.03-.05-.06-.07-.09-.1-.13-.18-.27-.26-.42s-.15-.28-.21-.42c-.03-.06-.04-.17,0,0,0-.04-.03-.07-.04-.11-.03-.08-.06-.16-.09-.24-.07-.19-.17-.34-.34-.45-.16-.09-.4-.13-.58-.08-.36.12-.67.53-.52.92h0Z"/>
    <path d="m45.18,121.51c.61-.72,1.23-1.42,1.86-2.12.26-.29.31-.78,0-1.06-.29-.26-.78-.31-1.06,0-.63.7-1.25,1.4-1.86,2.12-.13.15-.22.32-.22.53,0,.18.08.4.22.53s.33.23.53.22c.19,0,.4-.07.53-.22h0Z"/>
    <path d="m51.45,92.11c.63.99.82,2.18,1.28,3.25.5,1.15,1.38,1.99,2.31,2.78.31.26.76.3,1.06,0,.27-.27.31-.8,0-1.06-.84-.71-1.66-1.44-2.08-2.48s-.64-2.25-1.28-3.24c-.22-.34-.67-.48-1.03-.27-.34.2-.49.68-.27,1.03h0Z"/>
    <path d="m49.75,100.93c1.27-1.2,2.22-2.69,2.8-4.33.13-.37-.15-.84-.52-.92-.42-.1-.78.13-.92.52-.06.18-.13.36-.2.53-.03.08.04-.09-.02.04-.02.04-.04.08-.05.12-.04.09-.09.18-.13.27-.17.35-.37.69-.58,1.02-.1.16-.21.32-.32.47-.03.04-.05.07-.08.11-.07.1.11-.13-.03.03-.06.07-.11.14-.17.21-.26.31-.54.6-.83.87s-.29.79,0,1.06c.31.28.76.29,1.06,0h0Z"/>
    <path d="m55.36,106.84c-.08-.07-.15-.13-.22-.21-.04-.04-.07-.08-.11-.12-.04-.05-.05-.07,0,0-.11-.17-.22-.33-.32-.51-.19-.36-.34-.74-.51-1.12-.39-.89-.9-1.69-1.51-2.44-.25-.3-.8-.28-1.06,0-.3.32-.27.74,0,1.06.04.05.08.1.12.15.08.1-.05-.07.03.03.07.09.14.19.21.28.13.19.26.39.38.59.23.39.42.79.6,1.2.33.78.68,1.58,1.34,2.14.3.25.77.31,1.06,0,.26-.28.32-.79,0-1.06h0Z"/>
    <path d="m49.44,113.06c.79-2.01,1.6-4.08,3.05-5.71.27-.3.3-.76,0-1.06-.27-.27-.79-.3-1.06,0-1.64,1.84-2.55,4.11-3.44,6.37-.15.38.16.82.52.92.43.12.77-.15.92-.52h0Z"/>
    <path d="m51.56,113.54c.08.48.32.92.6,1.31s.56.76.86,1.12c.59.71,1.28,1.31,2.16,1.63.37.13.84-.15.92-.52.1-.42-.13-.78-.52-.92,0,0-.17-.06-.06-.02s-.04-.02-.06-.03c-.08-.04-.16-.08-.24-.13-.09-.05-.17-.11-.25-.16-.04-.03-.15-.08,0,0-.04-.02-.07-.06-.11-.09-.29-.24-.55-.52-.79-.82-.06-.07-.12-.14-.18-.22-.01-.02-.11-.14-.04-.06s-.03-.04-.04-.06c-.12-.15-.23-.3-.34-.46-.12-.17-.23-.34-.33-.52-.01-.03-.06-.1-.06-.13l.03.07s-.02-.05-.03-.08c-.03-.1-.06-.2-.08-.31-.07-.39-.56-.64-.92-.52-.42.14-.6.51-.52.92h0Z"/>
    <path d="m59.88,109.95c.07-.32.17-.63.28-.94.03-.08.06-.17.1-.25-.07.14.02-.04.04-.09.07-.15.14-.3.22-.45.15-.29.33-.57.52-.83.04-.06.09-.14.14-.19-.04.04-.06.08,0,.01.02-.03.05-.06.07-.09.11-.14.23-.27.35-.4.27-.29.3-.78,0-1.06s-.77-.31-1.06,0c-1.03,1.09-1.77,2.45-2.11,3.91-.09.38.12.83.52.92.38.09.83-.12.92-.52h0Z"/>
    <path d="m60.6,101.61c.87,1.28,1.85,2.49,2.92,3.6.27.28.79.29,1.06,0s.29-.76,0-1.06c-.51-.53-.99-1.08-1.45-1.64-.11-.14-.23-.28-.34-.42-.04-.06-.04-.05,0,0-.03-.03-.05-.07-.08-.1-.06-.08-.11-.15-.17-.23-.22-.3-.44-.6-.64-.91-.22-.32-.67-.5-1.03-.27-.32.21-.51.68-.27,1.03h0Z"/>
    <path d="m61.02,111.85s.13.14.06.06.03.05.04.07c.03.04.05.08.07.13.04.07.05.1.01,0,.08.19.13.38.19.58.13.43.3.86.54,1.25.5.79,1.2,1.4,1.95,1.93.32.23.85.07,1.03-.27.2-.39.07-.78-.27-1.03-.09-.06-.17-.12-.25-.18-.11-.08.04.04-.02-.02-.04-.03-.08-.07-.12-.1-.15-.13-.3-.26-.44-.4s-.27-.29-.4-.44.05.07-.02-.02c-.03-.04-.06-.08-.09-.13-.06-.09-.11-.17-.16-.26-.05-.08-.09-.16-.13-.25-.03-.06-.05-.12-.01-.02-.02-.05-.04-.1-.05-.14-.06-.18-.12-.37-.17-.55-.15-.47-.34-.91-.69-1.27-.28-.28-.79-.3-1.06,0s-.29.76,0,1.06h0Z"/>
    <path d="m59.86,121.11c.53-.73.87-1.57,1.21-2.41.04-.09.08-.19.11-.28.02-.05.04-.09.06-.14.01-.04.07-.16.03-.06.08-.19.17-.39.26-.58s.19-.38.3-.56c.05-.09.1-.17.16-.25.03-.05.07-.1.1-.15.01-.02.11-.15.04-.06.24-.31.32-.76,0-1.06-.27-.25-.8-.33-1.06,0-.6.77-.99,1.63-1.36,2.53-.08.2-.16.39-.24.59-.05.12,0,0-.03.06-.02.05-.04.09-.06.14-.05.1-.09.21-.14.31-.19.4-.41.8-.67,1.16-.23.32-.06.85.27,1.03.39.21.78.07,1.03-.27h0Z"/>
    <path d="m60.85,120.88c.35.98.89,1.88,1.62,2.63.42.43.91.86,1.53.92.8.07,1.49-.68,1.29-1.47-.09-.38-.54-.65-.92-.52s-.62.51-.52.92c-.02-.06-.02-.12,0-.18.01-.07.01-.08,0-.02.05-.11.06-.14.03-.09-.03.05-.01.02.06-.07-.08.1.14-.08.02-.02.05-.02.16-.06.04-.02-.08.03.19-.01.05-.02.12.02.14.02.06,0h-.05c.1.03.12.04.07.02-.02-.01-.04-.02-.06-.03-.04-.02-.08-.05-.12-.08-.11-.08.08.07.02.01-.04-.03-.07-.06-.11-.1-.07-.06-.13-.12-.2-.18-.14-.13-.27-.27-.39-.41-.06-.07-.11-.14-.17-.21.13.14.03.03,0,0-.02-.03-.05-.07-.07-.1-.11-.15-.21-.31-.31-.48s-.17-.32-.25-.48c-.02-.04-.04-.09-.06-.13-.07-.16.06.16,0,0-.04-.09-.07-.18-.1-.28-.13-.37-.52-.65-.92-.52-.36.12-.66.53-.52.92h0Z"/>
    <path d="m64.57,120.91c1.17-.34,1.86-1.38,2.2-2.49.36-1.19.57-2.44.85-3.65.09-.39-.12-.81-.52-.92-.38-.1-.83.13-.92.52-.24,1.08-.46,2.18-.74,3.25-.11.45-.25.88-.51,1.27-.18.27-.46.49-.75.57-.39.11-.63.53-.52.92s.53.64.92.52h0Z"/>
    <path d="m66.49,122.36c.66,1.04,1.46,2,2.38,2.82.29.26.78.31,1.06,0,.26-.29.31-.78,0-1.06-.43-.38-.84-.8-1.21-1.24-.09-.11-.18-.22-.27-.33-.02-.02-.04-.05-.06-.07-.1-.13.07.1.02.02-.04-.06-.08-.11-.13-.17-.18-.24-.34-.48-.5-.74-.21-.33-.68-.49-1.03-.27s-.49.67-.27,1.03h0Z"/>
    <path d="m69.41,95.43c.14.14,0-.03.05.07.02.05.02.05,0,0l.02.08c.03.13.06.27.09.4.05.26.11.53.18.79.15.56.37,1.1.63,1.61.51,1.01,1.28,1.9,2.26,2.48.35.21.82.08,1.03-.27s.08-.82-.27-1.03c-.25-.15-.37-.23-.56-.39s-.36-.35-.52-.54c-.01-.01-.11-.14-.06-.06-.03-.04-.06-.08-.09-.13-.08-.11-.15-.22-.22-.33-.14-.23-.27-.46-.38-.71-.08-.17-.16-.36-.24-.61s-.15-.49-.21-.74c-.14-.6-.19-1.22-.65-1.68-.68-.69-1.74.37-1.06,1.06h0Z"/>
    <path d="m68.37,106.5c.7-.6.9-1.52,1.11-2.37.23-.96.56-1.75,1.09-2.59.21-.33.08-.84-.27-1.03-.37-.2-.8-.09-1.03.27-.53.84-.93,1.76-1.19,2.72-.1.39-.18.78-.3,1.16-.03.09-.06.18-.09.27.05-.12-.05.09-.07.13-.03.05-.06.1-.09.15-.06.1.07-.08,0,.01-.07.08-.14.15-.22.22-.31.26-.27.79,0,1.06.31.31.75.26,1.06,0h0Z"/>
    <path d="m69.44,107.97c.58,1.78,1.97,3.18,3.74,3.8.37.13.84-.15.92-.52.1-.42-.13-.78-.52-.92-.09-.03-.18-.07-.27-.1.2.07.04.02,0,0s-.09-.04-.13-.06c-.17-.08-.33-.17-.48-.27-.08-.05-.16-.11-.24-.16-.01,0-.1-.06-.1-.07.09.07.1.08.04.03l-.04-.03c-.15-.12-.29-.25-.43-.39s-.25-.27-.37-.42c-.04-.05.1.13,0,0-.02-.03-.05-.07-.07-.1-.06-.08-.11-.16-.16-.24-.1-.16-.19-.34-.28-.51,0-.02-.06-.13-.06-.13,0,0,.07.17,0,0-.04-.09-.07-.18-.1-.27-.12-.37-.52-.65-.92-.52-.37.12-.66.52-.52.92h0Z"/>
    <path d="m69.09,117c.04-.19.1-.38.16-.57,0-.02.07-.18.03-.09-.03.08.02-.05.03-.06.04-.09.08-.18.13-.27.19-.37.4-.71.62-1.07.43-.71.86-1.47,1-2.3.06-.39-.1-.83-.52-.92-.36-.08-.85.11-.92.52-.03.19-.08.38-.14.57-.02.05-.04.1-.05.15,0,.01-.05.14-.02.06.04-.09-.03.07-.04.09-.02.04-.04.08-.06.12-.18.37-.39.72-.61,1.07-.44.72-.88,1.46-1.06,2.29-.08.38.11.83.52.92.38.09.83-.11.92-.52h0Z"/>
    <path d="m70.26,118.48c.34.8.71,1.59,1.29,2.25s1.39,1.09,2.27,1.18c.39.04.77-.37.75-.75-.02-.44-.33-.71-.75-.75-.17-.02.18.04.01,0-.04,0-.08-.01-.11-.02-.08-.02-.15-.04-.22-.06-.02,0-.09-.05-.11-.04.1.04.12.05.07.03-.02,0-.04-.02-.06-.03-.07-.03-.14-.07-.21-.11s-.13-.09-.2-.13c-.14-.09.13.11,0,0-.03-.03-.06-.05-.09-.08-.12-.11-.24-.23-.35-.36-.01-.02-.11-.12-.03-.04s-.03-.03-.04-.05c-.05-.07-.1-.15-.15-.22-.1-.16-.2-.33-.28-.49-.18-.35-.33-.71-.49-1.06-.07-.16-.29-.3-.45-.34-.18-.05-.42-.03-.58.08s-.3.26-.34.45c-.05.21,0,.38.08.58h0Z"/>
    <path d="m70.48,128.91c.06-.25.13-.49.21-.74.04-.12.08-.24.12-.36.02-.06.04-.12.07-.18.01-.03.02-.05.03-.08.03-.08-.08.18-.02.04.1-.22.21-.44.35-.64.02-.03.04-.06.06-.08.06-.08-.03.04-.04.05.04-.04.08-.1.12-.14.09-.1.18-.19.28-.27.3-.25.28-.8,0-1.06-.32-.29-.74-.27-1.06,0-.91.77-1.27,1.96-1.56,3.07-.1.38.13.83.52.92s.82-.12.92-.52h0Z"/>
    <path d="m103.5,87.76c.1.69.19,1.38.29,2.07.09.63.19,1.26.44,1.85.5,1.19,1.52,1.93,2.57,2.62.34.22.83.07,1.03-.27.21-.37.07-.8-.27-1.03-.8-.53-1.68-1.1-2-2.05-.18-.53-.25-1.08-.33-1.63-.09-.65-.18-1.31-.27-1.96-.06-.4-.57-.62-.92-.52-.43.12-.58.52-.52.92h0Z"/>
    <path d="m100.77,100.08c2.14-.95,3.77-3.03,4.2-5.33.07-.38-.11-.83-.52-.92-.37-.08-.85.11-.92.52-.05.26-.11.52-.19.77-.04.13-.08.25-.13.37-.02.06-.04.11-.07.17.05-.13-.04.08-.04.08-.11.23-.22.45-.36.67-.07.11-.14.22-.22.33-.03.05-.07.1-.1.15-.02.03-.04.06-.06.09.04-.05.04-.05,0,0-.32.4-.69.77-1.09,1.09.08-.06-.01,0-.05.03-.05.04-.1.07-.15.1-.12.08-.24.16-.36.23-.23.14-.46.25-.7.36-.37.16-.46.7-.27,1.03.22.38.65.43,1.03.27h0Z"/>
    <path d="m103.68,96.14c.62,1.61,1.77,2.98,3.3,3.8.35.19.83.1,1.03-.27s.1-.83-.27-1.03c-.17-.09-.33-.19-.49-.29-.07-.05-.14-.1-.21-.15-.04-.03-.07-.05-.1-.08-.08-.05.12.09,0,0-.29-.23-.56-.49-.81-.77-.06-.06-.11-.13-.17-.2-.03-.03-.06-.06-.08-.1.09.16.02.03,0-.01-.11-.15-.21-.3-.3-.45s-.18-.31-.26-.48c-.04-.08-.08-.16-.11-.23-.01-.02-.02-.05-.03-.07-.02-.05-.01-.03.03.06-.03-.04-.04-.1-.06-.14-.14-.36-.51-.66-.92-.52-.36.11-.67.53-.52.92h0Z"/>
    <path d="m100.61,107.74c-.06.15.04-.05.06-.08.03-.04.02-.04-.02.03.03-.03.06-.06.09-.09.02-.02.17-.14.05-.05.05-.04.11-.08.16-.11.25-.16.53-.29.79-.42.61-.32,1.11-.73,1.48-1.32.16-.25.29-.52.41-.79.07-.17.14-.33.21-.5.01-.02.1-.23.07-.17s.06-.14.07-.16c.12-.27.25-.53.41-.77.02-.03.14-.18.04-.06.04-.05.08-.1.13-.15s.09-.09.14-.14c.07-.05.07-.06,0,0,.04-.03.07-.05.11-.08.34-.22.48-.66.27-1.03-.2-.34-.69-.49-1.03-.27-.6.4-1.01.97-1.31,1.61-.07.15-.14.31-.2.47-.04.09-.08.19-.12.28-.01.03-.08.2-.03.08-.13.29-.26.59-.42.86-.04.06-.07.11-.11.17-.05.07-.05.07,0,0-.03.03-.06.07-.09.1-.04.05-.09.1-.14.14-.02.02-.19.16-.13.11s-.13.08-.15.1c-.06.04-.12.07-.18.1-.14.08-.29.15-.44.23-.7.35-1.27.76-1.57,1.5-.15.38.17.82.52.92.43.12.77-.15.92-.52h0Z"/>
    <path d="m104.02,104.48l.98.92c.3.29.6.59.92.86.39.32.8.55,1.31.61.48.06.97-.11,1.31-.44.28-.27.3-.79,0-1.06s-.76-.29-1.06,0c-.08.08.01-.02.04-.02,0,0-.08.04-.08.05.01-.03.15-.05.04-.02-.02,0-.08,0-.1.02.03-.02.16,0,.05-.01-.04,0-.08,0-.13,0-.09,0,.14.04.05,0-.03-.01-.07-.02-.1-.03-.02,0-.12-.05-.03,0s-.02-.02-.04-.02c-.07-.04-.13-.08-.2-.12-.09-.05.09.08.01.01-.03-.03-.06-.05-.09-.07-.07-.06-.13-.12-.19-.18-.55-.51-1.09-1.03-1.64-1.55-.29-.27-.78-.3-1.06,0s-.3.77,0,1.06h0Z"/>
    <path d="m101.89,115.38c.94-.18,1.6-1.06,2.11-1.8s.89-1.58,1.13-2.44c.11-.38-.13-.83-.52-.92s-.81.12-.92.52c-.05.18-.11.36-.17.54-.04.1-.08.19-.11.29.02-.06.03-.08,0,0-.02.05-.04.1-.06.14-.16.35-.35.69-.56,1.01-.05.08-.11.16-.16.23-.02.03-.05.07-.07.1-.04.05-.08.1-.02.02-.11.14-.23.29-.36.42-.07.07-.14.14-.21.21-.02.02-.07.07-.09.08l.06-.05s-.05.03-.07.05c-.06.04-.15.12-.22.13.05,0,.11-.04.02-.01-.06.01-.11.03-.17.04-.39.07-.64.56-.52.92.13.41.51.6.92.52h0Z"/>
    <path d="m104.77,113.63c.52.91,1.53,1.37,2.5,1.65.55.16,1.18.24,1.73.04.58-.21,1.01-.6,1.22-1.18.14-.37-.15-.84-.52-.92-.43-.1-.78.13-.92.52.02-.05.04-.11,0-.02-.03.08-.02.03.02-.01-.02.03-.05.05-.08.08-.11.12.08-.04,0,0-.03.02-.06.04-.1.06-.02,0-.13.07-.04.03s-.03,0-.05.01c-.04.01-.07.02-.11.03-.02,0-.14.02-.05.01.1-.01-.1,0-.12,0-.05,0-.1,0-.15,0-.04,0-.11-.02-.03,0-.22-.04-.43-.1-.64-.17-.08-.03-.16-.05-.24-.08-.04-.01-.08-.03-.12-.04-.01,0-.14-.06-.06-.02s-.04-.02-.05-.03c-.04-.02-.08-.04-.11-.05-.08-.04-.17-.09-.25-.13-.07-.04-.14-.09-.21-.13s-.04-.04,0,0c-.03-.03-.06-.05-.09-.08-.04-.03-.07-.07-.11-.11-.01-.01-.1-.11-.04-.04s-.02-.03-.03-.05c-.03-.04-.05-.09-.08-.13-.19-.34-.69-.49-1.03-.27s-.48.66-.27,1.03h0Z"/>
    <path d="m110.96,100.83c.23-.55.54-1.07.9-1.54l-.12.15c.07-.09.15-.18.22-.27.13-.15.22-.32.22-.53,0-.18-.08-.4-.22-.53s-.33-.23-.53-.22c-.19,0-.4.07-.53.22-.51.6-.93,1.25-1.24,1.97-.05.09-.08.18-.09.28-.02.1-.02.2.01.3.05.17.18.36.34.45.17.09.38.14.58.08.17-.06.37-.17.45-.34h0Z"/>
    <path d="m111.07,100.54c.12,1.13.54,2.22,1.34,3.04s1.89,1.28,3,1.22c.39-.02.77-.33.75-.75-.02-.39-.33-.77-.75-.75-.12,0-.23,0-.35,0-.05,0-.1,0-.14-.01-.1,0,.14.03,0,0-.19-.04-.44-.07-.61-.18.15.09,0,0-.03-.02-.05-.03-.1-.05-.15-.08-.08-.05-.17-.1-.25-.15-.04-.03-.11-.06-.14-.1.11.13,0,0-.03-.03-.08-.07-.16-.14-.23-.22s-.15-.16-.22-.24c-.09-.11.04.06,0-.01-.03-.05-.07-.1-.1-.14-.12-.18-.21-.37-.31-.57-.04-.08.05.12,0-.01-.02-.06-.04-.11-.06-.17-.04-.1-.07-.21-.1-.31s-.05-.21-.07-.32c-.01-.06-.02-.12-.03-.17-.03-.16.02.14,0-.03-.04-.39-.31-.77-.75-.75-.37.02-.8.33-.75.75h0Z"/>
    <path d="m111,103.38c.01-.07.01-.06,0,.03-.01.05-.02.1-.04.15,0,.03-.09.28-.06.19-.07.17-.17.34-.26.49-.22.37-.47.73-.7,1.1-.5.77-1,1.54-1.5,2.31-.21.33-.08.84.27,1.03.37.2.8.08,1.03-.27.53-.82,1.06-1.64,1.6-2.46s1.07-1.59,1.17-2.57c.04-.39-.37-.77-.75-.75-.44.02-.71.33-.75.75h0Z"/>
    <path d="m111.31,108.37l.85.95c.27.3.52.61.81.88.3.29.67.57,1.09.65.54.11,1.03,0,1.45-.35.3-.25.28-.8,0-1.06-.32-.29-.74-.27-1.06,0,.03-.02.13-.09.04-.04-.13.07.12-.03.04-.01-.03,0-.06.01-.09.02-.08.03.15,0,.06-.01-.01,0-.1-.01-.11,0,.01-.01.18.04.06,0-.03,0-.06-.01-.09-.02-.02,0-.16-.06-.04,0,.11.04,0,0-.02-.02-.04-.02-.07-.04-.11-.07-.08-.05,0-.01.03.03-.02-.02-.06-.05-.08-.07-.12-.1-.23-.22-.33-.34-.48-.53-.96-1.07-1.44-1.6-.26-.29-.8-.29-1.06,0-.29.31-.28.75,0,1.06h0Z"/>
    <path d="m109.63,114.31c.71.26,1.48-.04,2.03-.5.24-.21.44-.47.63-.73.17-.24.34-.49.5-.73.11-.15.12-.4.08-.58s-.18-.36-.34-.45c-.38-.2-.79-.08-1.03.27-.2.29-.39.58-.6.86l.12-.15c-.15.19-.3.36-.49.51l.15-.12c-.11.08-.23.15-.36.21l.18-.08c-.12.05-.24.08-.36.1l.2-.03c-.1.01-.19.01-.29,0l.2.03c-.07-.01-.14-.03-.21-.06-.17-.06-.42-.01-.58.08s-.3.27-.34.45c-.04.19-.03.41.08.58s.26.27.45.34h0Z"/>
    <path d="m116.87,83.87c.93-.06,1.61-.83,2.15-1.52.5-.65.88-1.37,1.13-2.14.12-.37-.14-.84-.52-.92-.41-.09-.79.12-.92.52-.03.08-.05.16-.08.24-.01.03-.02.06-.04.1,0,.01-.07.17-.02.05s-.01.03-.02.05c-.02.04-.04.08-.05.12-.03.07-.07.14-.1.21-.15.29-.33.58-.53.84-.01.02-.09.11-.02.03.07-.09-.02.03-.04.04-.05.07-.11.13-.16.2-.11.12-.22.24-.33.35-.05.05-.11.11-.17.16-.03.03-.07.06-.1.08-.07.06.12-.08,0,0-.07.04-.16.08-.22.13.02-.02.13-.07.04-.02-.07.01-.06.02,0,0,.07,0,.07,0,0,0-.39.02-.77.33-.75.75.02.39.33.78.75.75h0Z"/>
    <path d="m119.16,83.57c-.07-.06-.09-.08-.05-.04.04.04.03.02-.04-.05,0,.02.04.07.05.09.09.14-.05-.15.01.02.01.04.03.08.04.13.08.25.18.49.28.73.17.4.37.78.61,1.14.26.39.56.77.88,1.11.39.4.81.78,1.4.79.39,0,.77-.35.75-.75s-.33-.74-.75-.75c-.14,0,.04.02.07.02.1.02-.03-.02-.06-.04-.12-.06.04.05-.01,0-.03-.04-.08-.07-.11-.1-.15-.14-.3-.3-.44-.45-.06-.07-.12-.15-.18-.22-.06-.07.07.09-.02-.02-.03-.04-.06-.08-.09-.13-.12-.17-.24-.35-.34-.53s-.19-.35-.28-.53c-.02-.05-.04-.1-.07-.14-.03-.06-.05-.12-.01-.02-.04-.1-.08-.2-.11-.29-.17-.49-.33-.92-.78-1.23-.32-.22-.85-.07-1.03.27-.2.38-.08.79.27,1.03h0Z"/>
    <path d="m117.4,91.11c1.21-1.02,2.2-2.32,2.86-3.76.16-.36.11-.82-.27-1.03-.33-.17-.85-.11-1.03.27-.31.69-.71,1.32-1.15,1.94-.06.09.08-.09,0,0-.03.04-.06.08-.09.12-.06.07-.11.14-.17.21-.12.15-.25.29-.38.42-.26.28-.54.54-.83.78s-.28.8,0,1.06c.32.29.74.27,1.06,0h0Z"/>
    <path d="m118.87,89.47c.56,1.44,1.62,2.67,3.02,3.34.35.17.83.11,1.03-.27.18-.33.11-.85-.27-1.03-.29-.14-.57-.31-.84-.5-.04-.03-.14-.13.01.01-.03-.03-.06-.05-.09-.07-.06-.05-.12-.1-.19-.16-.12-.11-.24-.22-.35-.34-.05-.05-.1-.11-.15-.16-.03-.03-.06-.07-.09-.1-.03-.04-.1-.16,0,.01-.09-.14-.19-.26-.28-.4s-.16-.27-.23-.4c-.04-.07-.07-.15-.11-.22-.03-.06-.05-.17,0,.02-.01-.04-.03-.08-.05-.12-.07-.19-.17-.34-.34-.45-.16-.09-.4-.13-.58-.08-.35.11-.68.53-.52.92h0Z"/>
    <path d="m117.48,98.95c1-.9,1.85-1.97,2.5-3.14.19-.34.09-.83-.27-1.03s-.82-.1-1.03.27c-.15.27-.31.54-.49.8-.09.13-.18.26-.27.38-.05.07-.1.14-.15.21-.06.08,0,0,.02-.03-.02.04-.05.07-.08.1-.4.49-.83.95-1.3,1.38-.29.26-.29.8,0,1.06.31.29.75.28,1.06,0h0Z"/>
    <path d="m118.71,99.22c-.05.97.42,1.93,1.11,2.59s1.62,1.08,2.54,1.36c.38.11.83-.14.92-.52s-.12-.8-.52-.92c-.19-.06-.39-.12-.58-.19-.04-.02-.09-.03-.13-.05-.15-.06,0-.02,0,0,0-.02-.25-.11-.27-.13-.17-.09-.34-.18-.5-.29-.05-.03-.09-.06-.14-.09-.02-.01-.14-.11-.06-.04s-.03-.03-.05-.04c-.04-.03-.08-.07-.12-.11-.06-.06-.12-.12-.18-.18-.04-.04-.07-.08-.1-.12-.09-.1.06.08,0,0-.1-.15-.2-.3-.28-.46-.01-.02-.02-.05-.03-.07-.02-.05-.01-.03.03.06-.02-.02-.04-.09-.04-.12-.03-.09-.06-.18-.08-.27,0-.04-.02-.08-.02-.13-.02-.09.01.16,0,.02,0-.1,0-.2,0-.31.02-.39-.36-.77-.75-.75-.42.02-.73.33-.75.75h0Z"/>
    <path d="m116.16,108.14c.33.08.63.03.93-.11.2-.1.38-.25.55-.39.11-.08-.1.07-.02.02.04-.03.08-.06.12-.08.08-.05.16-.09.24-.13.17-.08.35-.16.52-.25.75-.4,1.18-1.14,1.54-1.88.17-.35.11-.83-.27-1.03-.34-.18-.84-.11-1.03.27-.14.29-.28.58-.46.84-.03.04-.05.08-.08.12-.06.08,0-.02.03-.04-.06.05-.1.12-.16.18s-.12.1-.17.16c.11-.12.06-.05,0,0-.04.02-.07.04-.11.07-.29.17-.62.27-.9.46-.1.07-.2.15-.3.23-.11.09,0-.02.02-.02-.02,0-.08.06-.09.07-.03.02-.06.04-.1.06-.02.01-.14.08-.03.02s-.02-.01-.03,0l.12-.02c.13.02.15.03.07,0-.38-.09-.83.12-.92.52-.09.38.12.83.52.92h0Z"/>
    <path d="m118.86,108.11c1.2,1.52,3.21,2.2,5.09,1.89.39-.06.64-.57.52-.92-.14-.42-.51-.59-.92-.52-.08.01-.07.01,0,0-.05,0-.11.01-.16.02-.1,0-.2.01-.29.02-.19,0-.37-.02-.56-.02-.09,0,.12.02-.03,0-.04,0-.09-.01-.13-.02-.1-.02-.19-.04-.29-.06-.19-.05-.38-.11-.56-.18-.01,0-.14-.06-.06-.02s-.05-.02-.06-.03c-.09-.04-.18-.09-.26-.13-.17-.09-.34-.2-.5-.32-.05-.04-.06-.05,0,0-.04-.03-.08-.07-.13-.1-.07-.06-.13-.12-.19-.18-.15-.14-.29-.3-.42-.46-.24-.31-.81-.27-1.06,0-.3.33-.26.73,0,1.06h0Z"/>
    <path d="m117.35,114.45c1.22-.57,2.25-1.58,2.85-2.78.18-.35.1-.83-.27-1.03-.34-.18-.84-.11-1.03.27-.13.26-.29.52-.46.76-.02.03-.05.06-.07.1.13-.19.05-.06.02-.02-.04.05-.09.1-.13.15-.1.12-.21.23-.32.34s-.22.2-.33.3c-.03.02-.05.04-.08.06-.12.1.15-.11.02-.02-.06.04-.12.09-.18.13-.25.17-.51.32-.79.45-.16.08-.3.28-.34.45-.05.18-.03.42.08.58.24.37.64.45,1.03.27h0Z"/>
    <path d="m124.85,89.09c-.21,1.75.56,3.62,1.94,4.72.31.24.77.32,1.06,0,.25-.27.33-.8,0-1.06-.15-.12-.29-.25-.43-.38-.06-.06-.12-.12-.17-.19-.03-.04-.07-.08-.1-.12-.07-.08.06.09,0,0-.11-.16-.22-.31-.31-.48-.05-.08-.09-.17-.13-.25-.02-.04-.04-.08-.05-.12-.06-.13.02.06-.01-.03-.13-.35-.23-.71-.29-1.08.01.07,0,.09,0,0,0-.05-.01-.11-.01-.16,0-.08,0-.17-.01-.26,0-.2.01-.4.03-.61.05-.39-.38-.77-.75-.75-.45.02-.7.33-.75.75h0Z"/>
    <path d="m123.73,98.57c.79-1.4,1.61-2.79,2.46-4.15.21-.33.08-.84-.27-1.03-.37-.19-.8-.09-1.03.27-.85,1.36-1.67,2.75-2.46,4.15-.19.34-.09.83.27,1.03s.82.1,1.03-.27h0Z"/>
    <path d="m124.74,99.84c-.05.9.38,1.7.93,2.38.23.29.5.56.77.82.32.31.66.64,1.06.85.35.18.83.1,1.03-.27.18-.35.1-.83-.27-1.03-.09-.05-.17-.1-.25-.15-.07-.05-.04-.02.01.01-.04-.03-.08-.06-.11-.09-.13-.11-.26-.24-.38-.36-.25-.24-.49-.49-.72-.76-.02-.03-.05-.06-.07-.09-.06-.07.08.11,0,0-.05-.07-.09-.13-.14-.2s-.09-.14-.13-.21c-.03-.05-.13-.18-.12-.23,0,.03.05.14.02.04-.01-.04-.03-.08-.04-.12-.02-.07-.04-.15-.06-.22,0-.01-.03-.18-.01-.05s0-.04,0-.05c0-.09,0-.18,0-.26.02-.39-.36-.77-.75-.75-.43.02-.72.33-.75.75h0Z"/>
    <path d="m124.12,107.62c.77-.75,1.44-1.61,1.97-2.54.2-.34.09-.84-.27-1.03s-.82-.09-1.03.27c-.25.43-.52.83-.82,1.22l.12-.15c-.32.41-.66.8-1.04,1.16-.28.27-.3.79,0,1.06s.76.29,1.06,0h0Z"/>
    <path d="m124.64,110.1c.24.48.62.87,1.06,1.18s.97.47,1.5.53c.18.02.41-.1.53-.22.13-.13.23-.34.22-.53s-.07-.4-.22-.53l-.15-.12c-.12-.07-.24-.1-.38-.1-.02,0-.04,0-.06,0l.2.03c-.21-.03-.41-.09-.6-.16l.18.08c-.2-.09-.39-.2-.56-.33l.15.12c-.16-.13-.31-.27-.44-.44l.12.15c-.1-.13-.18-.26-.26-.41-.08-.16-.28-.3-.45-.34-.18-.05-.42-.03-.58.08-.36.23-.46.65-.27,1.03h0Z"/>
    <path d="m128.44,83.27c.68-1.48,1.16-3.04,1.39-4.66.05-.39-.09-.82-.52-.92-.35-.08-.86.11-.92.52-.11.76-.27,1.51-.48,2.25-.11.37-.23.73-.36,1.09-.07.18-.14.36-.21.54-.05.12,0,0-.05.12-.04.1-.09.2-.13.3-.16.36-.11.82.27,1.03.33.17.85.11,1.03-.27h0Z"/>
    <path d="m128.69,82.49c.26,1.7,1.56,3.13,3.17,3.68.37.13.84-.15.92-.52.09-.42-.13-.79-.52-.92-.04-.01-.09-.03-.13-.05-.08-.03-.12-.09.01,0-.06-.05-.16-.07-.23-.11-.16-.08-.3-.17-.45-.27-.03-.02-.06-.04-.09-.07-.06-.04.14.11,0,0-.06-.05-.13-.11-.19-.16-.13-.12-.25-.25-.36-.38-.02-.02-.04-.07-.07-.09.07.09.08.11.05.06-.01-.02-.03-.04-.04-.06-.05-.07-.1-.14-.14-.21-.09-.15-.18-.3-.25-.46l-.02-.04c-.03-.07-.03-.06.02.05,0-.04-.03-.07-.04-.11-.03-.08-.06-.16-.08-.24-.05-.17-.09-.35-.12-.53s-.2-.36-.34-.45c-.16-.09-.4-.13-.58-.08-.42.14-.59.51-.52.92h0Z"/>
    <path d="m127.81,91.44c1.11-.64,2.05-1.61,2.65-2.75.18-.35.1-.83-.27-1.03-.35-.18-.83-.1-1.03.27-.13.25-.28.49-.44.73-.04.05-.2.25-.04.05-.04.05-.08.1-.12.15-.09.11-.19.22-.29.32-.19.2-.4.38-.61.56-.12.09.15-.11.03-.02-.03.02-.05.04-.08.06-.06.04-.12.08-.18.12-.12.08-.24.16-.37.23-.34.2-.49.69-.27,1.03s.66.48,1.03.27h0Z"/>
    <path d="m129.49,95.45c.07.16.16.32.27.47.14.19.29.38.46.54s.36.31.56.44.42.22.64.31c.17.07.43.01.58-.08s.3-.27.34-.45c.04-.19.03-.41-.08-.58l-.12-.15c-.09-.09-.2-.16-.33-.19-.02,0-.04-.02-.06-.03l.18.08c-.21-.09-.42-.21-.6-.35l.15.12c-.18-.14-.35-.31-.49-.49l.12.15c-.13-.17-.24-.35-.32-.54-.07-.16-.28-.3-.45-.34-.18-.05-.42-.03-.58.08s-.3.26-.34.45l-.03.2c0,.14.03.26.1.38h0Z"/>
    <path d="m129.19,101.39c.92-1.07,2.19-1.76,3.1-2.84.52-.62.85-1.3,1.14-2.04.32-.82.61-1.64.91-2.46.14-.38-.16-.82-.52-.92-.42-.11-.78.14-.92.52-.28.77-.56,1.53-.85,2.29-.23.62-.51,1.22-.96,1.71-.9.99-2.08,1.67-2.96,2.68-.26.31-.3.76,0,1.06.27.27.79.31,1.06,0h0Z"/>
    <path d="m129.34,103.5c.82,1.74,1.85,3.6,3.84,4.16.38.11.83-.13.92-.52s-.12-.81-.52-.92c-.1-.03-.19-.06-.28-.09-.18-.06.08.04-.01,0-.04-.02-.09-.04-.13-.06-.18-.09-.34-.2-.51-.31-.12-.08.05.05-.02-.01-.04-.03-.08-.06-.12-.1-.08-.07-.15-.13-.22-.2-.14-.14-.28-.29-.4-.45-.05-.05-.04-.05,0,0-.04-.05-.08-.11-.12-.16-.06-.09-.13-.19-.19-.28-.12-.18-.22-.37-.33-.55-.22-.41-.42-.83-.62-1.24-.17-.36-.71-.48-1.03-.27-.37.24-.45.65-.27,1.03h0Z"/>
    <path d="m132.04,106.62c1.16-.85,2.13-1.93,2.8-3.2.18-.35.1-.83-.27-1.03-.35-.18-.83-.1-1.03.27-.15.28-.31.55-.49.82-.09.13-.18.25-.27.38-.1.13.07-.09.01-.02-.03.03-.05.06-.08.1-.05.06-.1.13-.16.19-.2.23-.42.46-.64.67-.12.11-.24.22-.37.32-.06.05-.11.09-.17.14-.07.06.13-.09.02-.01-.04.03-.08.06-.12.09-.16.12-.29.25-.34.45-.05.18-.03.42.08.58.2.31.69.52,1.03.27h0Z"/>
    <path d="m133.4,97.37c-.55,1.5.85,2.9,1.93,3.73.57.44,1.19.8,1.87,1.05.32.12.66.2,1,.25.51.07.91-.09,1.22-.5.24-.31.06-.85-.27-1.03-.4-.21-.77-.07-1.03.27.08-.14.18-.22.31-.22.06,0,.06,0-.02,0-.09,0-.05,0,.02,0-.14-.02-.27-.05-.41-.09-.12-.03-.24-.07-.36-.11-.06-.02-.12-.04-.18-.07-.22-.09.12.06-.1-.04-.23-.11-.45-.23-.67-.36-.11-.07-.21-.14-.32-.21-.06-.04-.12-.09-.19-.14.08.06-.03-.03-.06-.05-.2-.16-.39-.33-.57-.51-.1-.1-.2-.2-.29-.3-.04-.05-.08-.1-.12-.15-.09-.11.09.14-.05-.06-.07-.11-.14-.21-.2-.33,0,0-.09-.18-.06-.11.03.07-.03-.1-.04-.12-.02-.07-.04-.14-.05-.21.02.11,0,0,0-.05,0-.04.03-.17,0-.05.02-.07.04-.14.06-.21.14-.37-.15-.84-.52-.92-.42-.1-.78.13-.92.52h0Z"/>
    <path d="m133.02,88.74c.78,1.37,1.91,2.52,3.25,3.35.33.21.84.08,1.03-.27s.09-.81-.27-1.03c-.15-.09-.3-.19-.44-.29-.08-.05-.15-.11-.22-.16-.11-.08.08.07.01,0-.03-.03-.07-.05-.1-.08-.27-.22-.53-.46-.78-.71-.12-.12-.23-.25-.34-.37-.06-.07-.12-.14-.18-.21-.02-.03-.06-.06-.08-.1.08.15.04.06,0,.01-.22-.29-.41-.59-.59-.91-.2-.34-.69-.49-1.03-.27s-.48.66-.27,1.03h0Z"/>
    <path d="m131.12,89.2c1.12-1.25,2.06-2.65,2.77-4.18.16-.36.11-.82-.27-1.03-.33-.17-.85-.11-1.03.27-.33.72-.72,1.42-1.15,2.08-.21.33-.44.65-.68.96.05-.06.02-.02-.01.02s-.06.07-.09.11c-.06.07-.12.15-.18.22-.14.16-.28.33-.42.48-.26.29-.31.78,0,1.06.29.26.78.31,1.06,0h0Z"/>
    <path d="m130.21,78.49c1.81-.62,3.24-2.05,3.84-3.87.12-.37-.14-.84-.52-.92-.41-.09-.79.13-.92.52-.03.09-.07.19-.1.28-.06.16.07-.16,0,0-.02.04-.04.09-.06.13-.08.18-.18.35-.28.52-.05.08-.11.17-.16.25-.03.04-.06.08-.09.12-.08.11.07-.09.01-.02-.13.15-.25.3-.39.44s-.27.26-.42.38c-.04.03-.17.11,0,0-.04.03-.08.06-.12.09-.08.06-.16.11-.25.17-.17.11-.34.2-.52.29-.04.02-.09.04-.13.06-.12.06.11-.04.02,0-.1.04-.2.08-.3.11-.37.13-.65.52-.52.92.12.37.53.66.92.52h0Z"/>
    <path d="m132.94,78.76l2.74,3.77c.23.32.66.5,1.03.27.31-.2.52-.69.27-1.03l-2.74-3.77c-.23-.32-.66-.5-1.03-.27-.31.2-.52.69-.27,1.03h0Z"/>
    <path d="m130.08,78.57c1.55-1.13,2.89-2.5,3.96-4.09.22-.33.07-.85-.27-1.03-.38-.2-.79-.08-1.03.27-.12.18-.25.36-.38.54-.03.04-.07.09-.1.13-.02.02-.11.14-.02.03-.07.09-.14.17-.21.26-.27.33-.56.65-.85.96s-.61.6-.93.89c-.17.14-.33.29-.51.42-.03.03-.07.05-.1.08-.17.13.07-.05-.03.02s-.19.15-.29.22c-.32.23-.5.66-.27,1.03.2.31.69.52,1.03.27h0Z"/>
    <path d="m130.81,68.28c1.36-2.09,2.75-4.29,3.14-6.8.06-.4-.1-.81-.52-.92-.36-.1-.86.12-.92.52-.37,2.4-1.69,4.45-2.99,6.44-.53.81.77,1.56,1.3.76h0Z"/>
    <path d="m133.05,67.29c.53,1.8,1.2,3.75,2.95,4.71.34.19.83.1,1.03-.27s.1-.82-.27-1.03c-.08-.04-.16-.09-.23-.14-.05-.03-.09-.07-.14-.09-.1-.06.08.07,0,0-.15-.12-.29-.25-.42-.39-.06-.07-.12-.13-.18-.2-.04-.05-.05-.07,0,0-.03-.05-.07-.09-.1-.14-.11-.16-.21-.32-.31-.49s-.18-.36-.27-.54l-.03-.07s.02.05,0,0c-.02-.05-.04-.1-.06-.14-.04-.1-.07-.19-.11-.29-.15-.43-.28-.86-.41-1.3-.11-.38-.53-.65-.92-.52s-.64.52-.52.92h0Z"/>
    <path d="m135.93,97.31c.03-.08.05-.16.08-.24.01-.03.04-.07.04-.11-.04.1-.05.13-.03.07,0-.02.02-.04.03-.06.07-.15.14-.29.22-.43s.16-.27.26-.4c.03-.04.05-.07.08-.11.08-.11-.08.1-.02.03.05-.06.11-.13.16-.19.1-.12.22-.24.33-.35.06-.06.12-.11.19-.17.05-.04.14-.09.18-.15-.09.07-.11.08-.06.05.02-.01.04-.03.05-.04.03-.02.06-.04.09-.07.07-.05.14-.09.21-.14.14-.09.29-.17.44-.24.35-.18.48-.7.27-1.03-.23-.36-.65-.46-1.03-.27-1.39.7-2.44,1.97-2.93,3.44-.12.37.14.84.52.92.41.09.79-.12.92-.52h0Z"/>
    <path d="m137.11,85.73c.38.68.78,1.36,1.32,1.93.57.61,1.33,1.06,2.15,1.24.38.09.83-.12.92-.52.09-.38-.11-.83-.52-.92-.17-.04-.33-.09-.49-.15s.15.07-.01,0c-.04-.02-.08-.04-.12-.05-.08-.04-.15-.08-.22-.12s-.15-.09-.22-.14c-.03-.02-.08-.04-.1-.08.1.12.06.05.02,0-.13-.11-.26-.23-.38-.36-.06-.06-.11-.12-.16-.19-.03-.03-.05-.06-.08-.1-.06-.07.09.13.01.01-.1-.14-.19-.27-.28-.41-.19-.3-.36-.6-.54-.91-.19-.34-.69-.49-1.03-.27s-.48.66-.27,1.03h0Z"/>
    <path d="m135.72,78.29c.86-.78,1.59-1.72,2.11-2.76.18-.35.1-.83-.27-1.03-.34-.18-.84-.1-1.03.27-.25.49-.54.94-.86,1.38-.06.08.1-.12.04-.05-.02.03-.05.06-.07.09-.04.05-.08.1-.13.15-.09.1-.17.2-.27.3-.19.2-.38.39-.59.58-.29.26-.29.8,0,1.06.31.29.75.28,1.06,0h0Z"/>
    <path d="m136.78,68.82c.71,1.11,1.56,2.14,2.51,3.05.28.27.78.3,1.06,0s.3-.77,0-1.06c-.45-.43-.87-.88-1.27-1.36-.09-.11-.18-.23-.28-.34-.06-.07.09.12,0,0-.02-.03-.04-.05-.06-.08-.05-.06-.09-.12-.14-.19-.19-.26-.37-.52-.54-.79-.21-.33-.68-.49-1.03-.27-.33.21-.5.67-.27,1.03h0Z"/>
    <path d="m136.05,54.94c.18,2.35,1.3,4.6,3.15,6.08.32.25.75.31,1.06,0,.26-.26.32-.81,0-1.06-.81-.65-1.42-1.38-1.9-2.28-.44-.82-.74-1.84-.81-2.74-.03-.4-.32-.75-.75-.75-.38,0-.78.34-.75.75h0Z"/>
    <path d="m139.38,68.36c.79-.66,1.3-1.57,1.73-2.48.5-1.05.98-2.1,1.47-3.15.17-.37.1-.81-.27-1.03-.32-.19-.85-.1-1.03.27-.48,1.02-.95,2.05-1.43,3.07-.41.86-.82,1.66-1.54,2.26-.31.26-.27.79,0,1.06.31.31.75.26,1.06,0h0Z"/>
    <path d="m141.65,57.5l.07.04s-.04-.03,0,0c.08.07-.06-.11.05.06.06.1.12.21.17.32.06.13-.06-.16.03.08.02.05.04.1.06.15.05.13.1.26.15.39.19.5.37,1,.57,1.49.43,1.03.95,2.03,1.8,2.77.31.27.76.3,1.06,0,.27-.27.31-.79,0-1.06-.42-.37-.66-.66-.93-1.14s-.46-.91-.64-1.36c-.19-.5-.37-1-.57-1.49-.24-.6-.47-1.22-1.07-1.55-.35-.2-.82-.08-1.03.27s-.08.83.27,1.03h0Z"/>
    <path d="m141.56,75.87c.49.77.96,1.56,1.49,2.3s1.19,1.39,2.15,1.44c.39.02.77-.36.75-.75-.02-.42-.33-.73-.75-.75-.02,0-.18-.01-.04,0,.13.01,0,0-.04-.01-.04,0-.07-.02-.11-.03-.08-.02.16.09.03.01-.07-.04-.14-.08-.2-.12-.08-.05.01,0,.04.03-.03-.03-.08-.06-.11-.09-.12-.11-.22-.22-.32-.35-.07-.09-.05-.02,0,.01-.03-.02-.06-.07-.07-.1-.05-.07-.1-.14-.14-.21-.47-.71-.92-1.43-1.38-2.14-.21-.33-.68-.5-1.03-.27-.33.21-.5.67-.27,1.03h0Z"/>
    <path d="m141.97,91.6c1.07,1.44,2.54,2.5,4.25,3.02.38.11.83-.14.92-.52s-.12-.8-.52-.92c-.18-.06-.37-.12-.55-.19-.05-.02-.09-.04-.14-.06.06.02.09.04.01,0-.08-.04-.17-.07-.25-.11-.35-.17-.68-.36-.99-.58-.07-.05-.15-.11-.22-.16-.06-.05-.04-.03,0,0-.04-.03-.08-.06-.12-.1-.15-.12-.29-.25-.43-.38-.13-.13-.26-.26-.38-.39-.07-.08-.13-.15-.2-.23-.03-.03-.05-.06-.08-.09.11.14-.02-.02-.03-.04-.23-.31-.66-.51-1.03-.27-.31.2-.52.69-.27,1.03h0Z"/>
    <path d="m140.61,99.41l2.38-2.82c.13-.16.22-.32.22-.53,0-.18-.08-.4-.22-.53-.28-.26-.79-.32-1.06,0l-2.38,2.82c-.13.16-.22.32-.22.53,0,.18.08.4.22.53.28.26.79.32,1.06,0h0Z"/>
    <path d="m140.31,85.18c.58-.48.98-1.14,1.34-1.79.17-.31.34-.62.53-.92.09-.14.19-.28.29-.42s-.11.13,0,0c.03-.03.05-.07.08-.1.06-.07.13-.14.19-.2.28-.28.3-.79,0-1.06s-.76-.3-1.06,0c-.54.54-.91,1.2-1.28,1.86-.17.31-.34.61-.54.9-.04.06-.09.16-.15.21.12-.09.05-.06,0-.01-.03.03-.05.06-.08.1-.12.14-.25.27-.4.39-.3.25-.28.8,0,1.06.32.29.74.27,1.06,0h0Z"/>
    <path d="m154.13,78.26c-.04.09.02-.03.03-.06.03-.06.06-.11.08-.17.05-.1.11-.2.17-.3.12-.2.24-.36.33-.46.31-.37.69-.68,1.06-.99.39-.33.76-.68,1.06-1.1.32-.45.51-.99.71-1.51.14-.37-.15-.84-.52-.92-.43-.1-.78.13-.92.52-.15.41-.32.86-.59,1.19-.09.11-.31.33-.47.47-.18.16-.37.32-.56.47-.81.68-1.41,1.48-1.82,2.45-.15.36.16.84.52.92.44.1.76-.14.92-.52h0Z"/>
    <path d="m155.63,68.89c.48,1.69,1.49,3.25,2.87,4.34.31.24.77.32,1.06,0,.25-.27.33-.8,0-1.06s-.61-.52-.88-.81c-.13-.14-.25-.29-.38-.44-.06-.07.06.09-.02-.03-.03-.03-.05-.07-.08-.1-.06-.09-.12-.18-.18-.26-.21-.32-.41-.66-.57-1.01-.02-.05-.05-.1-.07-.15-.01-.03-.07-.17-.01-.03-.04-.09-.07-.18-.11-.27-.07-.19-.13-.39-.19-.58-.11-.38-.53-.65-.92-.52s-.64.52-.52.92h0Z"/>
    <path d="m156.34,79.27c.44.73.86,1.52,1.48,2.13.34.33.73.58,1.16.76s.94.21,1.42.13c.39-.06.64-.57.52-.92-.14-.42-.51-.59-.92-.52.08-.01.13-.01.02,0-.04,0-.09,0-.13,0-.03,0-.07,0-.1,0-.17,0,.11.03.02,0-.08-.02-.15-.03-.23-.06-.04-.01-.08-.03-.12-.04-.09-.03.13.07,0,0-.07-.04-.14-.07-.21-.11-.04-.02-.08-.05-.11-.07-.02-.01-.14-.11-.05-.03s-.04-.03-.05-.04c-.03-.02-.05-.05-.08-.07-.07-.06-.13-.13-.2-.2-.06-.06-.11-.12-.16-.19-.01-.01-.02-.03-.03-.04-.03-.04-.02-.03.03.04-.02,0-.06-.08-.07-.09-.1-.14-.2-.29-.29-.44-.21-.33-.4-.66-.6-.99s-.68-.49-1.03-.27-.49.67-.27,1.03h0Z"/>
    <path d="m154.29,88.21c.59-.46,1.19-.92,1.78-1.39.54-.42,1.03-.92,1.23-1.6.11-.38-.13-.83-.52-.92s-.81.12-.92.52c0,.03-.02.07-.03.1-.02.08.08-.17.02-.04-.03.06-.06.11-.09.17-.02.03-.04.06-.06.09-.07.11.09-.1.03-.03-.04.05-.08.1-.13.15-.2.21-.42.39-.65.56-.57.44-1.14.89-1.71,1.33-.14.11-.22.36-.22.53,0,.18.08.4.22.53s.33.23.53.22c.21,0,.36-.09.53-.22h0Z"/>
    <path d="m156.19,90.97c.63,1.36,2.37,2.09,3.79,1.63.37-.12.65-.53.52-.92-.12-.37-.52-.65-.92-.52-.06.02-.13.04-.19.05-.04,0-.08.02-.12.02-.13.02.16-.02.06,0-.14.01-.28.02-.42,0-.03,0-.05,0-.08,0-.15-.01.19.04.04,0-.07-.01-.13-.02-.19-.04s-.13-.03-.19-.06c-.04-.01-.08-.03-.11-.04-.12-.04.13.06.05.02-.12-.06-.24-.12-.35-.19-.03-.02-.06-.04-.08-.06-.06-.04-.11-.12.02.02-.05-.05-.1-.09-.15-.13s-.09-.09-.14-.14c-.02-.02-.04-.05-.06-.08-.06-.07.1.15.03.04-.08-.12-.16-.24-.22-.38-.17-.36-.71-.47-1.03-.27-.37.24-.45.64-.27,1.03h0Z"/>
    <path d="m153.78,97.46c1.34-.27,2.61-.99,3.53-2,.26-.29.31-.78,0-1.06-.29-.26-.78-.31-1.06,0-.2.22-.42.43-.66.62-.02.01-.11.09-.03.02.09-.07-.04.03-.05.03-.06.04-.11.08-.17.12-.13.09-.26.17-.4.25-.13.07-.26.14-.39.2-.03.01-.06.03-.09.04-.05.02-.15.03.01,0-.06.02-.13.05-.19.08-.29.11-.59.19-.9.25-.39.08-.64.56-.52.92.13.41.51.61.92.52h0Z"/>
    <path d="m160.21,89.97c1.03-1.06,1.78-2.37,2.18-3.79.11-.38-.13-.83-.52-.92s-.81.12-.92.52c-.04.16-.09.31-.14.47-.05.14-.09.33-.17.46.03-.04.05-.1,0-.02-.02.04-.03.07-.05.11-.04.08-.07.16-.11.23-.07.15-.15.29-.23.43-.16.27-.33.54-.52.79-.03.04-.08.15,0,0-.02.03-.05.06-.07.09-.05.06-.1.12-.15.18-.11.13-.23.26-.35.38-.27.28-.3.78,0,1.06s.77.3,1.06,0h0Z"/>
    <path d="m160.91,79.74c-.16,1.8.66,3.69,2.08,4.79.31.24.76.32,1.06,0,.25-.27.33-.8,0-1.06-.31-.24-.59-.51-.83-.82.04.06.04.05,0,0-.03-.04-.06-.09-.09-.13-.05-.08-.11-.16-.16-.25-.1-.17-.18-.34-.27-.52.03.06.03.07,0,0-.02-.04-.03-.08-.05-.12-.03-.09-.06-.18-.09-.28-.06-.19-.1-.37-.14-.57,0-.05-.02-.11-.03-.16.01.07,0,.09,0,0,0-.1-.02-.19-.02-.29,0-.21,0-.41.02-.61.03-.39-.37-.77-.75-.75-.44.02-.71.33-.75.75h0Z"/>
    <path d="m161.34,88.82c-.15-.11,0,0,.02.03.03.03.06.07.09.1.04.04.12.09,0,0,.03.02.06.08.08.11.11.16.2.34.29.51.18.36.38.7.62,1.02.54.72,1.19,1.33,1.97,1.79.34.2.84.09,1.03-.27s.09-.81-.27-1.03c-.17-.1-.34-.21-.5-.33-.07-.05-.09-.04,0,0-.04-.02-.1-.08-.13-.11-.07-.06-.15-.12-.22-.19-.15-.14-.29-.28-.42-.43-.06-.07-.12-.15-.18-.22s.08.11,0,0c-.03-.05-.07-.09-.1-.14-.22-.32-.39-.67-.57-1.01-.24-.44-.53-.81-.93-1.11-.31-.24-.85-.06-1.03.27-.21.4-.07.77.27,1.03h0Z"/>
    <path d="m160.04,96.06c.61-.25,1.16-.58,1.65-1.03.44-.4.81-.9,1.08-1.43.09-.18.13-.38.08-.58-.05-.17-.18-.36-.34-.45-.34-.18-.84-.11-1.03.27-.13.26-.28.51-.46.74l.12-.15c-.23.29-.49.56-.79.79l.15-.12c-.3.23-.62.42-.96.56l.18-.08s-.04.02-.06.03c-.19.08-.34.16-.45.34-.09.16-.13.4-.08.58s.17.36.34.45.4.15.58.08h0Z"/>
    <path d="m68.35,73.32c1.06-.25,2.14-.54,3.06-1.13.98-.62,1.65-1.54,2.3-2.49l-1.4-.38c-.19,2.65,1.51,5.15,3.96,6.1.38.15.82-.16.92-.52.12-.42-.14-.78-.52-.92-1.85-.72-2.99-2.71-2.85-4.65.06-.8-1.01-.94-1.4-.38-.52.77-1.06,1.54-1.88,2.02s-1.7.7-2.59.9c-.94.22-.54,1.66.4,1.45h0Z"/>
    <path d="m79.27,81.93c1.39.23,2.78-.03,3.93-.85,1.07-.76,1.85-1.81,2.62-2.85l-1.37-.18c.08.36-.11.74-.18,1.09-.07.38-.1.77,0,1.15.2.71.8,1.36,1.29,1.9,1.01,1.1,2.7,1.91,4.01.79.73-.63-.33-1.69-1.06-1.06-.34.29-.91.01-1.22-.19-.41-.27-.74-.67-1.05-1.05-.33-.41-.62-.75-.5-1.29.13-.6.29-1.12.15-1.73-.16-.69-1.02-.66-1.37-.18-1.17,1.6-2.64,3.39-4.86,3.02-.4-.07-.81.11-.92.52-.1.36.12.86.52.92h0Z"/>
    <path d="m78.85,64.17c2.42.07,4.78-.88,6.5-2.58l-1.28-.53c-.12,1.56.48,3.13,1.55,4.27.86.91,3.01,2.32,3.94.75.49-.83-.8-1.59-1.3-.76.1-.16.17.02-.05-.06-.07-.02-.14-.04-.21-.06-.23-.09-.45-.22-.66-.36-.39-.26-.73-.6-1-.98-.59-.82-.86-1.79-.78-2.8.05-.67-.85-.96-1.28-.53-1.44,1.44-3.4,2.2-5.44,2.14-.97-.03-.96,1.47,0,1.5h0Z"/>
  </g>
  <g id="Layer_6" data-name="Layer 6">
    <text class="cls-4" transform="translate(191.23 141.17) rotate(-76.3) scale(.91 1.1)"><tspan x="0" y="0">y</tspan></text>
    <text class="cls-4" transform="translate(181.23 161.5) rotate(-62.18) scale(.91 1.1)"><tspan x="0" y="0">n</tspan></text>
    <text class="cls-4" transform="translate(165.22 179.76) rotate(-47.07) scale(.91 1.1)"><tspan x="0" y="0">a</tspan></text>
    <text class="cls-4" transform="translate(149.03 190.7) rotate(-33.26) scale(.91 1.1)"><tspan x="0" y="0">p</tspan></text>
    <text class="cls-4" transform="translate(126.3 199.52) rotate(-19.25) scale(.91 1.1)"><tspan x="0" y="0">m</tspan></text>
    <text class="cls-4" transform="translate(103.72 201.66) rotate(-4.18) scale(.91 1.1)"><tspan x="0" y="0">o</tspan></text>
    <text class="cls-4" transform="translate(83.57 198.81) rotate(9.18) scale(.91 1.1)"><tspan x="0" y="0">c</tspan></text>
    <text class="cls-4" transform="translate(68.03 193.14) rotate(20.76) scale(.91 1.1)"><tspan x="0" y="0"> </tspan></text>
    <text class="cls-4" transform="translate(49.21 181.69) rotate(33.16) scale(.91 1.1)"><tspan x="0" y="0">r</tspan></text>
    <text class="cls-4" transform="translate(34.12 166.11) rotate(47.22) scale(.91 1.1)"><tspan x="0" y="0">e</tspan></text>
    <text class="cls-4" transform="translate(23.19 147.45) rotate(61.05) scale(.91 1.1)"><tspan x="0" y="0">e</tspan></text>
    <text class="cls-4" transform="translate(17.11 126.87) rotate(74.97) scale(.91 1.1)"><tspan x="0" y="0">b</tspan></text>
  </g>
  <g id="Layer_8" data-name="Layer 8">
    <polygon class="cls-2" points="197.2 112.41 191.24 109.34 185.33 112.5 186.41 105.89 181.57 101.25 188.2 100.23 191.12 94.2 194.13 100.18 200.77 101.09 196.01 105.81 197.2 112.41"/>
    <polygon class="cls-2" points="28.43 112.41 22.47 109.34 16.56 112.5 17.64 105.89 12.8 101.25 19.43 100.23 22.35 94.2 25.36 100.18 32 101.09 27.24 105.81 28.43 112.41"/>
  </g>
</svg>