<svg xmlns="http://www.w3.org/2000/svg" id="canvas" viewBox="330.624 384.983 1126.462 184.050"><path d="M 390.40,444.25 C 390.12 442.55, 389.06 440.25, 386.61 438.17 C 384.16 436.09, 381.99 434.41, 378.13 433.85 C 374.27 433.29, 371.72 433.29, 367.32 435.37 C 362.92 437.46, 360.53 439.57, 356.12 444.28 C 351.71 448.98, 349.13 452.61, 345.28 458.89 C 341.43 465.17, 339.19 469.11, 336.86 475.67 C 334.54 482.23, 333.48 485.85, 333.64 491.70 C 333.80 497.55, 334.69 500.75, 337.67 504.94 C 340.65 509.13, 343.14 510.57, 348.56 512.66 C 353.98 514.75, 357.78 515.22, 364.77 515.39 C 371.76 515.57, 376.23 515.21, 383.51 513.54 C 390.80 511.87, 394.83 510.18, 401.21 507.05 C 407.59 503.93, 410.69 501.83, 415.42 497.93 C 420.14 494.02, 422.37 491.96, 424.83 487.54 C 427.29 483.11, 427.85 480.44, 427.71 475.80 C 427.57 471.16, 426.39 468.43, 424.12 464.33 C 421.85 460.23, 419.91 458.40, 416.35 455.29 C 412.79 452.17, 410.38 450.87, 406.32 448.75 C 402.27 446.62, 399.74 445.66, 396.06 444.67 C 392.38 443.68, 390.59 443.62, 387.92 443.79 C 385.25 443.96, 384.14 444.56, 382.71 445.54 C 381.28 446.51, 381.03 447.36, 380.76 448.65 C 380.50 449.93, 380.80 451.16, 381.40 451.96 C 382.00 452.76, 383.02 453.21, 383.76 452.63 C 384.50 452.05, 385.02 449.88, 385.11 449.06 C 385.20 448.23, 384.52 448.43, 384.21 448.50 C 383.91 448.56, 383.59 449.15, 383.60 449.38 C 383.61 449.61, 383.38 449.55, 384.25 449.66 C 385.13 449.77, 385.90 449.80, 387.99 449.91 C 390.09 450.03, 391.51 449.57, 394.73 450.24 C 397.95 450.90, 400.39 451.51, 404.11 453.23 C 407.83 454.95, 410.09 456.19, 413.32 458.85 C 416.56 461.51, 418.21 463.11, 420.28 466.54 C 422.34 469.97, 423.36 472.15, 423.63 476.00 C 423.90 479.85, 423.69 481.91, 421.62 485.79 C 419.55 489.67, 417.65 491.70, 413.30 495.39 C 408.94 499.09, 405.93 501.25, 399.84 504.26 C 393.74 507.28, 389.81 508.90, 382.82 510.46 C 375.82 512.03, 371.47 512.30, 364.86 512.10 C 358.25 511.90, 354.65 511.29, 349.77 509.46 C 344.89 507.64, 343.01 506.52, 340.45 502.96 C 337.89 499.39, 337.07 496.86, 336.97 491.62 C 336.87 486.39, 337.71 482.96, 339.96 476.78 C 342.20 470.60, 344.41 466.68, 348.20 460.71 C 351.98 454.74, 354.68 451.15, 358.88 446.94 C 363.08 442.72, 365.59 441.10, 369.20 439.63 C 372.82 438.16, 374.28 438.79, 376.95 439.58 C 379.62 440.37, 380.35 442.16, 382.57 443.57 C 384.78 444.99, 386.45 446.52, 388.02 446.65 C 389.58 446.78, 390.68 445.94, 390.40 444.25" style="stroke: black; fill: black;"/><path d="M 455.76,438.38 C 454.85 439.05, 454.11 439.37, 453.66 441.80 C 453.22 444.23, 453.10 446.39, 453.55 450.53 C 454.01 454.66, 454.64 457.73, 455.94 462.49 C 457.24 467.25, 457.78 469.95, 460.05 474.33 C 462.32 478.71, 463.91 481.07, 467.29 484.38 C 470.66 487.68, 472.85 489.19, 476.92 490.86 C 480.99 492.54, 483.34 492.70, 487.64 492.75 C 491.94 492.80, 494.25 492.58, 498.42 491.10 C 502.58 489.61, 504.80 488.21, 508.47 485.34 C 512.15 482.47, 513.86 480.51, 516.80 476.74 C 519.74 472.97, 521.19 470.89, 523.19 466.48 C 525.19 462.07, 526.05 459.21, 526.78 454.69 C 527.52 450.16, 527.60 447.44, 526.85 443.85 C 526.11 440.26, 525.04 438.27, 523.05 436.73 C 521.07 435.19, 518.77 434.79, 516.93 436.17 C 515.09 437.54, 513.85 439.77, 513.86 443.62 C 513.87 447.46, 515.07 450.66, 516.97 455.39 C 518.87 460.11, 520.24 462.82, 523.35 467.24 C 526.45 471.65, 528.35 473.92, 532.50 477.48 C 536.65 481.03, 539.25 482.61, 544.10 485.02 C 548.96 487.42, 551.63 488.27, 556.77 489.49 C 561.91 490.71, 564.79 490.98, 569.81 491.12 C 574.82 491.25, 577.46 490.88, 581.86 490.16 C 586.26 489.43, 588.35 489.13, 591.80 487.50 C 595.24 485.88, 596.77 484.72, 599.10 482.02 C 601.44 479.33, 602.02 477.36, 603.47 474.04 C 604.92 470.71, 605.29 468.85, 606.36 465.41 C 607.44 461.98, 607.77 459.92, 608.85 456.87 C 609.93 453.82, 610.68 452.29, 611.77 450.16 C 612.87 448.02, 613.13 447.05, 614.31 446.18 C 615.49 445.31, 616.05 445.38, 617.69 445.81 C 619.33 446.23, 620.12 446.60, 622.50 448.32 C 624.88 450.03, 626.45 451.49, 629.59 454.38 C 632.72 457.28, 634.97 459.45, 638.18 462.79 C 641.39 466.13, 642.85 467.88, 645.65 471.09 C 648.44 474.31, 649.88 476.16, 652.16 478.87 C 654.44 481.58, 655.08 483.01, 657.05 484.65 C 659.01 486.28, 659.99 486.89, 661.98 487.04 C 663.96 487.20, 665.39 486.77, 666.97 485.42 C 668.56 484.07, 669.31 482.87, 669.91 480.27 C 670.51 477.67, 670.14 475.90, 669.97 472.41 C 669.80 468.92, 669.29 466.64, 669.05 462.83 C 668.82 459.03, 668.87 456.76, 668.78 453.39 C 668.68 450.02, 668.50 448.47, 668.60 445.98 C 668.69 443.50, 668.46 442.55, 669.25 440.95 C 670.05 439.34, 670.75 439.10, 672.56 437.97 C 674.37 436.83, 675.15 436.34, 678.32 435.28 C 681.49 434.22, 684.04 433.46, 688.40 432.67 C 692.77 431.88, 695.92 431.91, 700.16 431.32 C 704.40 430.73, 707.77 430.69, 709.62 429.72 C 711.47 428.75, 711.38 427.19, 709.40 426.47 C 707.43 425.76, 704.11 426.02, 699.73 426.15 C 695.35 426.28, 692.16 426.44, 687.50 427.10 C 682.85 427.77, 680.15 428.36, 676.46 429.50 C 672.78 430.63, 671.57 431.04, 669.09 432.78 C 666.61 434.51, 665.46 435.64, 664.05 438.19 C 662.65 440.73, 662.38 442.42, 662.05 445.49 C 661.73 448.56, 662.37 450.03, 662.43 453.53 C 662.50 457.04, 662.40 459.21, 662.38 463.02 C 662.36 466.84, 662.33 469.28, 662.33 472.60 C 662.33 475.92, 662.18 477.58, 662.38 479.63 C 662.59 481.68, 663.22 482.13, 663.34 482.85 C 663.46 483.57, 663.41 483.69, 662.99 483.21 C 662.56 482.73, 662.54 482.07, 661.23 480.45 C 659.91 478.83, 658.79 477.64, 656.43 475.09 C 654.07 472.55, 652.33 470.88, 649.43 467.71 C 646.53 464.55, 645.10 462.76, 641.93 459.28 C 638.75 455.80, 636.70 453.56, 633.55 450.32 C 630.40 447.08, 629.16 445.17, 626.19 443.11 C 623.21 441.04, 621.64 440.34, 618.69 439.98 C 615.74 439.62, 614.01 439.96, 611.43 441.31 C 608.86 442.65, 607.56 443.99, 605.83 446.70 C 604.10 449.40, 603.85 451.46, 602.79 454.85 C 601.72 458.25, 601.45 460.28, 600.50 463.67 C 599.55 467.06, 599.16 468.83, 598.02 471.79 C 596.89 474.76, 596.50 476.28, 594.81 478.50 C 593.11 480.72, 592.30 481.49, 589.55 482.90 C 586.79 484.31, 584.96 484.76, 581.02 485.55 C 577.08 486.34, 574.53 486.85, 569.86 486.85 C 565.20 486.85, 562.48 486.64, 557.68 485.56 C 552.88 484.48, 550.36 483.69, 545.86 481.47 C 541.35 479.24, 538.90 477.78, 535.15 474.43 C 531.41 471.09, 529.71 468.92, 527.11 464.74 C 524.51 460.55, 523.52 457.84, 522.13 453.51 C 520.75 449.19, 520.71 446.18, 520.19 443.12 C 519.66 440.07, 519.62 438.99, 519.50 438.26 C 519.37 437.54, 519.28 438.16, 519.57 439.50 C 519.87 440.83, 520.54 442.03, 520.99 444.93 C 521.44 447.83, 522.23 450.08, 521.82 454.02 C 521.41 457.95, 520.68 460.62, 518.94 464.59 C 517.21 468.57, 515.83 470.48, 513.15 473.88 C 510.47 477.27, 508.81 479.03, 505.54 481.56 C 502.26 484.09, 500.36 485.25, 496.79 486.52 C 493.22 487.79, 491.30 487.92, 487.68 487.91 C 484.06 487.90, 482.13 487.83, 478.70 486.47 C 475.26 485.11, 473.39 483.95, 470.51 481.10 C 467.62 478.26, 466.14 476.21, 464.29 472.24 C 462.44 468.27, 462.09 465.71, 461.26 461.26 C 460.42 456.80, 460.36 453.84, 460.13 449.96 C 459.90 446.09, 460.48 444.19, 460.10 441.89 C 459.72 439.59, 459.10 439.16, 458.24 438.46 C 457.37 437.76, 456.67 437.71, 455.76 438.38" style="stroke: black; fill: black;"/><path d="M 973.48,416.18 C 972.93 414.83, 972.04 413.14, 969.35 412.04 C 966.67 410.94, 964.46 410.76, 960.07 410.68 C 955.68 410.59, 952.68 410.55, 947.42 411.62 C 942.15 412.68, 939.29 414.13, 933.74 416.02 C 928.19 417.91, 924.71 418.81, 919.67 421.05 C 914.63 423.28, 911.81 424.50, 908.54 427.18 C 905.28 429.86, 903.63 431.31, 903.34 434.45 C 903.05 437.60, 904.02 439.99, 907.09 442.91 C 910.16 445.83, 913.27 446.57, 918.71 449.07 C 924.14 451.58, 927.71 452.94, 934.29 455.44 C 940.86 457.93, 944.99 459.01, 951.60 461.55 C 958.20 464.08, 961.85 465.60, 967.30 468.11 C 972.74 470.61, 975.51 472.15, 978.81 474.07 C 982.12 475.99, 983.04 476.49, 983.82 477.72 C 984.59 478.96, 984.47 478.86, 982.69 480.23 C 980.91 481.60, 979.44 482.89, 974.92 484.59 C 970.39 486.28, 966.82 487.19, 960.07 488.70 C 953.32 490.21, 948.93 491.06, 941.18 492.11 C 933.44 493.17, 928.94 493.69, 921.35 493.98 C 913.75 494.26, 909.62 494.35, 903.20 493.54 C 896.78 492.73, 893.57 491.86, 889.26 489.92 C 884.95 487.97, 883.62 486.57, 881.67 483.82 C 879.73 481.07, 879.30 479.70, 879.53 476.17 C 879.75 472.65, 880.15 470.57, 882.80 466.20 C 885.45 461.84, 887.51 459.30, 892.77 454.35 C 898.03 449.40, 901.75 446.63, 909.09 441.44 C 916.44 436.25, 921.05 433.40, 929.49 428.41 C 937.92 423.42, 942.65 420.93, 951.26 416.49 C 959.87 412.06, 964.63 409.92, 972.53 406.25 C 980.43 402.59, 984.55 400.84, 990.78 398.16 C 997.00 395.48, 999.65 394.02, 1003.65 392.83 C 1007.66 391.65, 1008.99 391.65, 1010.81 392.24 C 1012.63 392.82, 1012.09 393.16, 1012.76 395.75 C 1013.43 398.34, 1013.60 400.65, 1014.16 405.19 C 1014.71 409.73, 1014.84 412.82, 1015.54 418.45 C 1016.24 424.09, 1016.74 427.53, 1017.67 433.36 C 1018.60 439.19, 1019.15 442.23, 1020.20 447.62 C 1021.25 453.00, 1021.89 455.63, 1022.93 460.29 C 1023.96 464.95, 1024.51 467.41, 1025.38 470.93 C 1026.24 474.44, 1026.48 475.94, 1027.24 477.86 C 1028.00 479.77, 1028.63 480.31, 1029.19 480.50 C 1029.75 480.69, 1029.97 479.96, 1030.02 478.79 C 1030.07 477.62, 1030.04 476.19, 1029.43 474.65 C 1028.82 473.11, 1028.01 472.18, 1026.97 471.11 C 1025.93 470.03, 1025.07 469.65, 1024.22 469.27 C 1023.36 468.88, 1022.69 469.02, 1022.70 469.18 C 1022.71 469.34, 1022.92 469.91, 1024.27 470.05 C 1025.62 470.20, 1026.74 470.67, 1029.44 469.89 C 1032.14 469.10, 1033.64 467.57, 1037.77 466.14 C 1041.90 464.70, 1044.52 464.23, 1050.09 462.71 C 1055.65 461.19, 1059.11 460.28, 1065.59 458.54 C 1072.08 456.79, 1075.69 455.69, 1082.51 453.99 C 1089.33 452.29, 1093.37 451.56, 1099.71 450.04 C 1106.05 448.53, 1109.26 447.59, 1114.21 446.41 C 1119.16 445.24, 1121.37 445.20, 1124.45 444.17 C 1127.53 443.14, 1128.86 442.32, 1129.60 441.27 C 1130.35 440.22, 1129.65 439.18, 1128.15 438.91 C 1126.66 438.64, 1124.93 438.75, 1122.13 439.92 C 1119.33 441.08, 1117.47 442.59, 1114.18 444.72 C 1110.88 446.85, 1108.95 448.31, 1105.65 450.57 C 1102.35 452.84, 1100.37 453.71, 1097.68 456.04 C 1094.99 458.36, 1093.36 459.42, 1092.20 462.20 C 1091.04 464.98, 1090.85 467.12, 1091.88 469.93 C 1092.91 472.73, 1094.26 474.35, 1097.33 476.23 C 1100.41 478.11, 1102.59 478.50, 1107.27 479.31 C 1111.95 480.12, 1114.95 480.20, 1120.71 480.27 C 1126.47 480.33, 1130.06 480.27, 1136.07 479.65 C 1142.07 479.02, 1145.33 478.56, 1150.74 477.15 C 1156.15 475.73, 1158.93 474.89, 1163.14 472.57 C 1167.35 470.25, 1169.24 468.71, 1171.79 465.57 C 1174.35 462.42, 1175.37 460.48, 1175.91 456.84 C 1176.45 453.21, 1175.99 450.86, 1174.49 447.40 C 1172.98 443.94, 1171.43 442.23, 1168.38 439.54 C 1165.34 436.86, 1163.16 435.72, 1159.25 433.96 C 1155.34 432.20, 1152.78 431.34, 1148.84 430.73 C 1144.90 430.13, 1142.51 429.87, 1139.56 430.94 C 1136.61 432.01, 1134.88 433.61, 1134.08 436.10 C 1133.27 438.60, 1134.16 440.92, 1135.54 443.42 C 1136.91 445.92, 1138.46 447.28, 1140.93 448.60 C 1143.40 449.93, 1146.11 450.47, 1147.89 450.06 C 1149.67 449.65, 1150.33 448.24, 1149.83 446.57 C 1149.34 444.89, 1147.26 443.16, 1145.40 441.69 C 1143.54 440.22, 1142.00 440.09, 1140.52 439.21 C 1139.04 438.33, 1137.91 437.75, 1138.00 437.28 C 1138.08 436.82, 1138.98 436.98, 1140.96 436.88 C 1142.95 436.79, 1144.73 436.34, 1147.93 436.81 C 1151.13 437.28, 1153.61 437.81, 1156.95 439.21 C 1160.29 440.62, 1162.17 441.75, 1164.64 443.86 C 1167.11 445.97, 1168.11 447.30, 1169.30 449.76 C 1170.50 452.22, 1170.85 453.59, 1170.60 456.17 C 1170.34 458.74, 1169.94 460.07, 1168.03 462.62 C 1166.12 465.17, 1164.71 466.75, 1161.05 468.90 C 1157.39 471.04, 1154.81 472.00, 1149.74 473.36 C 1144.66 474.72, 1141.46 475.19, 1135.69 475.70 C 1129.91 476.20, 1126.33 476.18, 1120.85 475.88 C 1115.38 475.59, 1112.40 475.23, 1108.32 474.23 C 1104.24 473.23, 1102.77 472.15, 1100.46 470.88 C 1098.15 469.61, 1097.44 469.11, 1096.78 467.88 C 1096.13 466.65, 1096.22 466.14, 1097.19 464.74 C 1098.15 463.34, 1099.26 462.67, 1101.62 460.87 C 1103.99 459.07, 1105.75 457.72, 1109.00 455.76 C 1112.24 453.80, 1114.41 452.82, 1117.84 451.07 C 1121.28 449.31, 1123.69 448.82, 1126.16 446.98 C 1128.63 445.14, 1129.61 443.55, 1130.18 441.87 C 1130.74 440.20, 1130.42 439.14, 1128.98 438.60 C 1127.54 438.06, 1126.13 438.35, 1122.97 439.16 C 1119.81 439.98, 1117.99 441.15, 1113.18 442.67 C 1108.36 444.20, 1105.18 445.15, 1098.89 446.78 C 1092.60 448.41, 1088.56 449.16, 1081.73 450.82 C 1074.90 452.49, 1071.25 453.57, 1064.73 455.12 C 1058.21 456.67, 1054.78 457.46, 1049.12 458.57 C 1043.45 459.68, 1040.75 459.96, 1036.39 460.66 C 1032.04 461.36, 1030.11 461.37, 1027.33 462.06 C 1024.56 462.75, 1024.08 463.11, 1022.51 464.12 C 1020.93 465.13, 1020.28 465.66, 1019.46 467.11 C 1018.65 468.55, 1018.49 469.55, 1018.43 471.36 C 1018.36 473.16, 1018.36 474.37, 1019.14 476.13 C 1019.92 477.90, 1020.75 478.89, 1022.32 480.17 C 1023.90 481.45, 1025.20 482.28, 1027.02 482.53 C 1028.85 482.79, 1030.31 482.61, 1031.44 481.43 C 1032.56 480.26, 1032.85 479.03, 1032.64 476.64 C 1032.44 474.26, 1031.53 472.98, 1030.41 469.50 C 1029.30 466.02, 1028.34 463.78, 1027.06 459.25 C 1025.78 454.72, 1025.10 452.14, 1024.00 446.85 C 1022.90 441.56, 1022.36 438.55, 1021.54 432.78 C 1020.72 427.00, 1020.41 423.61, 1019.90 417.98 C 1019.39 412.36, 1019.51 409.42, 1019.02 404.64 C 1018.52 399.86, 1018.84 397.32, 1017.44 394.08 C 1016.04 390.85, 1014.97 389.40, 1012.00 388.47 C 1009.03 387.54, 1007.08 387.99, 1002.60 389.42 C 998.13 390.84, 995.83 392.65, 989.61 395.58 C 983.39 398.52, 979.38 400.30, 971.50 404.08 C 963.63 407.86, 958.86 410.02, 950.22 414.48 C 941.58 418.95, 936.83 421.43, 928.30 426.39 C 919.78 431.35, 915.12 434.15, 907.59 439.28 C 900.06 444.41, 896.25 447.05, 890.66 452.04 C 885.06 457.03, 882.66 459.44, 879.61 464.21 C 876.56 468.99, 875.64 471.55, 875.41 475.94 C 875.17 480.32, 875.96 482.70, 878.45 486.13 C 880.93 489.57, 882.97 491.03, 887.85 493.13 C 892.73 495.22, 896.12 495.85, 902.84 496.60 C 909.56 497.35, 913.71 497.17, 921.46 496.89 C 929.20 496.60, 933.70 496.09, 941.57 495.17 C 949.44 494.26, 953.83 493.57, 960.80 492.29 C 967.77 491.02, 971.34 490.52, 976.41 488.81 C 981.49 487.10, 984.02 486.29, 986.18 483.75 C 988.34 481.22, 988.25 478.80, 987.21 476.14 C 986.16 473.48, 984.67 472.71, 980.97 470.46 C 977.28 468.20, 974.37 467.27, 968.73 464.87 C 963.09 462.47, 959.41 461.02, 952.78 458.46 C 946.15 455.91, 942.05 454.73, 935.59 452.11 C 929.14 449.48, 925.58 447.86, 920.49 445.33 C 915.40 442.80, 912.74 441.54, 910.13 439.46 C 907.53 437.38, 907.23 436.63, 907.48 434.91 C 907.73 433.19, 908.59 432.85, 911.38 430.85 C 914.17 428.86, 916.69 427.11, 921.42 424.94 C 926.15 422.76, 929.69 421.71, 935.05 419.98 C 940.41 418.25, 943.29 416.98, 948.23 416.27 C 953.16 415.56, 955.89 416.04, 959.74 416.42 C 963.59 416.81, 965.00 417.74, 967.47 418.21 C 969.94 418.68, 970.88 419.18, 972.08 418.77 C 973.29 418.36, 974.03 417.52, 973.48 416.18" style="stroke: black; fill: black;"/><path d="M 1233.89,444.01 C 1233.06 445.34, 1232.73 447.20, 1232.82 450.44 C 1232.90 453.69, 1233.44 456.13, 1234.31 460.23 C 1235.17 464.33, 1236.00 467.16, 1237.14 470.95 C 1238.29 474.74, 1238.56 476.79, 1240.03 479.19 C 1241.50 481.59, 1242.87 482.45, 1244.50 482.96 C 1246.13 483.47, 1247.19 483.09, 1248.18 481.76 C 1249.17 480.43, 1249.67 479.04, 1249.44 476.31 C 1249.21 473.59, 1248.09 471.73, 1247.05 468.14 C 1246.02 464.56, 1245.07 462.20, 1244.28 458.38 C 1243.50 454.55, 1243.06 452.23, 1243.13 449.04 C 1243.19 445.84, 1243.87 444.60, 1244.60 442.40 C 1245.34 440.21, 1245.63 439.30, 1246.80 438.07 C 1247.98 436.84, 1248.56 436.71, 1250.48 436.26 C 1252.40 435.82, 1253.39 435.98, 1256.41 435.85 C 1259.43 435.71, 1261.23 435.58, 1265.58 435.60 C 1269.93 435.62, 1272.71 435.78, 1278.15 435.94 C 1283.59 436.11, 1286.72 436.19, 1292.78 436.43 C 1298.85 436.66, 1302.17 436.76, 1308.47 437.11 C 1314.77 437.45, 1318.42 437.82, 1324.28 438.16 C 1330.14 438.50, 1333.10 438.54, 1337.77 438.79 C 1342.44 439.04, 1344.37 439.10, 1347.61 439.39 C 1350.86 439.68, 1352.36 439.92, 1353.98 440.23 C 1355.59 440.55, 1355.37 440.20, 1355.69 440.97 C 1356.01 441.74, 1355.56 442.63, 1355.58 444.08 C 1355.59 445.54, 1355.38 446.61, 1355.75 448.23 C 1356.11 449.84, 1356.55 450.54, 1357.41 452.17 C 1358.27 453.79, 1358.46 454.94, 1360.05 456.35 C 1361.63 457.77, 1362.94 458.61, 1365.34 459.25 C 1367.74 459.88, 1369.04 460.19, 1372.05 459.53 C 1375.06 458.87, 1376.53 457.58, 1380.38 455.94 C 1384.23 454.30, 1386.68 453.38, 1391.32 451.31 C 1395.95 449.24, 1398.98 447.53, 1403.55 445.59 C 1408.12 443.65, 1410.71 442.56, 1414.17 441.62 C 1417.62 440.68, 1419.47 441.54, 1420.83 440.91 C 1422.19 440.28, 1422.46 439.24, 1420.95 438.47 C 1419.43 437.70, 1417.11 436.53, 1413.26 437.06 C 1409.40 437.58, 1406.47 439.16, 1401.69 441.08 C 1396.91 443.00, 1394.01 444.79, 1389.35 446.64 C 1384.68 448.50, 1382.13 449.25, 1378.36 450.35 C 1374.59 451.46, 1372.82 451.72, 1370.50 452.18 C 1368.18 452.64, 1367.98 452.80, 1366.77 452.65 C 1365.56 452.50, 1365.11 452.03, 1364.45 451.44 C 1363.80 450.84, 1363.69 450.65, 1363.49 449.69 C 1363.30 448.72, 1363.75 448.11, 1363.47 446.62 C 1363.20 445.13, 1362.98 443.91, 1362.11 442.24 C 1361.24 440.56, 1360.46 439.61, 1359.11 438.26 C 1357.77 436.92, 1357.59 436.33, 1355.36 435.52 C 1353.13 434.71, 1351.47 434.38, 1347.97 434.20 C 1344.47 434.03, 1342.56 434.58, 1337.86 434.64 C 1333.15 434.69, 1330.29 434.69, 1324.45 434.47 C 1318.62 434.25, 1314.97 433.91, 1308.67 433.55 C 1302.38 433.19, 1299.03 433.04, 1292.98 432.65 C 1286.92 432.26, 1283.83 432.06, 1278.40 431.59 C 1272.98 431.13, 1270.27 430.77, 1265.84 430.35 C 1261.42 429.93, 1259.71 429.50, 1256.29 429.49 C 1252.87 429.48, 1251.46 429.38, 1248.74 430.29 C 1246.03 431.19, 1244.74 432.02, 1242.72 434.02 C 1240.70 436.01, 1239.76 437.29, 1238.64 440.27 C 1237.52 443.24, 1237.22 445.08, 1237.12 448.90 C 1237.02 452.72, 1237.62 455.21, 1238.15 459.38 C 1238.68 463.56, 1239.13 466.01, 1239.77 469.80 C 1240.42 473.59, 1240.30 475.89, 1241.37 478.33 C 1242.44 480.78, 1243.97 481.52, 1245.11 482.02 C 1246.26 482.52, 1246.85 481.99, 1247.10 480.83 C 1247.36 479.67, 1247.16 478.59, 1246.40 476.21 C 1245.63 473.84, 1244.49 472.42, 1243.29 468.97 C 1242.10 465.51, 1241.28 462.77, 1240.43 458.91 C 1239.58 455.06, 1239.74 452.70, 1239.05 449.67 C 1238.36 446.64, 1238.01 444.89, 1236.98 443.76 C 1235.95 442.63, 1234.72 442.67, 1233.89 444.01" style="stroke: black; fill: black;"/><path d="M 1451.68,438.50 C 1450.60 438.43, 1450.09 438.91, 1448.57 439.97 C 1447.05 441.03, 1446.18 441.40, 1444.07 443.79 C 1441.97 446.18, 1440.93 447.79, 1438.05 451.91 C 1435.17 456.02, 1433.55 458.78, 1429.67 464.38 C 1425.79 469.98, 1423.30 473.15, 1418.65 479.91 C 1414.01 486.68, 1411.21 490.81, 1406.45 498.20 C 1401.68 505.59, 1399.10 509.62, 1394.84 516.87 C 1390.59 524.11, 1388.61 527.75, 1385.17 534.42 C 1381.73 541.09, 1380.23 544.42, 1377.65 550.22 C 1375.06 556.02, 1372.77 560.57, 1372.24 563.44 C 1371.72 566.31, 1373.43 566.97, 1375.02 564.55 C 1376.61 562.13, 1377.70 557.13, 1380.21 551.35 C 1382.72 545.57, 1384.20 542.28, 1387.57 535.65 C 1390.94 529.01, 1392.84 525.37, 1397.06 518.16 C 1401.27 510.96, 1403.85 506.94, 1408.65 499.63 C 1413.45 492.32, 1416.27 488.23, 1421.06 481.60 C 1425.84 474.98, 1428.41 471.84, 1432.56 466.50 C 1436.72 461.17, 1438.54 458.54, 1441.84 454.94 C 1445.14 451.35, 1446.84 450.72, 1449.07 448.54 C 1451.31 446.37, 1452.03 445.73, 1453.01 444.08 C 1454.00 442.43, 1454.25 441.41, 1453.99 440.29 C 1453.72 439.18, 1452.76 438.56, 1451.68 438.50" style="stroke: black; fill: black;"/></svg>